<svg xmlns="http://www.w3.org/2000/svg" width="1000" height="650" viewBox="0 0 1000 650">
  <rect width="100%" height="100%" fill="white"/>
  <text x="80" y="30" font-family="Arial" font-size="20">grid_05506_np_r04 corrected coupling: same-center vs nonperiodic five-cell</text>
  <line x1="80" y1="290" x2="940" y2="290" stroke="#444"/>
  <line x1="80" y1="70" x2="80" y2="290" stroke="#444"/>
  <line x1="80" y1="600" x2="940" y2="600" stroke="#444"/>
  <line x1="80" y1="380" x2="80" y2="600" stroke="#444"/>
  <polyline fill="none" stroke="#1f5a9d" stroke-width="1.6" stroke-linejoin="round" stroke-linecap="round" points="80.00,241.29 80.86,240.25 81.72,239.18 82.58,238.09 83.44,236.99 84.30,235.86 85.16,234.71 86.02,233.54 86.88,232.36 87.74,231.15 88.60,229.92 89.46,228.68 90.32,227.41 91.18,226.13 92.04,224.82 92.90,223.50 93.76,222.16 94.62,220.81 95.48,219.44 96.34,218.05 97.20,216.65 98.06,215.24 98.92,213.81 99.78,212.37 100.64,210.92 101.50,209.46 102.36,207.99 103.22,206.52 104.08,205.04 104.94,203.56 105.80,202.07 106.66,200.58 107.52,199.10 108.38,197.61 109.24,196.13 110.10,194.66 110.96,193.19 111.82,191.74 112.68,190.29 113.54,188.86 114.40,187.44 115.26,186.04 116.12,184.65 116.98,183.29 117.84,181.94 118.70,180.62 119.56,179.33 120.42,178.05 121.28,176.81 122.14,175.60 123.00,174.41 123.86,173.25 124.72,172.13 125.58,171.03 126.44,169.97 127.30,168.95 128.16,167.95 129.02,166.99 129.88,166.07 130.74,165.17 131.60,164.32 132.46,163.49 133.32,162.70 134.18,161.94 135.04,161.22 135.90,160.53 136.76,159.87 137.62,159.24 138.48,158.64 139.34,158.07 140.20,157.53 141.06,157.02 141.92,156.54 142.78,156.08 143.64,155.65 144.50,155.24 145.36,154.85 146.22,154.49 147.08,154.15 147.94,153.83 148.80,153.53 149.66,153.25 150.52,152.99 151.38,152.74 152.24,152.51 153.10,152.30 153.96,152.10 154.82,151.91 155.68,151.74 156.54,151.58 157.40,151.43 158.26,151.29 159.12,151.16 159.98,151.04 160.84,150.93 161.70,150.83 162.56,150.73 163.42,150.65 164.28,150.57 165.14,150.49 166.00,150.42 166.86,150.36 167.72,150.30 168.58,150.24 169.44,150.19 170.30,150.15 171.16,150.10 172.02,150.06 172.88,150.03 173.74,149.99 174.60,149.96 175.46,149.93 176.32,149.91 177.18,149.88 178.04,149.86 178.90,149.83 179.76,149.81 180.62,149.79 181.48,149.77 182.34,149.76 183.20,149.74 184.06,149.72 184.92,149.71 185.78,149.70 186.64,149.68 187.50,149.67 188.36,149.66 189.22,149.65 190.08,149.63 190.94,149.62 191.80,149.61 192.66,149.60 193.52,149.59 194.38,149.58 195.24,149.57 196.10,149.57 196.96,149.56 197.82,149.55 198.68,149.54 199.54,149.54 200.40,149.53 201.26,149.53 202.12,149.52 202.98,149.52 203.84,149.51 204.70,149.51 205.56,149.50 206.42,149.50 207.28,149.50 208.14,149.50 209.00,149.50 209.86,149.50 210.72,149.50 211.58,149.50 212.44,149.50 213.30,149.51 214.16,149.51 215.02,149.51 215.88,149.52 216.74,149.53 217.60,149.53 218.46,149.54 219.32,149.55 220.18,149.56 221.04,149.57 221.90,149.59 222.76,149.60 223.62,149.61 224.48,149.63 225.34,149.64 226.20,149.66 227.06,149.68 227.92,149.70 228.78,149.72 229.64,149.74 230.50,149.76 231.36,149.79 232.22,149.81 233.08,149.84 233.94,149.87 234.80,149.89 235.66,149.92 236.52,149.95 237.38,149.98 238.24,150.02 239.10,150.05 239.96,150.09 240.82,150.12 241.68,150.16 242.54,150.19 243.40,150.23 244.26,150.27 245.12,150.31 245.98,150.35 246.84,150.40 247.70,150.44 248.56,150.48 249.42,150.53 250.28,150.57 251.14,150.62 252.00,150.67 252.86,150.72 253.72,150.76 254.58,150.81 255.44,150.86 256.30,150.92 257.16,150.97 258.02,151.02 258.88,151.07 259.74,151.12 260.60,151.18 261.46,151.23 262.32,151.29 263.18,151.34 264.04,151.40 264.90,151.45 265.76,151.51 266.62,151.57 267.48,151.62 268.34,151.68 269.20,151.74 270.06,151.80 270.92,151.85 271.78,151.91 272.64,151.97 273.50,152.03 274.36,152.09 275.22,152.14 276.08,152.20 276.94,152.26 277.80,152.32 278.66,152.37 279.52,152.43 280.38,152.49 281.24,152.55 282.10,152.60 282.96,152.66 283.82,152.72 284.68,152.77 285.54,152.83 286.40,152.88 287.26,152.94 288.12,152.99 288.98,153.05 289.84,153.10 290.70,153.15 291.56,153.21 292.42,153.26 293.28,153.31 294.14,153.36 295.00,153.41 295.86,153.46 296.72,153.51 297.58,153.56 298.44,153.61 299.30,153.65 300.16,153.70 301.02,153.74 301.88,153.79 302.74,153.83 303.60,153.88 304.46,153.92 305.32,153.96 306.18,154.00 307.04,154.04 307.90,154.08 308.76,154.11 309.62,154.15 310.48,154.18 311.34,154.22 312.20,154.25 313.06,154.28 313.92,154.31 314.78,154.34 315.64,154.37 316.50,154.40 317.36,154.43 318.22,154.45 319.08,154.48 319.94,154.50 320.80,154.52 321.66,154.54 322.52,154.56 323.38,154.58 324.24,154.60 325.10,154.62 325.96,154.63 326.82,154.65 327.68,154.66 328.54,154.67 329.40,154.68 330.26,154.69 331.12,154.70 331.98,154.70 332.84,154.71 333.70,154.71 334.56,154.72 335.42,154.72 336.28,154.72 337.14,154.72 338.00,154.71 338.86,154.71 339.72,154.71 340.58,154.70 341.44,154.69 342.30,154.69 343.16,154.68 344.02,154.67 344.88,154.65 345.74,154.64 346.60,154.63 347.46,154.61 348.32,154.60 349.18,154.58 350.04,154.56 350.90,154.54 351.76,154.52 352.62,154.50 353.48,154.47 354.34,154.45 355.20,154.42 356.06,154.40 356.92,154.37 357.78,154.34 358.64,154.31 359.50,154.28 360.36,154.25 361.22,154.22 362.08,154.18 362.94,154.15 363.80,154.11 364.66,154.07 365.52,154.04 366.38,154.00 367.24,153.96 368.10,153.92 368.96,153.88 369.82,153.83 370.68,153.79 371.54,153.75 372.40,153.70 373.26,153.65 374.12,153.61 374.98,153.56 375.84,153.51 376.70,153.46 377.56,153.41 378.42,153.36 379.28,153.31 380.14,153.26 381.00,153.21 381.86,153.15 382.72,153.10 383.58,153.05 384.44,152.99 385.30,152.94 386.16,152.88 387.02,152.82 387.88,152.76 388.74,152.71 389.60,152.65 390.46,152.59 391.32,152.53 392.18,152.47 393.04,152.41 393.90,152.35 394.76,152.29 395.62,152.23 396.48,152.16 397.34,152.10 398.20,152.04 399.06,151.98 399.92,151.91 400.78,151.85 401.64,151.79 402.50,151.72 403.36,151.66 404.22,151.59 405.08,151.53 405.94,151.46 406.80,151.40 407.66,151.34 408.52,151.27 409.38,151.21 410.24,151.14 411.10,151.07 411.96,151.01 412.82,150.94 413.68,150.88 414.54,150.81 415.40,150.75 416.26,150.68 417.12,150.62 417.98,150.55 418.84,150.49 419.70,150.42 420.56,150.36 421.42,150.30 422.28,150.23 423.14,150.17 424.00,150.10 424.86,150.04 425.72,149.98 426.58,149.92 427.44,149.85 428.30,149.79 429.16,149.73 430.02,149.67 430.88,149.61 431.74,149.55 432.60,149.48 433.46,149.42 434.32,149.37 435.18,149.31 436.04,149.25 436.90,149.19 437.76,149.13 438.62,149.07 439.48,149.02 440.34,148.96 441.20,148.91 442.06,148.85 442.92,148.80 443.78,148.74 444.64,148.69 445.50,148.64 446.36,148.58 447.22,148.53 448.08,148.48 448.94,148.43 449.80,148.38 450.66,148.33 451.52,148.28 452.38,148.24 453.24,148.19 454.10,148.14 454.96,148.10 455.82,148.05 456.68,148.01 457.54,147.96 458.40,147.92 459.26,147.88 460.12,147.84 460.98,147.80 461.84,147.76 462.70,147.72 463.56,147.68 464.42,147.64 465.28,147.61 466.14,147.57 467.00,147.53 467.86,147.50 468.72,147.47 469.58,147.43 470.44,147.40 471.30,147.37 472.16,147.34 473.02,147.31 473.88,147.28 474.74,147.25 475.60,147.23 476.46,147.20 477.32,147.17 478.18,147.15 479.04,147.12 479.90,147.10 480.76,147.08 481.62,147.05 482.48,147.03 483.34,147.01 484.20,146.99 485.06,146.97 485.92,146.96 486.78,146.94 487.64,146.92 488.50,146.91 489.36,146.89 490.22,146.88 491.08,146.86 491.94,146.85 492.80,146.84 493.66,146.82 494.52,146.81 495.38,146.80 496.24,146.79 497.10,146.78 497.96,146.77 498.82,146.77 499.68,146.76 500.54,146.75 501.40,146.75 502.26,146.74 503.12,146.74 503.98,146.73 504.84,146.73 505.70,146.72 506.56,146.72 507.42,146.72 508.28,146.72 509.14,146.72 510.00,146.72 510.86,146.72 511.72,146.72 512.58,146.72 513.44,146.72 514.30,146.72 515.16,146.72 516.02,146.72 516.88,146.73 517.74,146.73 518.60,146.73 519.46,146.74 520.32,146.74 521.18,146.75 522.04,146.75 522.90,146.76 523.76,146.76 524.62,146.77 525.48,146.78 526.34,146.78 527.20,146.79 528.06,146.80 528.92,146.80 529.78,146.81 530.64,146.82 531.50,146.82 532.36,146.83 533.22,146.84 534.08,146.85 534.94,146.86 535.80,146.86 536.66,146.87 537.52,146.88 538.38,146.89 539.24,146.90 540.10,146.91 540.96,146.92 541.82,146.92 542.68,146.93 543.54,146.94 544.40,146.95 545.26,146.96 546.12,146.97 546.98,146.98 547.84,146.98 548.70,146.99 549.56,147.00 550.42,147.01 551.28,147.02 552.14,147.02 553.00,147.03 553.86,147.04 554.72,147.05 555.58,147.05 556.44,147.06 557.30,147.07 558.16,147.07 559.02,147.08 559.88,147.09 560.74,147.09 561.60,147.10 562.46,147.10 563.32,147.11 564.18,147.11 565.04,147.12 565.90,147.12 566.76,147.12 567.62,147.13 568.48,147.13 569.34,147.13 570.20,147.14 571.06,147.14 571.92,147.14 572.78,147.14 573.64,147.14 574.50,147.14 575.36,147.14 576.22,147.14 577.08,147.14 577.94,147.14 578.80,147.14 579.66,147.14 580.52,147.13 581.38,147.13 582.24,147.13 583.10,147.13 583.96,147.12 584.82,147.12 585.68,147.11 586.54,147.11 587.40,147.10 588.26,147.09 589.12,147.09 589.98,147.08 590.84,147.07 591.70,147.06 592.56,147.05 593.42,147.04 594.28,147.03 595.14,147.02 596.00,147.01 596.86,147.00 597.72,146.99 598.58,146.98 599.44,146.97 600.30,146.95 601.16,146.94 602.02,146.92 602.88,146.91 603.74,146.89 604.60,146.88 605.46,146.86 606.32,146.85 607.18,146.83 608.04,146.81 608.90,146.79 609.76,146.78 610.62,146.76 611.48,146.74 612.34,146.72 613.20,146.70 614.06,146.68 614.92,146.66 615.78,146.64 616.64,146.61 617.50,146.59 618.36,146.57 619.22,146.55 620.08,146.52 620.94,146.50 621.80,146.47 622.66,146.45 623.52,146.42 624.38,146.40 625.24,146.37 626.10,146.35 626.96,146.32 627.82,146.30 628.68,146.27 629.54,146.24 630.40,146.22 631.26,146.19 632.12,146.16 632.98,146.13 633.84,146.10 634.70,146.08 635.56,146.05 636.42,146.02 637.28,145.99 638.14,145.96 639.00,145.93 639.86,145.90 640.72,145.87 641.58,145.84 642.44,145.81 643.30,145.78 644.16,145.75 645.02,145.72 645.88,145.69 646.74,145.66 647.60,145.63 648.46,145.60 649.32,145.58 650.18,145.55 651.04,145.52 651.90,145.49 652.76,145.46 653.62,145.43 654.48,145.40 655.34,145.37 656.20,145.34 657.06,145.31 657.92,145.29 658.78,145.26 659.64,145.23 660.50,145.20 661.36,145.17 662.22,145.15 663.08,145.12 663.94,145.10 664.80,145.07 665.66,145.04 666.52,145.02 667.38,144.99 668.24,144.97 669.10,144.95 669.96,144.92 670.82,144.90 671.68,144.88 672.54,144.86 673.40,144.84 674.26,144.82 675.12,144.80 675.98,144.78 676.84,144.76 677.70,144.74 678.56,144.72 679.42,144.71 680.28,144.69 681.14,144.67 682.00,144.66 682.86,144.64 683.72,144.63 684.58,144.62 685.44,144.61 686.30,144.60 687.16,144.59 688.02,144.58 688.88,144.57 689.74,144.56 690.60,144.55 691.46,144.54 692.32,144.54 693.18,144.53 694.04,144.53 694.90,144.53 695.76,144.52 696.62,144.52 697.48,144.52 698.34,144.52 699.20,144.52 700.06,144.52 700.92,144.53 701.78,144.53 702.64,144.53 703.50,144.54 704.36,144.55 705.22,144.55 706.08,144.56 706.94,144.57 707.80,144.58 708.66,144.59 709.52,144.60 710.38,144.61 711.24,144.62 712.10,144.63 712.96,144.65 713.82,144.66 714.68,144.67 715.54,144.69 716.40,144.70 717.26,144.72 718.12,144.74 718.98,144.75 719.84,144.77 720.70,144.78 721.56,144.80 722.42,144.81 723.28,144.83 724.14,144.84 725.00,144.86 725.86,144.87 726.72,144.88 727.58,144.89 728.44,144.89 729.30,144.90 730.16,144.90 731.02,144.90 731.88,144.90 732.74,144.90 733.60,144.90 734.46,144.92 735.32,144.97 736.18,145.11 737.04,145.44 737.90,146.22 738.76,148.09 739.62,152.39 740.48,159.37 741.34,162.78 742.20,160.29 743.06,157.01 743.92,154.68 744.78,153.15 745.64,152.15 746.50,151.47 747.36,151.01 748.22,150.68 749.08,150.44 749.94,150.28 750.80,150.17 751.66,150.10 752.52,150.06 753.38,150.05 754.24,150.06 755.10,150.08 755.96,150.12 756.82,150.17 757.68,150.24 758.54,150.31 759.40,150.39 760.26,150.48 761.12,150.58 761.98,150.69 762.84,150.80 763.70,150.92 764.56,151.05 765.42,151.18 766.28,151.32 767.14,151.47 768.00,151.63 768.86,151.79 769.72,151.96 770.58,152.14 771.44,152.33 772.30,152.52 773.16,152.72 774.02,152.93 774.88,153.14 775.74,153.35 776.60,153.56 777.46,153.77 778.32,153.97 779.18,154.16 780.04,154.35 780.90,154.52 781.76,154.68 782.62,154.83 783.48,154.97 784.34,155.11 785.20,155.24 786.06,155.37 786.92,155.50 787.78,155.63 788.64,155.77 789.50,155.90 790.36,156.04 791.22,156.18 792.08,156.32 792.94,156.47 793.80,156.62 794.66,156.77 795.52,156.92 796.38,157.08 797.24,157.24 798.10,157.41 798.96,157.57 799.82,157.74 800.68,157.91 801.54,158.09 802.40,158.26 803.26,158.44 804.12,158.61 804.98,158.79 805.84,158.97 806.70,159.15 807.56,159.34 808.42,159.52 809.28,159.70 810.14,159.89 811.00,160.08 811.86,160.27 812.72,160.45 813.58,160.64 814.44,160.83 815.30,161.02 816.16,161.21 817.02,161.40 817.88,161.60 818.74,161.79 819.60,161.98 820.46,162.17 821.32,162.37 822.18,162.56 823.04,162.75 823.90,162.95 824.76,163.14 825.62,163.33 826.48,163.53 827.34,163.72 828.20,163.91 829.06,164.11 829.92,164.30 830.78,164.49 831.64,164.69 832.50,164.88 833.36,165.07 834.22,165.26 835.08,165.46 835.94,165.65 836.80,165.84 837.66,166.03 838.52,166.22 839.38,166.41 840.24,166.60 841.10,166.79 841.96,166.98 842.82,167.16 843.68,167.35 844.54,167.54 845.40,167.73 846.26,167.91 847.12,168.10 847.98,168.28 848.84,168.46 849.70,168.65 850.56,168.83 851.42,169.01 852.28,169.19 853.14,169.37 854.00,169.55 854.86,169.73 855.72,169.90 856.58,170.08 857.44,170.25 858.30,170.43 859.16,170.60 860.02,170.77 860.88,170.95 861.74,171.12 862.60,171.29 863.46,171.45 864.32,171.62 865.18,171.79 866.04,171.95 866.90,172.12 867.76,172.28 868.62,172.44 869.48,172.60 870.34,172.76 871.20,172.92 872.06,173.08 872.92,173.23 873.78,173.39 874.64,173.54 875.50,173.70 876.36,173.85 877.22,174.00 878.08,174.15 878.94,174.29 879.80,174.44 880.66,174.58 881.52,174.73 882.38,174.87 883.24,175.01 884.10,175.15 884.96,175.29 885.82,175.43 886.68,175.56 887.54,175.70 888.40,175.83 889.26,175.96 890.12,176.09 890.98,176.22 891.84,176.35 892.70,176.47 893.56,176.60 894.42,176.72 895.28,176.84 896.14,176.96 897.00,177.08 897.86,177.20 898.72,177.31 899.58,177.43 900.44,177.54 901.30,177.65 902.16,177.76 903.02,177.87 903.88,177.98 904.74,178.08 905.60,178.19 906.46,178.29 907.32,178.39 908.18,178.49 909.04,178.59 909.90,178.68 910.76,178.78 911.62,178.87 912.48,178.96 913.34,179.05 914.20,179.14 915.06,179.23 915.92,179.31 916.78,179.40 917.64,179.48 918.50,179.56 919.36,179.64 920.22,179.72 921.08,179.79 921.94,179.87 922.80,179.94 923.66,180.01 924.52,180.08 925.38,180.15 926.24,180.22 927.10,180.28 927.96,180.34 928.82,180.41 929.68,180.47 930.54,180.52 931.40,180.58 932.26,180.64 933.12,180.69 933.98,180.74 934.84,180.79 935.70,180.84 936.56,180.89 937.42,180.94 938.28,180.98 939.14,181.02 940.00,181.06" />
  <polyline fill="none" stroke="#b66a00" stroke-width="1.6" stroke-linejoin="round" stroke-linecap="round" points="80.00,249.11 80.86,248.18 81.72,247.23 82.58,246.26 83.44,245.28 84.30,244.27 85.16,243.24 86.02,242.19 86.88,241.12 87.74,240.03 88.60,238.92 89.46,237.79 90.32,236.64 91.18,235.47 92.04,234.28 92.90,233.07 93.76,231.84 94.62,230.59 95.48,229.33 96.34,228.04 97.20,226.74 98.06,225.42 98.92,224.09 99.78,222.74 100.64,221.38 101.50,220.01 102.36,218.63 103.22,217.24 104.08,215.84 104.94,214.43 105.80,213.02 106.66,211.60 107.52,210.19 108.38,208.77 109.24,207.36 110.10,205.95 110.96,204.55 111.82,203.16 112.68,201.77 113.54,200.40 114.40,199.05 115.26,197.71 116.12,196.39 116.98,195.10 117.84,193.82 118.70,192.57 119.56,191.35 120.42,190.15 121.28,188.99 122.14,187.85 123.00,186.75 123.86,185.68 124.72,184.65 125.58,183.65 126.44,182.69 127.30,181.76 128.16,180.87 129.02,180.01 129.88,179.19 130.74,178.41 131.60,177.66 132.46,176.95 133.32,176.27 134.18,175.63 135.04,175.01 135.90,174.43 136.76,173.88 137.62,173.36 138.48,172.86 139.34,172.40 140.20,171.95 141.06,171.54 141.92,171.14 142.78,170.77 143.64,170.41 144.50,170.08 145.36,169.76 146.22,169.46 147.08,169.17 147.94,168.90 148.80,168.64 149.66,168.39 150.52,168.14 151.38,167.91 152.24,167.68 153.10,167.45 153.96,167.23 154.82,167.01 155.68,166.79 156.54,166.56 157.40,166.33 158.26,166.08 159.12,165.83 159.98,165.55 160.84,165.26 161.70,164.93 162.56,164.56 163.42,164.15 164.28,163.67 165.14,163.10 166.00,162.42 166.86,161.58 167.72,160.52 168.58,159.16 169.44,157.34 170.30,154.81 171.16,151.12 172.02,145.39 172.88,136.03 173.74,124.18 174.60,177.41 175.46,252.53 176.32,225.39 177.18,210.87 178.04,203.54 178.90,199.57 179.76,197.47 180.62,196.60 181.48,196.68 182.34,197.61 183.20,199.44 184.06,202.36 184.92,206.74 185.78,213.28 186.64,223.33 187.50,239.46 188.36,264.87 189.22,246.20 190.08,166.22 190.94,118.48 191.80,114.78 192.66,121.44 193.52,128.07 194.38,133.30 195.24,137.31 196.10,140.40 196.96,142.81 197.82,144.73 198.68,146.28 199.54,147.53 200.40,148.57 201.26,149.42 202.12,150.13 202.98,150.72 203.84,151.21 204.70,151.61 205.56,151.94 206.42,152.21 207.28,152.42 208.14,152.57 209.00,152.68 209.86,152.74 210.72,152.76 211.58,152.75 212.44,152.69 213.30,152.59 214.16,152.45 215.02,152.28 215.88,152.06 216.74,151.80 217.60,151.50 218.46,151.15 219.32,150.74 220.18,150.28 221.04,149.76 221.90,149.17 222.76,148.51 223.62,147.75 224.48,146.90 225.34,145.94 226.20,144.85 227.06,143.61 227.92,142.19 228.78,140.57 229.64,138.70 230.50,136.52 231.36,133.98 232.22,130.99 233.08,127.44 233.94,123.19 234.80,118.06 235.66,111.87 236.52,104.46 237.38,96.02 238.24,87.82 239.10,84.53 239.96,97.14 240.82,136.02 241.68,190.17 242.54,238.30 243.40,272.52 244.26,277.91 245.12,262.24 245.98,249.98 246.84,240.77 247.70,233.75 248.56,228.34 249.42,224.12 250.28,220.85 251.14,218.33 252.00,216.46 252.86,215.17 253.72,214.41 254.58,214.20 255.44,214.58 256.30,215.63 257.16,217.52 258.02,220.49 258.88,224.97 259.74,231.68 260.60,241.80 261.46,257.32 262.32,278.36 263.18,255.21 264.04,207.27 264.90,167.65 265.76,148.59 266.62,142.84 267.48,142.23 268.34,143.09 269.20,144.14 270.06,144.97 270.92,145.46 271.78,145.62 272.64,145.44 273.50,144.96 274.36,144.20 275.22,143.18 276.08,141.95 276.94,140.54 277.80,139.06 278.66,137.65 279.52,136.59 280.38,136.37 281.24,137.74 282.10,141.86 282.96,150.16 283.82,163.81 284.68,182.82 285.54,205.43 286.40,228.84 287.26,250.50 288.12,268.77 288.98,280.73 289.84,276.91 290.70,267.63 291.56,259.23 292.42,252.11 293.28,246.08 294.14,240.94 295.00,236.53 295.86,232.69 296.72,229.31 297.58,226.30 298.44,223.56 299.30,221.03 300.16,218.64 301.02,216.30 301.88,213.92 302.74,211.39 303.60,208.52 304.46,205.08 305.32,201.32 306.18,204.73 307.04,246.34 307.90,246.21 308.76,233.90 309.62,227.26 310.48,223.30 311.34,220.64 312.20,218.71 313.06,217.22 313.92,216.02 314.78,215.02 315.64,214.18 316.50,213.45 317.36,212.81 318.22,212.25 319.08,211.75 319.94,211.30 320.80,210.89 321.66,210.52 322.52,210.19 323.38,209.88 324.24,209.61 325.10,209.35 325.96,209.12 326.82,208.90 327.68,208.70 328.54,208.52 329.40,208.36 330.26,208.21 331.12,208.07 331.98,207.95 332.84,207.84 333.70,207.74 334.56,207.65 335.42,207.58 336.28,207.52 337.14,207.47 338.00,207.44 338.86,207.42 339.72,207.41 340.58,207.43 341.44,207.47 342.30,207.54 343.16,207.65 344.02,207.80 344.88,208.02 345.74,208.35 346.60,208.83 347.46,209.57 348.32,210.82 349.18,213.20 350.04,218.85 350.90,235.08 351.76,208.33 352.62,199.71 353.48,200.31 354.34,201.09 355.20,201.64 356.06,202.02 356.92,202.27 357.78,202.44 358.64,202.55 359.50,202.62 360.36,202.66 361.22,202.67 362.08,202.67 362.94,202.65 363.80,202.65 364.66,202.66 365.52,202.71 366.38,202.84 367.24,203.10 368.10,203.58 368.96,204.41 369.82,205.83 370.68,208.20 371.54,212.08 372.40,218.25 373.26,227.55 374.12,240.39 374.98,255.97 375.84,272.02 376.70,282.90 377.56,276.12 378.42,266.64 379.28,258.97 380.14,253.02 381.00,248.44 381.86,244.90 382.72,242.15 383.58,240.00 384.44,238.32 385.30,237.02 386.16,236.01 387.02,235.24 387.88,234.67 388.74,234.28 389.60,234.03 390.46,233.90 391.32,233.89 392.18,233.99 393.04,234.17 393.90,234.44 394.76,234.80 395.62,235.23 396.48,235.73 397.34,236.31 398.20,236.97 399.06,237.70 399.92,238.51 400.78,239.43 401.64,240.46 402.50,241.67 403.36,243.10 404.22,244.80 405.08,246.74 405.94,248.87 406.80,251.10 407.66,253.41 408.52,255.83 409.38,258.38 410.24,261.11 411.10,264.07 411.96,267.30 412.82,270.83 413.68,274.68 414.54,278.87 415.40,283.20 416.26,286.02 417.12,282.77 417.98,276.50 418.84,269.01 419.70,260.41 420.56,250.63 421.42,239.55 422.28,227.04 423.14,213.02 424.00,197.47 424.86,180.54 425.72,162.61 426.58,144.35 427.44,126.75 428.30,110.97 429.16,98.05 430.02,88.67 430.88,82.94 431.74,80.48 432.60,80.48 433.46,81.97 434.32,84.39 435.18,87.82 436.04,91.91 436.90,96.21 437.76,100.47 438.62,104.57 439.48,108.46 440.34,112.12 441.20,115.53 442.06,118.71 442.92,121.66 443.78,124.40 444.64,126.94 445.50,129.30 446.36,131.49 447.22,133.52 448.08,135.41 448.94,137.17 449.80,138.81 450.66,140.33 451.52,141.75 452.38,143.07 453.24,144.31 454.10,145.46 454.96,146.52 455.82,147.52 456.68,148.44 457.54,149.30 458.40,150.09 459.26,150.82 460.12,151.50 460.98,152.11 461.84,152.67 462.70,153.17 463.56,153.61 464.42,154.00 465.28,154.34 466.14,154.61 467.00,154.83 467.86,154.98 468.72,155.07 469.58,155.09 470.44,155.04 471.30,154.91 472.16,154.69 473.02,154.38 473.88,153.97 474.74,153.44 475.60,152.78 476.46,151.98 477.32,151.01 478.18,149.85 479.04,148.47 479.90,146.84 480.76,144.92 481.62,142.66 482.48,140.04 483.34,137.04 484.20,133.68 485.06,130.18 485.92,127.06 486.78,125.67 487.64,128.86 488.50,141.23 489.36,166.52 490.22,201.74 491.08,237.72 491.94,266.52 492.80,275.27 493.66,261.87 494.52,247.92 495.38,235.67 496.24,224.43 497.10,213.30 497.96,201.69 498.82,191.84 499.68,199.61 500.54,239.75 501.40,268.75 502.26,261.50 503.12,248.60 503.98,241.11 504.84,254.05 505.70,271.42 506.56,259.99 507.42,249.47 508.28,241.54 509.14,235.52 510.00,234.00 510.86,244.04 511.72,263.82 512.58,279.74 513.44,283.06 514.30,278.51 515.16,274.95 516.02,272.75 516.88,271.56 517.74,271.14 518.60,271.32 519.46,272.03 520.32,273.22 521.18,274.86 522.04,276.96 522.90,279.57 523.76,282.72 524.62,286.24 525.48,286.32 526.34,280.21 527.20,270.73 528.06,256.20 528.92,235.32 529.78,227.49 530.64,246.66 531.50,264.83 532.36,277.59 533.22,284.93 534.08,279.98 534.94,271.70 535.80,263.06 536.66,254.13 537.52,244.81 538.38,235.05 539.24,224.81 540.10,214.10 540.96,202.98 541.82,191.56 542.68,180.00 543.54,168.52 544.40,157.38 545.26,146.86 546.12,137.23 546.98,128.70 547.84,121.45 548.70,115.54 549.56,110.98 550.42,107.68 551.28,105.51 552.14,104.33 553.00,103.95 553.86,104.23 554.72,105.01 555.58,106.19 556.44,107.64 557.30,109.29 558.16,111.07 559.02,112.93 559.88,114.83 560.74,116.74 561.60,118.64 562.46,120.50 563.32,122.33 564.18,124.10 565.04,125.82 565.90,127.48 566.76,129.09 567.62,130.63 568.48,132.12 569.34,133.55 570.20,134.92 571.06,136.24 571.92,137.51 572.78,138.73 573.64,139.89 574.50,141.01 575.36,142.09 576.22,143.13 577.08,144.12 577.94,145.07 578.80,145.99 579.66,146.87 580.52,147.72 581.38,148.53 582.24,149.31 583.10,150.06 583.96,150.77 584.82,151.45 585.68,152.10 586.54,152.72 587.40,153.31 588.26,153.86 589.12,154.36 589.98,154.83 590.84,155.24 591.70,155.59 592.56,155.87 593.42,156.06 594.28,156.15 595.14,156.25 596.00,157.25 596.86,167.20 597.72,194.95 598.58,180.44 599.44,173.06 600.30,170.16 601.16,168.86 602.02,168.25 602.88,167.99 603.74,167.94 604.60,168.01 605.46,168.15 606.32,168.35 607.18,168.59 608.04,168.86 608.90,169.14 609.76,169.44 610.62,169.76 611.48,170.08 612.34,170.41 613.20,170.74 614.06,171.08 614.92,171.43 615.78,171.78 616.64,172.14 617.50,172.51 618.36,172.80 619.22,173.21 620.08,173.60 620.94,173.99 621.80,174.39 622.66,174.81 623.52,175.26 624.38,175.73 625.24,176.25 626.10,176.84 626.96,177.54 627.82,178.45 628.68,179.75 629.54,181.89 630.40,186.04 631.26,194.13 632.12,196.48 632.98,186.84 633.84,182.04 634.70,180.43 635.56,179.94 636.42,179.87 637.28,179.98 638.14,180.17 639.00,180.37 639.86,180.54 640.72,180.62 641.58,180.48 642.44,189.68 643.30,183.46 644.16,183.59 645.02,177.01 645.88,184.93 646.74,185.24 647.60,185.49 648.46,185.78 649.32,186.10 650.18,186.42 651.04,186.75 651.90,187.06 652.76,187.35 653.62,187.60 654.48,187.77 655.34,187.81 656.20,187.66 657.06,187.25 657.92,187.37 658.78,198.29 659.64,204.88 660.50,201.39 661.36,199.77 662.22,199.20 663.08,199.12 663.94,199.30 664.80,199.64 665.66,200.10 666.52,200.63 667.38,201.22 668.24,201.86 669.10,202.55 669.96,203.28 670.82,204.04 671.68,204.83 672.54,205.66 673.40,206.52 674.26,207.41 675.12,208.34 675.98,209.29 676.84,210.28 677.70,211.31 678.56,212.37 679.42,213.47 680.28,214.61 681.14,215.78 682.00,217.00 682.86,218.26 683.72,219.56 684.58,220.92 685.44,222.32 686.30,223.77 687.16,225.28 688.02,226.84 688.88,228.47 689.74,230.16 690.60,231.91 691.46,233.74 692.32,235.64 693.18,237.61 694.04,239.68 694.90,241.82 695.76,244.07 696.62,246.41 697.48,248.85 698.34,251.40 699.20,254.07 700.06,256.86 700.92,259.78 701.78,262.83 702.64,266.03 703.50,269.36 704.36,272.84 705.22,276.46 706.08,280.16 706.94,283.77 707.80,286.24 708.66,284.72 709.52,280.72 710.38,276.04 711.24,270.99 712.10,265.65 712.96,260.04 713.82,254.18 714.68,248.07 715.54,241.72 716.40,235.15 717.26,228.37 718.12,221.40 718.98,214.25 719.84,206.97 720.70,199.57 721.56,192.09 722.42,184.57 723.28,177.03 724.14,169.51 725.00,162.02 725.86,154.60 726.72,147.25 727.58,139.98 728.44,132.78 729.30,125.65 730.16,118.62 731.02,111.74 731.88,105.18 732.74,99.37 733.60,95.22 734.46,94.55 735.32,100.52 736.18,117.12 737.04,146.30 737.90,184.32 738.76,223.24 739.62,256.46 740.48,276.45 741.34,267.19 742.20,252.42 743.06,240.22 743.92,230.54 744.78,222.87 745.64,216.77 746.50,211.88 747.36,207.96 748.22,204.82 749.08,202.30 749.94,200.31 750.80,198.75 751.66,197.57 752.52,196.70 753.38,196.12 754.24,195.79 755.10,195.70 755.96,195.83 756.82,196.17 757.68,196.74 758.54,197.55 759.40,198.62 760.26,199.99 761.12,201.71 761.98,203.89 762.84,206.66 763.70,210.22 764.56,214.90 765.42,221.22 766.28,229.99 767.14,242.40 768.00,258.19 768.86,255.11 769.72,210.14 770.58,178.56 771.44,196.93 772.30,234.90 773.16,262.05 774.02,253.41 774.88,235.98 775.74,223.07 776.60,214.38 777.46,208.57 778.32,204.63 779.18,201.90 780.04,199.94 780.90,198.51 781.76,197.40 782.62,196.51 783.48,195.75 784.34,195.08 785.20,194.49 786.06,194.06 786.92,194.06 787.78,195.34 788.64,200.21 789.50,214.23 790.36,242.75 791.22,266.34 792.08,253.45 792.94,237.10 793.80,224.74 794.66,215.06 795.52,213.32 796.38,236.20 797.24,253.60 798.10,251.44 798.96,246.80 799.82,243.39 800.68,241.15 801.54,239.79 802.40,239.16 803.26,239.16 804.12,239.81 804.98,241.11 805.84,243.08 806.70,245.64 807.56,248.59 808.42,251.65 809.28,254.49 810.14,256.82 811.00,258.45 811.86,259.26 812.72,259.20 813.58,258.26 814.44,256.46 815.30,253.80 816.16,250.29 817.02,245.89 817.88,240.59 818.74,234.35 819.60,227.13 820.46,218.91 821.32,209.72 822.18,199.65 823.04,188.95 823.90,178.07 824.76,167.73 825.62,158.93 826.48,152.87 827.34,150.72 828.20,153.40 829.06,161.51 829.92,175.32 830.78,194.12 831.64,210.61 832.50,198.58 833.36,155.60 834.22,123.73 835.08,115.45 835.94,119.55 836.80,127.83 837.66,137.17 838.52,146.70 839.38,157.64 840.24,166.11 841.10,176.68 841.96,189.06 842.82,204.74 843.68,224.99 844.54,235.02 845.40,194.77 846.26,162.35 847.12,159.00 847.98,164.97 848.84,172.65 849.70,180.52 850.56,188.51 851.42,196.85 852.28,205.92 853.14,216.20 854.00,228.22 854.86,242.19 855.72,255.15 856.58,250.58 857.44,218.43 858.30,175.93 859.16,142.91 860.02,128.45 860.88,126.89 861.74,130.77 862.60,136.20 863.46,141.71 864.32,146.84 865.18,151.48 866.04,155.67 866.90,159.46 867.76,162.93 868.62,166.14 869.48,169.13 870.34,171.96 871.20,174.66 872.06,177.28 872.92,179.85 873.78,182.40 874.64,184.97 875.50,187.59 876.36,190.30 877.22,193.15 878.08,196.19 878.94,199.51 879.80,203.17 880.66,207.29 881.52,212.02 882.38,217.56 883.24,224.15 884.10,232.10 884.96,241.74 885.82,253.04 886.68,263.65 887.54,262.13 888.40,241.48 889.26,212.35 890.12,188.17 890.98,190.93 891.84,223.33 892.70,239.36 893.56,227.68 894.42,213.84 895.28,204.02 896.14,197.61 897.00,193.51 897.86,190.95 898.72,189.41 899.58,188.55 900.44,188.18 901.30,188.16 902.16,188.40 903.02,188.86 903.88,189.49 904.74,190.29 905.60,191.27 906.46,192.44 907.32,193.84 908.18,195.54 909.04,197.66 909.90,200.37 910.76,203.99 911.62,209.07 912.48,216.52 913.34,227.16 914.20,232.69 915.06,199.46 915.92,166.62 916.78,161.91 917.64,164.77 918.50,168.16 919.36,171.02 920.22,173.31 921.08,175.18 921.94,176.72 922.80,178.03 923.66,179.16 924.52,180.15 925.38,181.03 926.24,181.84 927.10,182.58 927.96,183.27 928.82,183.93 929.68,184.57 930.54,185.18 931.40,185.77 932.26,186.34 933.12,186.88 933.98,187.38 934.84,187.82 935.70,188.20 936.56,188.50 937.42,188.75 938.28,188.96 939.14,189.15 940.00,189.36" />
  <polyline fill="none" stroke="#8a1f1f" stroke-width="1.4" stroke-linejoin="round" stroke-linecap="round" points="80.00,588.45 80.86,588.27 81.72,588.09 82.58,587.92 83.44,587.74 84.30,587.56 85.16,587.39 86.02,587.21 86.88,587.04 87.74,586.86 88.60,586.69 89.46,586.52 90.32,586.35 91.18,586.18 92.04,586.01 92.90,585.85 93.76,585.69 94.62,585.53 95.48,585.38 96.34,585.23 97.20,585.08 98.06,584.93 98.92,584.79 99.78,584.66 100.64,584.52 101.50,584.40 102.36,584.27 103.22,584.15 104.08,584.03 104.94,583.92 105.80,583.81 106.66,583.70 107.52,583.60 108.38,583.50 109.24,583.40 110.10,583.30 110.96,583.20 111.82,583.11 112.68,583.02 113.54,582.92 114.40,582.83 115.26,582.73 116.12,582.63 116.98,582.53 117.84,582.43 118.70,582.33 119.56,582.22 120.42,582.11 121.28,581.99 122.14,581.87 123.00,581.74 123.86,581.61 124.72,581.48 125.58,581.34 126.44,581.20 127.30,581.05 128.16,580.90 129.02,580.74 129.88,580.58 130.74,580.42 131.60,580.26 132.46,580.09 133.32,579.93 134.18,579.76 135.04,579.60 135.90,579.44 136.76,579.28 137.62,579.12 138.48,578.96 139.34,578.81 140.20,578.67 141.06,578.53 141.92,578.40 142.78,578.28 143.64,578.16 144.50,578.05 145.36,577.95 146.22,577.86 147.08,577.78 147.94,577.72 148.80,577.66 149.66,577.62 150.52,577.59 151.38,577.57 152.24,577.57 153.10,577.59 153.96,577.62 154.82,577.67 155.68,577.75 156.54,577.85 157.40,577.97 158.26,578.12 159.12,578.31 159.98,578.54 160.84,578.81 161.70,579.15 162.56,579.55 163.42,580.03 164.28,580.63 165.14,581.35 166.00,582.26 166.86,583.41 167.72,584.88 168.58,586.81 169.44,589.43 170.30,593.10 171.16,598.50 172.02,593.09 172.88,579.29 173.74,561.83 174.60,559.41 175.46,448.26 176.32,488.35 177.18,509.79 178.04,520.60 178.90,526.44 179.76,529.51 180.62,530.77 181.48,530.63 182.34,529.23 183.20,526.50 184.06,522.16 184.92,515.66 185.78,505.96 186.64,491.08 187.50,467.20 188.36,429.60 189.22,457.20 190.08,575.47 190.94,553.94 191.80,548.48 192.66,558.34 193.52,568.17 194.38,575.92 195.24,581.86 196.10,586.44 196.96,590.02 197.82,592.87 198.68,595.17 199.54,597.04 200.40,598.58 201.26,599.85 202.12,599.09 202.98,598.22 203.84,597.49 204.70,596.88 205.56,596.39 206.42,596.00 207.28,595.69 208.14,595.45 209.00,595.29 209.86,595.20 210.72,595.17 211.58,595.20 212.44,595.29 213.30,595.44 214.16,595.64 215.02,595.91 215.88,596.24 216.74,596.63 217.60,597.09 218.46,597.63 219.32,598.24 220.18,598.93 221.04,599.72 221.90,599.39 222.76,598.38 223.62,597.25 224.48,595.97 225.34,594.52 226.20,592.88 227.06,591.02 227.92,588.90 228.78,586.47 229.64,583.66 230.50,580.42 231.36,576.62 232.22,572.16 233.08,566.87 233.94,560.54 234.80,552.92 235.66,543.71 236.52,532.72 237.38,520.18 238.24,508.02 239.10,503.10 239.96,521.70 240.82,579.15 241.68,540.82 242.54,469.69 243.40,419.15 244.26,411.22 245.12,434.46 245.98,452.65 246.84,466.34 247.70,476.78 248.56,484.86 249.42,491.15 250.28,496.07 251.14,499.86 252.00,502.69 252.86,504.68 253.72,505.87 254.58,506.25 255.44,505.77 256.30,504.29 257.16,501.58 258.02,497.26 258.88,490.70 259.74,480.87 260.60,465.97 261.46,443.10 262.32,412.07 263.18,446.38 264.04,517.36 264.90,576.05 265.76,595.67 266.62,587.09 267.48,586.10 268.34,587.29 269.20,588.76 270.06,589.90 270.92,590.55 271.78,590.69 272.64,590.35 273.50,589.55 274.36,588.34 275.22,586.75 276.08,584.83 276.94,582.67 277.80,580.39 278.66,578.22 279.52,576.58 280.38,576.15 281.24,578.10 282.10,584.11 282.96,596.30 283.82,583.59 284.68,555.56 285.54,522.20 286.40,487.67 287.26,455.71 288.12,428.76 288.98,411.15 289.84,416.89 290.70,430.70 291.56,443.19 292.42,453.81 293.28,462.80 294.14,470.47 295.00,477.07 295.86,482.82 296.72,487.89 297.58,492.42 298.44,496.54 299.30,500.35 300.16,503.96 301.02,507.48 301.88,511.06 302.74,514.87 303.60,519.18 304.46,524.33 305.32,529.96 306.18,524.96 307.04,463.48 307.90,463.73 308.76,482.00 309.62,491.87 310.48,497.78 311.34,501.76 312.20,504.67 313.06,506.92 313.92,508.74 314.78,510.26 315.64,511.55 316.50,512.67 317.36,513.65 318.22,514.52 319.08,515.30 319.94,516.00 320.80,516.63 321.66,517.21 322.52,517.73 323.38,518.21 324.24,518.65 325.10,519.05 325.96,519.42 326.82,519.76 327.68,520.07 328.54,520.35 329.40,520.61 330.26,520.84 331.12,521.06 331.98,521.25 332.84,521.42 333.70,521.57 334.56,521.71 335.42,521.82 336.28,521.91 337.14,521.98 338.00,522.03 338.86,522.05 339.72,522.05 340.58,522.01 341.44,521.94 342.30,521.83 343.16,521.66 344.02,521.41 344.88,521.07 345.74,520.57 346.60,519.84 347.46,518.72 348.32,516.84 349.18,513.30 350.04,504.91 350.90,480.88 351.76,520.41 352.62,533.13 353.48,532.21 354.34,531.02 355.20,530.17 356.06,529.57 356.92,529.16 357.78,528.86 358.64,528.65 359.50,528.50 360.36,528.40 361.22,528.34 362.08,528.29 362.94,528.26 363.80,528.21 364.66,528.14 365.52,528.01 366.38,527.76 367.24,527.32 368.10,526.55 368.96,525.26 369.82,523.10 370.68,519.53 371.54,513.73 372.40,504.54 373.26,490.71 374.12,471.65 374.98,448.53 375.84,424.74 376.70,408.57 377.56,418.51 378.42,432.47 379.28,443.74 380.14,452.46 381.00,459.16 381.86,464.32 382.72,468.30 383.58,471.40 384.44,473.80 385.30,475.64 386.16,477.05 387.02,478.10 387.88,478.86 388.74,479.36 389.60,479.64 390.46,479.74 391.32,479.66 392.18,479.44 393.04,479.08 393.90,478.58 394.76,477.97 395.62,477.24 396.48,476.40 397.34,475.45 398.20,474.39 399.06,473.22 399.92,471.92 400.78,470.47 401.64,468.85 402.50,466.97 403.36,464.76 404.22,462.16 405.08,459.18 405.94,455.94 406.80,452.54 407.66,449.03 408.52,445.36 409.38,441.49 410.24,437.35 411.10,432.88 411.96,428.01 412.82,422.70 413.68,416.90 414.54,410.61 415.40,404.10 416.26,399.84 417.12,404.56 417.98,413.72 418.84,424.72 419.70,437.34 420.56,451.71 421.42,468.00 422.28,486.40 423.14,507.04 424.00,529.95 424.86,554.89 425.72,581.32 426.58,591.77 427.44,565.83 428.30,542.58 429.16,523.56 430.02,509.78 430.88,501.41 431.74,497.85 432.60,497.95 433.46,500.23 434.32,503.90 435.18,509.06 436.04,515.20 436.90,521.64 437.76,528.03 438.62,534.18 439.48,540.02 440.34,545.51 441.20,550.64 442.06,555.42 442.92,559.87 443.78,564.00 444.64,567.84 445.50,571.40 446.36,574.72 447.22,577.80 448.08,580.67 448.94,583.35 449.80,585.84 450.66,588.17 451.52,590.34 452.38,592.37 453.24,594.26 454.10,596.03 454.96,597.67 455.82,599.21 456.68,599.36 457.54,598.02 458.40,596.79 459.26,595.64 460.12,594.59 460.98,593.62 461.84,592.74 462.70,591.94 463.56,591.22 464.42,590.59 465.28,590.05 466.14,589.59 467.00,589.22 467.86,588.94 468.72,588.76 469.58,588.68 470.44,588.71 471.30,588.85 472.16,589.13 473.02,589.54 473.88,590.11 474.74,590.85 475.60,591.78 476.46,592.93 477.32,594.33 478.18,596.01 479.04,598.01 479.90,599.61 480.76,596.81 481.62,593.51 482.48,589.66 483.34,585.24 484.20,580.32 485.06,575.16 485.92,570.57 486.78,568.55 487.64,573.28 488.50,591.61 489.36,570.96 490.22,518.85 491.08,465.62 491.94,423.01 492.80,410.05 493.66,429.85 494.52,450.46 495.38,468.56 496.24,485.18 497.10,501.63 497.96,518.78 498.82,533.33 499.68,521.84 500.54,462.45 501.40,419.55 502.26,430.27 503.12,449.34 503.98,460.42 504.84,441.28 505.70,415.58 506.56,432.48 507.42,448.03 508.28,459.76 509.14,468.66 510.00,470.90 510.86,456.06 511.72,426.80 512.58,403.27 513.44,398.35 514.30,405.09 515.16,410.35 516.02,413.61 516.88,415.37 517.74,416.01 518.60,415.73 519.46,414.69 520.32,412.95 521.18,410.53 522.04,407.42 522.90,403.57 523.76,398.92 524.62,393.73 525.48,393.62 526.34,402.67 527.20,416.69 528.06,438.19 528.92,469.09 529.78,480.68 530.64,452.33 531.50,425.47 532.36,406.61 533.22,395.77 534.08,403.10 534.94,415.36 535.80,428.15 536.66,441.37 537.52,455.16 538.38,469.61 539.24,484.77 540.10,500.62 540.96,517.08 541.82,533.99 542.68,551.10 543.54,568.08 544.40,584.57 545.26,599.86 546.12,585.59 546.98,572.97 547.84,562.23 548.70,553.49 549.56,546.73 550.42,541.83 551.28,538.62 552.14,536.85 553.00,536.28 553.86,536.68 554.72,537.83 555.58,539.56 556.44,541.70 557.30,544.13 558.16,546.76 559.02,549.50 559.88,552.30 560.74,555.11 561.60,557.91 562.46,560.66 563.32,563.35 564.18,565.96 565.04,568.50 565.90,570.96 566.76,573.32 567.62,575.60 568.48,577.80 569.34,579.91 570.20,581.94 571.06,583.89 571.92,585.76 572.78,587.55 573.64,589.28 574.50,590.94 575.36,592.53 576.22,594.06 577.08,595.53 577.94,596.94 578.80,598.30 579.66,599.61 580.52,599.14 581.38,597.93 582.24,596.78 583.10,595.67 583.96,594.60 584.82,593.59 585.68,592.61 586.54,591.69 587.40,590.82 588.26,590.00 589.12,589.24 589.98,588.54 590.84,587.92 591.70,587.38 592.56,586.96 593.42,586.67 594.28,586.52 595.14,586.35 596.00,584.86 596.86,570.12 597.72,529.07 598.58,550.51 599.44,561.41 600.30,565.68 601.16,567.58 602.02,568.46 602.88,568.82 603.74,568.88 604.60,568.75 605.46,568.51 606.32,568.19 607.18,567.81 608.04,567.40 608.90,566.95 609.76,566.47 610.62,565.98 611.48,565.48 612.34,564.96 613.20,564.44 614.06,563.90 614.92,563.36 615.78,562.81 616.64,562.25 617.50,561.66 618.36,561.21 619.22,560.56 620.08,559.95 620.94,559.34 621.80,558.71 622.66,558.05 623.52,557.36 624.38,556.62 625.24,555.82 626.10,554.91 626.96,553.83 627.82,552.45 628.68,550.49 629.54,547.28 630.40,541.10 631.26,529.10 632.12,525.58 632.98,539.80 633.84,546.85 634.70,549.19 635.56,549.87 636.42,549.93 637.28,549.72 638.14,549.41 639.00,549.07 639.86,548.77 640.72,548.61 641.58,548.78 642.44,535.12 643.30,544.28 644.16,544.05 645.02,553.73 645.88,541.98 646.74,541.47 647.60,541.05 648.46,540.58 649.32,540.07 650.18,539.54 651.04,539.02 651.90,538.51 652.76,538.04 653.62,537.64 654.48,537.34 655.34,537.23 656.20,537.41 657.06,537.98 657.92,537.76 658.78,521.57 659.64,511.77 660.50,516.90 661.36,519.25 662.22,520.06 663.08,520.14 663.94,519.83 664.80,519.28 665.66,518.58 666.52,517.75 667.38,516.84 668.24,515.85 669.10,514.81 669.96,513.70 670.82,512.54 671.68,511.33 672.54,510.08 673.40,508.77 674.26,507.42 675.12,506.03 675.98,504.58 676.84,503.09 677.70,501.54 678.56,499.95 679.42,498.30 680.28,496.59 681.14,494.83 682.00,493.01 682.86,491.12 683.72,489.17 684.58,487.16 685.44,485.07 686.30,482.90 687.16,480.65 688.02,478.33 688.88,475.91 689.74,473.40 690.60,470.80 691.46,468.09 692.32,465.27 693.18,462.34 694.04,459.28 694.90,456.10 695.76,452.78 696.62,449.32 697.48,445.70 698.34,441.93 699.20,437.98 700.06,433.85 700.92,429.54 701.78,425.03 702.64,420.31 703.50,415.39 704.36,410.25 705.22,404.92 706.08,399.45 706.94,394.13 707.80,390.48 708.66,392.75 709.52,398.67 710.38,405.62 711.24,413.10 712.10,421.02 712.96,429.34 713.82,438.03 714.68,447.08 715.54,456.49 716.40,466.23 717.26,476.28 718.12,486.62 718.98,497.21 719.84,508.01 720.70,518.97 721.56,530.05 722.42,541.20 723.28,552.38 724.14,563.53 725.00,574.61 725.86,585.61 726.72,596.49 727.58,592.74 728.44,582.08 729.30,571.54 730.16,561.14 731.02,550.96 731.88,541.27 732.74,532.67 733.60,526.52 734.46,525.50 735.32,534.25 736.18,558.60 737.04,598.72 737.90,543.66 738.76,488.86 739.62,446.09 740.48,426.84 741.34,445.57 742.20,463.74 743.06,476.93 743.92,487.79 744.78,496.89 745.64,504.44 746.50,510.66 747.36,515.76 748.22,519.92 749.08,523.30 749.94,526.01 750.80,528.15 751.66,529.80 752.52,531.02 753.38,531.87 754.24,532.36 755.10,532.54 755.96,532.41 756.82,531.97 757.68,531.22 758.54,530.13 759.40,528.67 760.26,526.79 761.12,524.38 761.98,521.31 762.84,517.38 763.70,512.29 764.56,505.56 765.42,496.42 766.28,483.65 767.14,465.52 768.00,442.39 768.86,447.19 769.72,513.95 770.58,560.92 771.44,534.03 772.30,478.16 773.16,438.30 774.02,451.38 774.88,477.47 775.74,496.89 776.60,510.05 777.46,518.94 778.32,525.07 779.18,529.40 780.04,532.56 780.90,534.94 781.76,536.81 782.62,538.35 783.48,539.69 784.34,540.89 785.20,541.96 786.06,542.79 786.92,542.97 787.78,541.27 788.64,534.26 789.50,513.73 790.36,471.75 791.22,437.07 792.08,456.35 792.94,480.75 793.80,499.24 794.66,513.80 795.52,516.59 796.38,482.99 797.24,457.50 798.10,460.92 798.96,468.03 799.82,473.34 800.68,476.90 801.54,479.15 802.40,480.35 803.26,480.60 804.12,479.91 804.98,478.25 805.84,475.60 806.70,472.09 807.56,467.99 808.42,463.74 809.28,459.82 810.14,456.64 811.00,454.51 811.86,453.59 812.72,453.96 813.58,455.62 814.44,458.56 815.30,462.78 816.16,468.26 817.02,475.05 817.88,483.17 818.74,492.69 819.60,503.65 820.46,516.08 821.32,529.96 822.18,545.14 823.04,561.25 823.90,577.63 824.76,593.21 825.62,593.49 826.48,584.24 827.34,580.77 828.20,584.45 829.06,596.16 829.92,583.70 830.78,556.19 831.64,532.08 832.50,550.16 833.36,585.99 834.22,538.57 835.08,526.04 835.94,531.82 836.80,543.79 837.66,557.32 838.52,571.13 839.38,587.03 840.24,599.28 841.10,585.37 841.96,567.34 842.82,544.43 843.68,514.75 844.54,500.20 845.40,560.00 846.26,591.77 847.12,586.55 847.98,595.10 848.84,593.81 849.70,582.43 850.56,570.89 851.42,558.83 852.28,545.68 853.14,530.74 854.00,513.22 854.86,492.82 855.72,473.92 856.58,480.93 857.44,528.74 858.30,591.86 859.16,559.05 860.02,537.40 860.88,534.85 861.74,540.33 862.60,548.11 863.46,556.01 864.32,563.35 865.18,569.97 866.04,575.92 866.90,581.28 867.76,586.17 868.62,590.67 869.48,594.86 870.34,598.81 871.20,597.42 872.06,593.78 872.92,590.21 873.78,586.67 874.64,583.10 875.50,579.46 876.36,575.67 877.22,571.68 878.08,567.39 878.94,562.71 879.80,557.51 880.66,551.63 881.52,544.84 882.38,536.87 883.24,527.33 884.10,515.78 884.96,501.73 885.82,485.21 886.68,469.72 887.54,472.16 888.40,502.91 889.26,546.17 890.12,582.14 890.98,578.25 891.84,530.51 892.70,506.99 893.56,524.44 894.42,545.10 895.28,559.81 896.14,569.47 897.00,575.69 897.86,579.66 898.72,582.11 899.58,583.55 900.44,584.26 901.30,584.46 902.16,584.26 903.02,583.75 903.88,582.97 904.74,581.94 905.60,580.65 906.46,579.07 907.32,577.15 908.18,574.78 909.04,571.79 909.90,567.92 910.76,562.71 911.62,555.34 912.48,544.45 913.34,528.85 914.20,520.80 915.06,570.07 915.92,581.23 916.78,574.14 917.64,578.24 918.50,583.14 919.36,587.25 920.22,590.53 921.08,593.18 921.94,595.35 922.80,597.17 923.66,598.73 924.52,599.90 925.38,598.70 926.24,597.60 927.10,596.60 927.96,595.67 928.82,594.78 929.68,593.93 930.54,593.12 931.40,592.32 932.26,591.56 933.12,590.84 933.98,590.18 934.84,589.60 935.70,589.12 936.56,588.74 937.42,588.45 938.28,588.21 939.14,587.98 940.00,587.73" />
  <text x="90" y="90" font-family="Arial" font-size="13" fill="#1f5a9d">same-center five-cell baseline</text>
  <text x="310" y="90" font-family="Arial" font-size="13" fill="#b66a00">nonperiodic five-cell</text>
  <text x="90" y="400" font-family="Arial" font-size="13" fill="#8a1f1f">absolute difference</text>
  <text x="15" y="190" font-family="Arial" font-size="13" transform="rotate(-90 15,190)">|S| magnitude</text>
  <text x="15" y="500" font-family="Arial" font-size="13" transform="rotate(-90 15,500)">abs difference</text>
  <text x="80" y="315" font-family="Arial" font-size="12">6.0 GHz</text>
  <text x="885" y="315" font-family="Arial" font-size="12">24.0 GHz</text>
  <text x="80" y="635" font-family="Arial" font-size="12">6.0 GHz</text>
  <text x="885" y="635" font-family="Arial" font-size="12">24.0 GHz</text>
  <text x="460" y="635" font-family="Arial" font-size="13">Frequency (GHz)</text>
  <text x="948" y="75" font-family="Arial" font-size="11">0.908</text>
  <text x="948" y="385" font-family="Arial" font-size="11">0.614</text>
</svg>
