<svg xmlns="http://www.w3.org/2000/svg" width="1000" height="650" viewBox="0 0 1000 650">
  <rect width="100%" height="100%" fill="white"/>
  <text x="80" y="30" font-family="Arial" font-size="20">pilot_0070 corrected coupling: same-center vs nonperiodic five-cell</text>
  <line x1="80" y1="290" x2="940" y2="290" stroke="#444"/>
  <line x1="80" y1="70" x2="80" y2="290" stroke="#444"/>
  <line x1="80" y1="600" x2="940" y2="600" stroke="#444"/>
  <line x1="80" y1="380" x2="80" y2="600" stroke="#444"/>
  <polyline fill="none" stroke="#1f5a9d" stroke-width="1.6" stroke-linejoin="round" stroke-linecap="round" points="80.00,222.63 80.86,221.13 81.72,219.59 82.58,218.02 83.44,216.42 84.30,214.78 85.16,213.12 86.02,211.42 86.88,209.69 87.74,207.93 88.60,206.14 89.46,204.32 90.32,202.46 91.18,200.58 92.04,198.67 92.90,196.73 93.76,194.76 94.62,192.76 95.48,190.73 96.34,188.68 97.20,186.61 98.06,184.51 98.92,182.39 99.78,180.25 100.64,178.09 101.50,175.92 102.36,173.73 103.22,171.52 104.08,169.31 104.94,167.09 105.80,164.86 106.66,162.62 107.52,160.39 108.38,158.16 109.24,155.93 110.10,153.70 110.96,151.49 111.82,149.28 112.68,147.09 113.54,144.92 114.40,142.77 115.26,140.64 116.12,138.54 116.98,136.46 117.84,134.42 118.70,132.41 119.56,130.43 120.42,128.49 121.28,126.59 122.14,124.74 123.00,122.92 123.86,121.15 124.72,119.43 125.58,117.75 126.44,116.13 127.30,114.55 128.16,113.02 129.02,111.54 129.88,110.12 130.74,108.74 131.60,107.42 132.46,106.15 133.32,104.93 134.18,103.76 135.04,102.63 135.90,101.56 136.76,100.53 137.62,99.56 138.48,98.62 139.34,97.74 140.20,96.89 141.06,96.09 141.92,95.33 142.78,94.61 143.64,93.93 144.50,93.28 145.36,92.67 146.22,92.09 147.08,91.55 147.94,91.04 148.80,90.56 149.66,90.10 150.52,89.67 151.38,89.27 152.24,88.89 153.10,88.54 153.96,88.21 154.82,87.90 155.68,87.61 156.54,87.33 157.40,87.08 158.26,86.84 159.12,86.61 159.98,86.40 160.84,86.21 161.70,86.02 162.56,85.85 163.42,85.69 164.28,85.54 165.14,85.41 166.00,85.27 166.86,85.15 167.72,85.04 168.58,84.93 169.44,84.83 170.30,84.75 171.16,84.68 172.02,84.67 172.88,84.92 173.74,87.31 174.60,95.86 175.46,86.99 176.32,85.54 177.18,85.07 178.04,84.84 178.90,84.70 179.76,84.61 180.62,84.54 181.48,84.49 182.34,84.45 183.20,84.42 184.06,84.40 184.92,84.39 185.78,84.38 186.64,84.37 187.50,84.37 188.36,84.37 189.22,84.38 190.08,84.39 190.94,84.40 191.80,84.42 192.66,84.44 193.52,84.47 194.38,84.49 195.24,84.53 196.10,84.56 196.96,84.59 197.82,84.63 198.68,84.68 199.54,84.72 200.40,84.77 201.26,84.82 202.12,84.88 202.98,84.93 203.84,84.99 204.70,85.05 205.56,85.12 206.42,85.19 207.28,85.26 208.14,85.33 209.00,85.41 209.86,85.49 210.72,85.57 211.58,85.65 212.44,85.74 213.30,85.83 214.16,85.92 215.02,86.02 215.88,86.11 216.74,86.21 217.60,86.32 218.46,86.42 219.32,86.53 220.18,86.64 221.04,86.75 221.90,86.87 222.76,86.99 223.62,87.10 224.48,87.23 225.34,87.35 226.20,87.48 227.06,87.60 227.92,87.73 228.78,87.87 229.64,88.00 230.50,88.14 231.36,88.27 232.22,88.41 233.08,88.55 233.94,88.70 234.80,88.84 235.66,88.99 236.52,89.13 237.38,89.28 238.24,89.43 239.10,89.58 239.96,89.73 240.82,89.88 241.68,90.03 242.54,90.17 243.40,90.29 244.26,90.36 245.12,90.15 245.98,92.47 246.84,91.79 247.70,92.09 248.56,93.10 249.42,97.92 250.28,97.30 251.14,92.98 252.00,92.40 252.86,92.34 253.72,92.42 254.58,92.54 255.44,92.67 256.30,92.82 257.16,92.97 258.02,93.13 258.88,93.29 259.74,93.44 260.60,93.60 261.46,93.76 262.32,93.92 263.18,94.07 264.04,94.23 264.90,94.39 265.76,94.54 266.62,94.70 267.48,94.85 268.34,95.01 269.20,95.16 270.06,95.31 270.92,95.46 271.78,95.61 272.64,95.76 273.50,95.90 274.36,96.05 275.22,96.19 276.08,96.33 276.94,96.47 277.80,96.61 278.66,96.75 279.52,96.89 280.38,97.02 281.24,97.15 282.10,97.28 282.96,97.41 283.82,97.54 284.68,97.66 285.54,97.78 286.40,97.91 287.26,98.02 288.12,98.14 288.98,98.26 289.84,98.37 290.70,98.48 291.56,98.59 292.42,98.69 293.28,98.80 294.14,98.90 295.00,99.00 295.86,99.10 296.72,99.19 297.58,99.28 298.44,99.37 299.30,99.46 300.16,99.55 301.02,99.63 301.88,99.71 302.74,99.79 303.60,99.86 304.46,99.94 305.32,100.01 306.18,100.08 307.04,100.14 307.90,100.20 308.76,100.27 309.62,100.32 310.48,100.38 311.34,100.43 312.20,100.48 313.06,100.53 313.92,100.58 314.78,100.62 315.64,100.66 316.50,100.70 317.36,100.73 318.22,100.76 319.08,100.79 319.94,100.82 320.80,100.85 321.66,100.87 322.52,100.89 323.38,100.91 324.24,100.92 325.10,100.93 325.96,100.94 326.82,100.95 327.68,100.95 328.54,100.95 329.40,100.95 330.26,100.95 331.12,100.95 331.98,100.94 332.84,100.93 333.70,100.91 334.56,100.90 335.42,100.88 336.28,100.86 337.14,100.84 338.00,100.81 338.86,100.79 339.72,100.76 340.58,100.73 341.44,100.69 342.30,100.65 343.16,100.62 344.02,100.57 344.88,100.53 345.74,100.49 346.60,100.44 347.46,100.39 348.32,100.34 349.18,100.28 350.04,100.23 350.90,100.17 351.76,100.11 352.62,100.05 353.48,99.98 354.34,99.91 355.20,99.85 356.06,99.78 356.92,99.70 357.78,99.63 358.64,99.55 359.50,99.48 360.36,99.40 361.22,99.32 362.08,99.23 362.94,99.15 363.80,99.06 364.66,98.97 365.52,98.88 366.38,98.79 367.24,98.70 368.10,98.61 368.96,98.51 369.82,98.41 370.68,98.31 371.54,98.21 372.40,98.11 373.26,98.01 374.12,97.91 374.98,97.80 375.84,97.69 376.70,97.59 377.56,97.48 378.42,97.37 379.28,97.25 380.14,97.14 381.00,97.03 381.86,96.91 382.72,96.80 383.58,96.68 384.44,96.56 385.30,96.45 386.16,96.33 387.02,96.21 387.88,96.09 388.74,95.97 389.60,95.84 390.46,95.72 391.32,95.60 392.18,95.47 393.04,95.35 393.90,95.22 394.76,95.10 395.62,94.97 396.48,94.85 397.34,94.72 398.20,94.59 399.06,94.46 399.92,94.34 400.78,94.21 401.64,94.08 402.50,93.95 403.36,93.82 404.22,93.70 405.08,93.57 405.94,93.44 406.80,93.31 407.66,93.18 408.52,93.05 409.38,92.93 410.24,92.80 411.10,92.67 411.96,92.54 412.82,92.41 413.68,92.29 414.54,92.16 415.40,92.03 416.26,91.91 417.12,91.78 417.98,91.66 418.84,91.53 419.70,91.41 420.56,91.28 421.42,91.16 422.28,91.04 423.14,90.91 424.00,90.79 424.86,90.67 425.72,90.55 426.58,90.43 427.44,90.31 428.30,90.19 429.16,90.08 430.02,89.96 430.88,89.84 431.74,89.73 432.60,89.61 433.46,89.50 434.32,89.39 435.18,89.28 436.04,89.17 436.90,89.06 437.76,88.95 438.62,88.84 439.48,88.74 440.34,88.63 441.20,88.53 442.06,88.42 442.92,88.32 443.78,88.22 444.64,88.12 445.50,88.02 446.36,87.92 447.22,87.83 448.08,87.73 448.94,87.64 449.80,87.54 450.66,87.45 451.52,87.36 452.38,87.27 453.24,87.18 454.10,87.09 454.96,87.01 455.82,86.92 456.68,86.84 457.54,86.76 458.40,86.68 459.26,86.60 460.12,86.52 460.98,86.44 461.84,86.36 462.70,86.29 463.56,86.21 464.42,86.14 465.28,86.07 466.14,86.00 467.00,85.93 467.86,85.86 468.72,85.79 469.58,85.73 470.44,85.66 471.30,85.60 472.16,85.53 473.02,85.47 473.88,85.41 474.74,85.35 475.60,85.30 476.46,85.24 477.32,85.18 478.18,85.13 479.04,85.07 479.90,85.02 480.76,84.97 481.62,84.92 482.48,84.87 483.34,84.82 484.20,84.77 485.06,84.73 485.92,84.68 486.78,84.64 487.64,84.60 488.50,84.55 489.36,84.51 490.22,84.47 491.08,84.43 491.94,84.39 492.80,84.35 493.66,84.32 494.52,84.28 495.38,84.25 496.24,84.21 497.10,84.18 497.96,84.15 498.82,84.12 499.68,84.08 500.54,84.05 501.40,84.03 502.26,84.00 503.12,83.97 503.98,83.94 504.84,83.92 505.70,83.89 506.56,83.87 507.42,83.84 508.28,83.82 509.14,83.80 510.00,83.78 510.86,83.75 511.72,83.73 512.58,83.71 513.44,83.70 514.30,83.68 515.16,83.66 516.02,83.64 516.88,83.63 517.74,83.61 518.60,83.59 519.46,83.58 520.32,83.56 521.18,83.55 522.04,83.54 522.90,83.52 523.76,83.51 524.62,83.50 525.48,83.49 526.34,83.48 527.20,83.47 528.06,83.46 528.92,83.45 529.78,83.44 530.64,83.43 531.50,83.42 532.36,83.42 533.22,83.41 534.08,83.40 534.94,83.40 535.80,83.39 536.66,83.38 537.52,83.38 538.38,83.37 539.24,83.37 540.10,83.36 540.96,83.36 541.82,83.36 542.68,83.35 543.54,83.35 544.40,83.35 545.26,83.34 546.12,83.34 546.98,83.34 547.84,83.34 548.70,83.33 549.56,83.33 550.42,83.33 551.28,83.33 552.14,83.33 553.00,83.33 553.86,83.33 554.72,83.33 555.58,83.33 556.44,83.32 557.30,83.32 558.16,83.32 559.02,83.33 559.88,83.33 560.74,83.33 561.60,83.33 562.46,83.33 563.32,83.33 564.18,83.33 565.04,83.33 565.90,83.33 566.76,83.33 567.62,83.33 568.48,83.34 569.34,83.34 570.20,83.34 571.06,83.34 571.92,83.34 572.78,83.34 573.64,83.35 574.50,83.35 575.36,83.35 576.22,83.35 577.08,83.36 577.94,83.36 578.80,83.36 579.66,83.37 580.52,83.37 581.38,83.37 582.24,83.37 583.10,83.38 583.96,83.38 584.82,83.39 585.68,83.39 586.54,83.39 587.40,83.40 588.26,83.40 589.12,83.41 589.98,83.41 590.84,83.42 591.70,83.42 592.56,83.43 593.42,83.43 594.28,83.44 595.14,83.44 596.00,83.45 596.86,83.46 597.72,83.46 598.58,83.47 599.44,83.48 600.30,83.49 601.16,83.49 602.02,83.50 602.88,83.51 603.74,83.52 604.60,83.53 605.46,83.54 606.32,83.55 607.18,83.56 608.04,83.57 608.90,83.58 609.76,83.60 610.62,83.61 611.48,83.62 612.34,83.64 613.20,83.65 614.06,83.67 614.92,83.68 615.78,83.70 616.64,83.71 617.50,83.73 618.36,83.75 619.22,83.77 620.08,83.79 620.94,83.81 621.80,83.83 622.66,83.85 623.52,83.87 624.38,83.90 625.24,83.92 626.10,83.95 626.96,83.97 627.82,84.00 628.68,84.03 629.54,84.06 630.40,84.09 631.26,84.12 632.12,84.15 632.98,84.18 633.84,84.22 634.70,84.25 635.56,84.29 636.42,84.33 637.28,84.37 638.14,84.41 639.00,84.45 639.86,84.49 640.72,84.53 641.58,84.58 642.44,84.62 643.30,84.67 644.16,84.72 645.02,84.77 645.88,84.82 646.74,84.88 647.60,84.93 648.46,84.99 649.32,85.04 650.18,85.10 651.04,85.16 651.90,85.23 652.76,85.29 653.62,85.36 654.48,85.42 655.34,85.49 656.20,85.56 657.06,85.63 657.92,85.71 658.78,85.78 659.64,85.86 660.50,85.94 661.36,86.02 662.22,86.10 663.08,86.19 663.94,86.27 664.80,86.36 665.66,86.45 666.52,86.54 667.38,86.64 668.24,86.73 669.10,86.83 669.96,86.93 670.82,87.03 671.68,87.14 672.54,87.24 673.40,87.35 674.26,87.46 675.12,87.57 675.98,87.68 676.84,87.80 677.70,87.92 678.56,88.04 679.42,88.16 680.28,88.28 681.14,88.41 682.00,88.54 682.86,88.67 683.72,88.80 684.58,88.93 685.44,89.07 686.30,89.21 687.16,89.35 688.02,89.49 688.88,89.64 689.74,89.78 690.60,89.93 691.46,90.08 692.32,90.24 693.18,90.39 694.04,90.55 694.90,90.71 695.76,90.87 696.62,91.03 697.48,91.20 698.34,91.37 699.20,91.54 700.06,91.71 700.92,91.88 701.78,92.06 702.64,92.23 703.50,92.41 704.36,92.59 705.22,92.78 706.08,92.96 706.94,93.15 707.80,93.34 708.66,93.53 709.52,93.72 710.38,93.92 711.24,94.11 712.10,94.31 712.96,94.51 713.82,94.71 714.68,94.92 715.54,95.12 716.40,95.33 717.26,95.54 718.12,95.75 718.98,95.96 719.84,96.17 720.70,96.38 721.56,96.60 722.42,96.82 723.28,97.04 724.14,97.26 725.00,97.48 725.86,97.70 726.72,97.93 727.58,98.15 728.44,98.38 729.30,98.61 730.16,98.84 731.02,99.07 731.88,99.30 732.74,99.53 733.60,99.77 734.46,100.00 735.32,100.24 736.18,100.48 737.04,100.71 737.90,100.95 738.76,101.19 739.62,101.43 740.48,101.68 741.34,101.92 742.20,102.16 743.06,102.40 743.92,102.65 744.78,102.89 745.64,103.14 746.50,103.39 747.36,103.63 748.22,103.88 749.08,104.13 749.94,104.37 750.80,104.62 751.66,104.87 752.52,105.12 753.38,105.37 754.24,105.62 755.10,105.87 755.96,106.12 756.82,106.37 757.68,106.62 758.54,106.87 759.40,107.12 760.26,107.37 761.12,107.61 761.98,107.86 762.84,108.11 763.70,108.36 764.56,108.61 765.42,108.86 766.28,109.11 767.14,109.36 768.00,109.60 768.86,109.85 769.72,110.10 770.58,110.34 771.44,110.59 772.30,110.84 773.16,111.08 774.02,111.32 774.88,111.57 775.74,111.81 776.60,112.05 777.46,112.29 778.32,112.53 779.18,112.77 780.04,113.01 780.90,113.25 781.76,113.49 782.62,113.72 783.48,113.96 784.34,114.19 785.20,114.43 786.06,114.66 786.92,114.89 787.78,115.12 788.64,115.35 789.50,115.57 790.36,115.80 791.22,116.03 792.08,116.25 792.94,116.47 793.80,116.69 794.66,116.91 795.52,117.13 796.38,117.35 797.24,117.57 798.10,117.78 798.96,117.99 799.82,118.21 800.68,118.42 801.54,118.62 802.40,118.83 803.26,119.04 804.12,119.24 804.98,119.44 805.84,119.64 806.70,119.84 807.56,120.04 808.42,120.24 809.28,120.43 810.14,120.62 811.00,120.82 811.86,121.01 812.72,121.19 813.58,121.38 814.44,121.56 815.30,121.75 816.16,121.93 817.02,122.10 817.88,122.28 818.74,122.46 819.60,122.63 820.46,122.80 821.32,122.97 822.18,123.14 823.04,123.31 823.90,123.47 824.76,123.63 825.62,123.79 826.48,123.95 827.34,124.11 828.20,124.26 829.06,124.42 829.92,124.57 830.78,124.72 831.64,124.87 832.50,125.01 833.36,125.16 834.22,125.30 835.08,125.44 835.94,125.58 836.80,125.71 837.66,125.85 838.52,125.98 839.38,126.11 840.24,126.24 841.10,126.37 841.96,126.49 842.82,126.62 843.68,126.74 844.54,126.86 845.40,126.98 846.26,127.09 847.12,127.21 847.98,127.32 848.84,127.43 849.70,127.54 850.56,127.65 851.42,127.76 852.28,127.87 853.14,127.97 854.00,128.07 854.86,128.17 855.72,128.27 856.58,128.37 857.44,128.46 858.30,128.56 859.16,128.65 860.02,128.74 860.88,128.83 861.74,128.92 862.60,129.01 863.46,129.10 864.32,129.18 865.18,129.27 866.04,129.35 866.90,129.43 867.76,129.51 868.62,129.59 869.48,129.67 870.34,129.75 871.20,129.82 872.06,129.90 872.92,129.97 873.78,130.04 874.64,130.12 875.50,130.19 876.36,130.26 877.22,130.32 878.08,130.39 878.94,130.46 879.80,130.53 880.66,130.59 881.52,130.66 882.38,130.72 883.24,130.78 884.10,130.84 884.96,130.90 885.82,130.96 886.68,131.02 887.54,131.08 888.40,131.13 889.26,131.19 890.12,131.24 890.98,131.29 891.84,131.34 892.70,131.39 893.56,131.44 894.42,131.49 895.28,131.53 896.14,131.57 897.00,131.62 897.86,131.66 898.72,131.69 899.58,131.73 900.44,131.76 901.30,131.79 902.16,131.82 903.02,131.84 903.88,131.86 904.74,131.88 905.60,131.89 906.46,131.91 907.32,131.91 908.18,131.92 909.04,131.92 909.90,131.91 910.76,131.90 911.62,131.89 912.48,131.87 913.34,131.84 914.20,131.81 915.06,131.77 915.92,131.73 916.78,131.68 917.64,131.62 918.50,131.56 919.36,131.49 920.22,131.41 921.08,131.33 921.94,131.23 922.80,131.13 923.66,131.02 924.52,130.90 925.38,130.77 926.24,130.64 927.10,130.49 927.96,130.33 928.82,130.16 929.68,129.99 930.54,129.80 931.40,129.60 932.26,129.39 933.12,129.17 933.98,128.94 934.84,128.69 935.70,128.43 936.56,128.17 937.42,127.89 938.28,127.59 939.14,127.29 940.00,126.97" />
  <polyline fill="none" stroke="#b66a00" stroke-width="1.6" stroke-linejoin="round" stroke-linecap="round" points="80.00,254.33 80.86,254.69 81.72,255.04 82.58,255.38 83.44,255.71 84.30,256.02 85.16,256.32 86.02,256.61 86.88,256.89 87.74,257.15 88.60,257.39 89.46,257.61 90.32,257.81 91.18,257.99 92.04,258.15 92.90,258.29 93.76,258.40 94.62,258.48 95.48,258.53 96.34,258.56 97.20,258.55 98.06,258.51 98.92,258.43 99.78,258.33 100.64,258.18 101.50,258.00 102.36,257.77 103.22,257.51 104.08,257.21 104.94,256.87 105.80,256.48 106.66,256.05 107.52,255.58 108.38,255.07 109.24,254.51 110.10,253.90 110.96,253.25 111.82,252.56 112.68,251.82 113.54,251.04 114.40,250.22 115.26,249.35 116.12,248.43 116.98,247.47 117.84,246.47 118.70,245.42 119.56,244.33 120.42,243.19 121.28,242.01 122.14,240.79 123.00,239.52 123.86,238.21 124.72,236.85 125.58,235.46 126.44,234.01 127.30,232.53 128.16,231.00 129.02,229.42 129.88,227.80 130.74,226.14 131.60,224.43 132.46,222.68 133.32,220.89 134.18,219.05 135.04,217.16 135.90,215.23 136.76,213.25 137.62,211.23 138.48,209.16 139.34,207.05 140.20,204.90 141.06,202.69 141.92,200.45 142.78,198.15 143.64,195.82 144.50,193.44 145.36,191.01 146.22,188.54 147.08,186.03 147.94,183.48 148.80,180.89 149.66,178.26 150.52,175.59 151.38,172.88 152.24,170.14 153.10,167.37 153.96,164.56 154.82,161.73 155.68,158.87 156.54,155.98 157.40,153.08 158.26,150.16 159.12,147.23 159.98,144.29 160.84,141.34 161.70,138.40 162.56,135.45 163.42,132.52 164.28,129.60 165.14,126.70 166.00,123.83 166.86,120.98 167.72,118.18 168.58,115.42 169.44,112.70 170.30,110.04 171.16,107.45 172.02,104.92 172.88,102.46 173.74,100.08 174.60,97.79 175.46,95.58 176.32,93.47 177.18,91.46 178.04,89.55 178.90,87.74 179.76,86.05 180.62,84.46 181.48,82.99 182.34,81.64 183.20,80.48 184.06,80.48 184.92,80.48 185.78,80.48 186.64,80.48 187.50,80.48 188.36,80.48 189.22,80.48 190.08,80.48 190.94,80.48 191.80,80.48 192.66,80.48 193.52,80.48 194.38,80.48 195.24,80.48 196.10,80.48 196.96,80.48 197.82,80.48 198.68,80.48 199.54,80.48 200.40,80.48 201.26,80.48 202.12,80.48 202.98,80.48 203.84,80.70 204.70,81.59 205.56,82.51 206.42,83.46 207.28,84.44 208.14,85.45 209.00,86.48 209.86,87.53 210.72,88.60 211.58,89.69 212.44,90.79 213.30,91.90 214.16,93.02 215.02,94.16 215.88,95.29 216.74,96.43 217.60,97.58 218.46,98.72 219.32,99.87 220.18,101.02 221.04,102.16 221.90,103.30 222.76,104.44 223.62,105.58 224.48,106.71 225.34,107.83 226.20,108.95 227.06,110.06 227.92,111.16 228.78,112.26 229.64,113.35 230.50,114.43 231.36,115.50 232.22,116.56 233.08,117.61 233.94,118.65 234.80,119.69 235.66,120.71 236.52,121.72 237.38,122.73 238.24,123.72 239.10,124.71 239.96,125.68 240.82,126.64 241.68,127.60 242.54,128.54 243.40,129.47 244.26,130.39 245.12,131.31 245.98,132.21 246.84,133.10 247.70,133.99 248.56,134.86 249.42,135.72 250.28,136.58 251.14,137.42 252.00,138.26 252.86,139.08 253.72,139.90 254.58,140.71 255.44,141.50 256.30,142.29 257.16,143.07 258.02,143.84 258.88,144.61 259.74,145.36 260.60,146.11 261.46,146.84 262.32,147.57 263.18,148.29 264.04,149.01 264.90,149.71 265.76,150.41 266.62,151.10 267.48,151.78 268.34,152.45 269.20,153.12 270.06,153.78 270.92,154.43 271.78,155.08 272.64,155.71 273.50,156.35 274.36,156.97 275.22,157.59 276.08,158.20 276.94,158.80 277.80,159.40 278.66,159.99 279.52,160.57 280.38,161.15 281.24,161.72 282.10,162.29 282.96,162.85 283.82,163.40 284.68,163.95 285.54,164.49 286.40,165.03 287.26,165.56 288.12,166.09 288.98,166.61 289.84,167.12 290.70,167.63 291.56,168.13 292.42,168.63 293.28,169.12 294.14,169.61 295.00,170.09 295.86,170.57 296.72,171.04 297.58,171.50 298.44,171.96 299.30,172.42 300.16,172.87 301.02,173.32 301.88,173.76 302.74,174.20 303.60,174.63 304.46,175.05 305.32,175.48 306.18,175.89 307.04,176.31 307.90,176.72 308.76,177.12 309.62,177.52 310.48,177.91 311.34,178.30 312.20,178.69 313.06,179.07 313.92,179.45 314.78,179.82 315.64,180.18 316.50,180.55 317.36,180.91 318.22,181.26 319.08,181.61 319.94,181.95 320.80,182.30 321.66,182.63 322.52,182.96 323.38,183.29 324.24,183.61 325.10,183.93 325.96,184.25 326.82,184.56 327.68,184.86 328.54,185.16 329.40,185.46 330.26,185.75 331.12,186.04 331.98,186.32 332.84,186.60 333.70,186.87 334.56,187.14 335.42,187.41 336.28,187.67 337.14,187.92 338.00,188.18 338.86,188.42 339.72,188.66 340.58,188.90 341.44,189.13 342.30,189.36 343.16,189.59 344.02,189.80 344.88,190.02 345.74,190.23 346.60,190.43 347.46,190.63 348.32,190.82 349.18,191.01 350.04,191.20 350.90,191.37 351.76,191.55 352.62,191.72 353.48,191.88 354.34,192.04 355.20,192.19 356.06,192.34 356.92,192.48 357.78,192.62 358.64,192.75 359.50,192.87 360.36,192.99 361.22,193.10 362.08,193.21 362.94,193.31 363.80,193.41 364.66,193.50 365.52,193.58 366.38,193.66 367.24,193.73 368.10,193.80 368.96,193.86 369.82,193.91 370.68,193.96 371.54,194.00 372.40,194.03 373.26,194.05 374.12,194.07 374.98,194.09 375.84,194.09 376.70,194.09 377.56,194.08 378.42,194.06 379.28,194.04 380.14,194.00 381.00,193.96 381.86,193.92 382.72,193.86 383.58,193.80 384.44,193.72 385.30,193.64 386.16,193.55 387.02,193.46 387.88,193.35 388.74,193.23 389.60,193.11 390.46,192.98 391.32,192.83 392.18,192.68 393.04,192.52 393.90,192.35 394.76,192.16 395.62,191.97 396.48,191.77 397.34,191.55 398.20,191.33 399.06,191.09 399.92,190.84 400.78,190.58 401.64,190.31 402.50,190.03 403.36,189.73 404.22,189.42 405.08,189.10 405.94,188.76 406.80,188.41 407.66,188.05 408.52,187.67 409.38,187.27 410.24,186.86 411.10,186.43 411.96,185.99 412.82,185.53 413.68,185.05 414.54,184.55 415.40,184.03 416.26,183.49 417.12,182.92 417.98,182.34 418.84,181.73 419.70,181.09 420.56,180.43 421.42,179.74 422.28,179.01 423.14,178.25 424.00,177.46 424.86,176.63 425.72,175.75 426.58,174.83 427.44,173.86 428.30,172.83 429.16,171.74 430.02,170.57 430.88,169.33 431.74,168.00 432.60,166.56 433.46,165.01 434.32,163.31 435.18,161.45 436.04,159.40 436.90,157.10 437.76,154.52 438.62,151.59 439.48,148.21 440.34,144.27 441.20,139.60 442.06,134.01 442.92,127.23 443.78,118.96 444.64,109.07 445.50,98.18 446.36,89.42 447.22,91.16 448.08,112.80 448.94,148.28 449.80,180.34 450.66,201.03 451.52,211.81 452.38,216.58 453.24,218.52 454.10,219.59 454.96,220.89 455.82,223.08 456.68,226.64 457.54,231.87 458.40,238.60 459.26,245.26 460.12,247.70 460.98,241.66 461.84,229.10 462.70,215.06 463.56,202.59 464.42,192.56 465.28,184.77 466.14,178.73 467.00,173.97 467.86,170.13 468.72,166.94 469.58,164.22 470.44,161.84 471.30,159.71 472.16,157.77 473.02,155.97 473.88,154.29 474.74,152.69 475.60,151.16 476.46,149.69 477.32,148.27 478.18,146.88 479.04,145.54 479.90,144.22 480.76,142.93 481.62,141.67 482.48,140.42 483.34,139.20 484.20,138.00 485.06,136.82 485.92,135.66 486.78,134.53 487.64,133.41 488.50,132.31 489.36,131.24 490.22,130.20 491.08,129.19 491.94,128.22 492.80,127.34 493.66,126.59 494.52,126.18 495.38,126.67 496.24,130.36 497.10,147.70 497.96,185.69 498.82,161.08 499.68,143.07 500.54,135.62 501.40,131.97 502.26,129.92 503.12,128.72 503.98,128.04 504.84,127.72 505.70,127.71 506.56,127.96 507.42,128.46 508.28,129.21 509.14,130.22 510.00,131.50 510.86,133.08 511.72,134.97 512.58,137.21 513.44,139.83 514.30,142.87 515.16,146.39 516.02,150.44 516.88,155.07 517.74,160.38 518.60,166.45 519.46,173.37 520.32,181.28 521.18,190.32 522.04,200.67 522.90,212.52 523.76,226.11 524.62,241.66 525.48,259.16 526.34,276.22 527.20,269.39 528.06,243.97 528.92,214.34 529.78,183.12 530.64,153.22 531.50,128.21 532.36,111.08 533.22,102.95 534.08,102.80 534.94,108.54 535.80,118.04 536.66,129.64 537.52,142.22 538.38,155.12 539.24,167.93 540.10,180.41 540.96,192.45 541.82,203.98 542.68,214.96 543.54,225.40 544.40,235.29 545.26,244.64 546.12,253.47 546.98,261.80 547.84,269.63 548.70,276.98 549.56,283.78 550.42,287.97 551.28,282.94 552.14,277.29 553.00,271.92 553.86,266.86 554.72,262.10 555.58,257.64 556.44,253.46 557.30,249.55 558.16,245.88 559.02,242.45 559.88,239.24 560.74,236.24 561.60,233.44 562.46,230.83 563.32,228.39 564.18,226.11 565.04,224.00 565.90,222.03 566.76,220.21 567.62,218.51 568.48,216.95 569.34,215.50 570.20,214.17 571.06,212.95 571.92,211.83 572.78,210.81 573.64,209.88 574.50,209.04 575.36,208.30 576.22,207.63 577.08,207.05 577.94,206.54 578.80,206.11 579.66,205.75 580.52,205.46 581.38,205.25 582.24,205.10 583.10,205.01 583.96,205.00 584.82,205.04 585.68,205.16 586.54,205.33 587.40,205.57 588.26,205.87 589.12,206.24 589.98,206.68 590.84,207.18 591.70,207.74 592.56,208.38 593.42,209.09 594.28,209.87 595.14,210.73 596.00,211.66 596.86,212.68 597.72,213.79 598.58,214.99 599.44,216.28 600.30,217.68 601.16,219.18 602.02,220.81 602.88,222.55 603.74,224.43 604.60,226.45 605.46,228.63 606.32,230.97 607.18,233.50 608.04,236.22 608.90,239.16 609.76,242.33 610.62,245.76 611.48,249.46 612.34,253.46 613.20,257.79 614.06,262.48 614.92,267.53 615.78,272.97 616.64,278.75 617.50,284.39 618.36,285.09 619.22,278.71 620.08,270.82 620.94,262.18 621.80,252.91 622.66,243.08 623.52,232.76 624.38,222.06 625.24,211.09 626.10,200.04 626.96,189.08 627.82,178.43 628.68,168.28 629.54,158.82 630.40,150.19 631.26,142.51 632.12,135.81 632.98,130.10 633.84,125.35 634.70,121.48 635.56,118.42 636.42,116.07 637.28,114.33 638.14,113.11 639.00,112.33 639.86,111.93 640.72,111.82 641.58,111.98 642.44,112.34 643.30,112.88 644.16,113.58 645.02,114.42 645.88,115.39 646.74,116.48 647.60,117.71 648.46,119.09 649.32,120.65 650.18,122.42 651.04,124.48 651.90,126.92 652.76,129.87 653.62,133.53 654.48,138.22 655.34,144.37 656.20,152.67 657.06,164.09 657.92,179.89 658.78,201.30 659.64,228.18 660.50,254.64 661.36,256.25 662.22,233.02 663.08,209.86 663.94,191.88 664.80,178.83 665.66,169.55 666.52,162.99 667.38,158.36 668.24,155.10 669.10,152.83 669.96,151.31 670.82,150.35 671.68,149.83 672.54,149.67 673.40,149.80 674.26,150.20 675.12,150.82 675.98,151.65 676.84,152.68 677.70,153.91 678.56,155.32 679.42,156.93 680.28,158.74 681.14,160.75 682.00,162.99 682.86,165.47 683.72,168.19 684.58,171.19 685.44,174.49 686.30,178.11 687.16,182.07 688.02,186.42 688.88,191.18 689.74,196.39 690.60,202.09 691.46,208.31 692.32,215.10 693.18,222.48 694.04,230.49 694.90,239.15 695.76,248.46 696.62,258.38 697.48,268.75 698.34,278.85 699.20,282.05 700.06,272.46 700.92,260.19 701.78,247.30 702.64,234.19 703.50,221.13 704.36,208.32 705.22,195.92 706.08,184.11 706.94,173.00 707.80,162.69 708.66,153.23 709.52,144.65 710.38,136.94 711.24,130.08 712.10,124.03 712.96,118.74 713.82,114.15 714.68,110.19 715.54,106.80 716.40,103.94 717.26,101.54 718.12,99.56 718.98,97.94 719.84,96.65 720.70,95.66 721.56,94.92 722.42,94.42 723.28,94.12 724.14,94.00 725.00,94.05 725.86,94.25 726.72,94.58 727.58,95.03 728.44,95.58 729.30,96.23 730.16,96.96 731.02,97.78 731.88,98.66 732.74,99.61 733.60,100.61 734.46,101.66 735.32,102.76 736.18,103.91 737.04,105.08 737.90,106.30 738.76,107.54 739.62,108.80 740.48,110.09 741.34,111.40 742.20,112.73 743.06,114.07 743.92,115.42 744.78,116.78 745.64,118.15 746.50,119.52 747.36,120.90 748.22,122.28 749.08,123.66 749.94,125.04 750.80,126.42 751.66,127.79 752.52,129.16 753.38,130.52 754.24,131.88 755.10,133.22 755.96,134.56 756.82,135.89 757.68,137.22 758.54,138.53 759.40,139.83 760.26,141.12 761.12,142.41 761.98,143.68 762.84,144.95 763.70,146.21 764.56,147.46 765.42,148.71 766.28,149.95 767.14,151.20 768.00,152.45 768.86,153.71 769.72,154.98 770.58,156.27 771.44,157.60 772.30,158.96 773.16,160.38 774.02,161.88 774.88,163.48 775.74,165.22 776.60,167.14 777.46,169.31 778.32,171.81 779.18,174.78 780.04,178.37 780.90,182.83 781.76,188.49 782.62,195.82 783.48,205.38 784.34,217.78 785.20,233.36 786.06,251.31 786.92,266.96 787.78,265.67 788.64,250.36 789.50,234.54 790.36,221.41 791.22,211.19 792.08,203.41 792.94,197.52 793.80,193.01 794.66,189.53 795.52,186.79 796.38,184.59 797.24,182.80 798.10,181.31 798.96,180.03 799.82,178.92 800.68,177.92 801.54,177.01 802.40,176.15 803.26,175.33 804.12,174.54 804.98,173.75 805.84,172.95 806.70,172.14 807.56,171.30 808.42,170.44 809.28,169.53 810.14,168.58 811.00,167.59 811.86,166.53 812.72,165.42 813.58,164.24 814.44,162.99 815.30,161.67 816.16,160.27 817.02,158.78 817.88,157.21 818.74,155.56 819.60,153.81 820.46,151.97 821.32,150.04 822.18,148.02 823.04,145.92 823.90,143.74 824.76,141.50 825.62,139.20 826.48,136.88 827.34,134.56 828.20,132.28 829.06,130.09 829.92,128.04 830.78,126.21 831.64,124.67 832.50,123.51 833.36,122.83 834.22,122.72 835.08,123.28 835.94,124.56 836.80,126.62 837.66,129.48 838.52,133.11 839.38,137.45 840.24,142.43 841.10,147.92 841.96,153.80 842.82,159.95 843.68,166.22 844.54,172.53 845.40,178.76 846.26,184.86 847.12,190.75 847.98,196.40 848.84,201.77 849.70,206.87 850.56,211.67 851.42,216.17 852.28,220.39 853.14,224.33 854.00,228.00 854.86,231.41 855.72,234.57 856.58,237.50 857.44,240.21 858.30,242.72 859.16,245.02 860.02,247.14 860.88,249.08 861.74,250.86 862.60,252.48 863.46,253.95 864.32,255.28 865.18,256.48 866.04,257.55 866.90,258.51 867.76,259.35 868.62,260.09 869.48,260.74 870.34,261.29 871.20,261.76 872.06,262.15 872.92,262.47 873.78,262.72 874.64,262.91 875.50,263.04 876.36,263.13 877.22,263.17 878.08,263.16 878.94,263.12 879.80,263.05 880.66,262.94 881.52,262.81 882.38,262.66 883.24,262.48 884.10,262.29 884.96,262.08 885.82,261.85 886.68,261.62 887.54,261.37 888.40,261.11 889.26,260.84 890.12,260.57 890.98,260.29 891.84,260.00 892.70,259.71 893.56,259.42 894.42,259.12 895.28,258.82 896.14,258.52 897.00,258.22 897.86,257.91 898.72,257.61 899.58,257.30 900.44,256.99 901.30,256.69 902.16,256.38 903.02,256.07 903.88,255.77 904.74,255.46 905.60,255.16 906.46,254.85 907.32,254.55 908.18,254.25 909.04,253.95 909.90,253.65 910.76,253.35 911.62,253.05 912.48,252.75 913.34,252.45 914.20,252.16 915.06,251.87 915.92,251.57 916.78,251.28 917.64,250.99 918.50,250.70 919.36,250.41 920.22,250.13 921.08,249.84 921.94,249.56 922.80,249.27 923.66,248.99 924.52,248.71 925.38,248.43 926.24,248.15 927.10,247.88 927.96,247.60 928.82,247.33 929.68,247.05 930.54,246.78 931.40,246.51 932.26,246.24 933.12,245.97 933.98,245.70 934.84,245.43 935.70,245.16 936.56,244.90 937.42,244.63 938.28,244.37 939.14,244.10 940.00,243.84" />
  <polyline fill="none" stroke="#8a1f1f" stroke-width="1.4" stroke-linejoin="round" stroke-linecap="round" points="80.00,567.54 80.86,565.64 81.72,563.70 82.58,561.75 83.44,559.77 84.30,557.78 85.16,555.76 86.02,553.73 86.88,551.68 87.74,549.61 88.60,547.53 89.46,545.43 90.32,543.33 91.18,541.22 92.04,539.09 92.90,536.97 93.76,534.84 94.62,532.71 95.48,530.58 96.34,528.46 97.20,526.34 98.06,524.23 98.92,522.14 99.78,520.06 100.64,518.00 101.50,515.96 102.36,513.95 103.22,511.96 104.08,510.00 104.94,508.08 105.80,506.19 106.66,504.34 107.52,502.54 108.38,500.78 109.24,499.06 110.10,497.41 110.96,495.80 111.82,494.25 112.68,492.77 113.54,491.35 114.40,489.99 115.26,488.70 116.12,487.48 116.98,486.34 117.84,485.28 118.70,484.29 119.56,483.38 120.42,482.56 121.28,481.83 122.14,481.18 123.00,480.62 123.86,480.15 124.72,479.77 125.58,479.49 126.44,479.30 127.30,479.20 128.16,479.21 129.02,479.31 129.88,479.50 130.74,479.80 131.60,480.19 132.46,480.68 133.32,481.27 134.18,481.96 135.04,482.74 135.90,483.62 136.76,484.59 137.62,485.66 138.48,486.82 139.34,488.07 140.20,489.42 141.06,490.85 141.92,492.37 142.78,493.98 143.64,495.68 144.50,497.45 145.36,499.31 146.22,501.25 147.08,503.26 147.94,505.35 148.80,507.51 149.66,509.74 150.52,512.03 151.38,514.39 152.24,516.81 153.10,519.29 153.96,521.82 154.82,524.41 155.68,527.04 156.54,529.71 157.40,532.42 158.26,535.16 159.12,537.93 159.98,540.73 160.84,543.55 161.70,546.38 162.56,549.22 163.42,552.06 164.28,554.89 165.14,557.72 166.00,560.53 166.86,563.31 167.72,566.07 168.58,568.79 169.44,571.47 170.30,574.10 171.16,576.69 172.02,579.27 172.88,582.04 173.74,586.93 174.60,598.03 175.46,591.21 176.32,591.88 177.18,593.46 178.04,595.18 178.90,596.89 179.76,598.53 180.62,599.92 181.48,598.47 182.34,597.12 183.20,595.96 184.06,595.98 184.92,596.00 185.78,596.01 186.64,596.01 187.50,596.01 188.36,596.01 189.22,596.00 190.08,595.99 190.94,595.98 191.80,595.96 192.66,595.94 193.52,595.91 194.38,595.89 195.24,595.85 196.10,595.82 196.96,595.78 197.82,595.74 198.68,595.70 199.54,595.65 200.40,595.60 201.26,595.55 202.12,595.50 202.98,595.44 203.84,595.61 204.70,596.45 205.56,597.32 206.42,598.23 207.28,599.16 208.14,599.88 209.00,598.90 209.86,597.91 210.72,596.89 211.58,595.87 212.44,594.83 213.30,593.78 214.16,592.73 215.02,591.67 215.88,590.60 216.74,589.54 217.60,588.47 218.46,587.41 219.32,586.34 220.18,585.28 221.04,584.22 221.90,583.17 222.76,582.13 223.62,581.09 224.48,580.05 225.34,579.03 226.20,578.01 227.06,577.01 227.92,576.01 228.78,575.03 229.64,574.05 230.50,573.08 231.36,572.13 232.22,571.18 233.08,570.25 233.94,569.33 234.80,568.42 235.66,567.52 236.52,566.63 237.38,565.76 238.24,564.89 239.10,564.04 239.96,563.19 240.82,562.36 241.68,561.53 242.54,560.71 243.40,559.88 244.26,559.01 245.12,557.86 245.98,559.31 246.84,557.70 247.70,557.10 248.56,557.24 249.42,561.30 250.28,559.78 251.14,554.50 252.00,553.04 252.86,552.14 253.72,551.39 254.58,550.68 255.44,550.00 256.30,549.35 257.16,548.71 258.02,548.07 258.88,547.45 259.74,546.84 260.60,546.24 261.46,545.65 262.32,545.06 263.18,544.49 264.04,543.92 264.90,543.36 265.76,542.80 266.62,542.25 267.48,541.71 268.34,541.18 269.20,540.65 270.06,540.13 270.92,539.62 271.78,539.11 272.64,538.61 273.50,538.11 274.36,537.62 275.22,537.14 276.08,536.66 276.94,536.18 277.80,535.71 278.66,535.25 279.52,534.79 280.38,534.33 281.24,533.88 282.10,533.44 282.96,533.00 283.82,532.56 284.68,532.13 285.54,531.70 286.40,531.27 287.26,530.85 288.12,530.43 288.98,530.02 289.84,529.61 290.70,529.20 291.56,528.80 292.42,528.40 293.28,528.00 294.14,527.60 295.00,527.21 295.86,526.82 296.72,526.44 297.58,526.06 298.44,525.68 299.30,525.30 300.16,524.92 301.02,524.55 301.88,524.18 302.74,523.82 303.60,523.45 304.46,523.09 305.32,522.73 306.18,522.37 307.04,522.01 307.90,521.66 308.76,521.31 309.62,520.96 310.48,520.61 311.34,520.27 312.20,519.93 313.06,519.59 313.92,519.25 314.78,518.91 315.64,518.57 316.50,518.24 317.36,517.91 318.22,517.58 319.08,517.25 319.94,516.93 320.80,516.61 321.66,516.28 322.52,515.96 323.38,515.65 324.24,515.33 325.10,515.02 325.96,514.71 326.82,514.40 327.68,514.09 328.54,513.78 329.40,513.48 330.26,513.18 331.12,512.88 331.98,512.58 332.84,512.28 333.70,511.99 334.56,511.70 335.42,511.41 336.28,511.12 337.14,510.83 338.00,510.55 338.86,510.27 339.72,509.99 340.58,509.72 341.44,509.44 342.30,509.17 343.16,508.91 344.02,508.64 344.88,508.38 345.74,508.12 346.60,507.86 347.46,507.60 348.32,507.35 349.18,507.10 350.04,506.86 350.90,506.62 351.76,506.38 352.62,506.14 353.48,505.91 354.34,505.68 355.20,505.45 356.06,505.23 356.92,505.01 357.78,504.79 358.64,504.58 359.50,504.38 360.36,504.17 361.22,503.97 362.08,503.78 362.94,503.59 363.80,503.40 364.66,503.22 365.52,503.04 366.38,502.87 367.24,502.70 368.10,502.53 368.96,502.37 369.82,502.22 370.68,502.07 371.54,501.93 372.40,501.79 373.26,501.66 374.12,501.54 374.98,501.41 375.84,501.30 376.70,501.19 377.56,501.09 378.42,501.00 379.28,500.91 380.14,500.82 381.00,500.75 381.86,500.68 382.72,500.62 383.58,500.57 384.44,500.52 385.30,500.48 386.16,500.45 387.02,500.43 387.88,500.41 388.74,500.41 389.60,500.41 390.46,500.42 391.32,500.44 392.18,500.47 393.04,500.51 393.90,500.56 394.76,500.62 395.62,500.69 396.48,500.76 397.34,500.85 398.20,500.95 399.06,501.07 399.92,501.19 400.78,501.32 401.64,501.47 402.50,501.63 403.36,501.80 404.22,501.99 405.08,502.19 405.94,502.40 406.80,502.63 407.66,502.87 408.52,503.13 409.38,503.40 410.24,503.69 411.10,504.00 411.96,504.32 412.82,504.66 413.68,505.02 414.54,505.41 415.40,505.81 416.26,506.23 417.12,506.68 417.98,507.15 418.84,507.65 419.70,508.17 420.56,508.72 421.42,509.31 422.28,509.92 423.14,510.57 424.00,511.26 424.86,511.99 425.72,512.76 426.58,513.58 427.44,514.46 428.30,515.39 429.16,516.39 430.02,517.46 430.88,518.61 431.74,519.86 432.60,521.21 433.46,522.69 434.32,524.31 435.18,526.10 436.04,528.09 436.90,530.33 437.76,532.86 438.62,535.75 439.48,539.11 440.34,543.03 441.20,547.70 442.06,553.32 442.92,560.17 443.78,568.53 444.64,578.55 445.50,589.60 446.36,598.46 447.22,596.58 448.08,574.33 448.94,537.91 449.80,504.99 450.66,483.70 451.52,472.58 452.38,467.60 453.24,465.52 454.10,464.34 454.96,462.92 455.82,460.59 456.68,456.86 457.54,451.42 458.40,444.45 459.26,437.54 460.12,434.96 460.98,441.07 461.84,453.86 462.70,468.15 463.56,480.84 464.42,491.04 465.28,498.94 466.14,505.05 467.00,509.85 467.86,513.71 468.72,516.91 469.58,519.63 470.44,522.00 471.30,524.11 472.16,526.04 473.02,527.82 473.88,529.48 474.74,531.06 475.60,532.56 476.46,534.01 477.32,535.41 478.18,536.77 479.04,538.09 479.90,539.39 480.76,540.65 481.62,541.90 482.48,543.12 483.34,544.32 484.20,545.50 485.06,546.66 485.92,547.80 486.78,548.92 487.64,550.02 488.50,551.10 489.36,552.15 490.22,553.18 491.08,554.17 491.94,555.12 492.80,555.99 493.66,556.72 494.52,557.11 495.38,556.56 496.24,552.75 497.10,534.96 497.96,496.03 498.82,521.20 499.68,539.61 500.54,547.20 501.40,550.91 502.26,552.98 503.12,554.18 503.98,554.85 504.84,555.15 505.70,555.14 506.56,554.86 507.42,554.32 508.28,553.53 509.14,552.47 510.00,551.13 510.86,549.50 511.72,547.54 512.58,545.23 513.44,542.53 514.30,539.39 515.16,535.77 516.02,531.61 516.88,526.84 517.74,521.39 518.60,515.17 519.46,508.06 520.32,499.95 521.18,490.68 522.04,480.07 522.90,467.92 523.76,453.99 524.62,438.06 525.48,420.13 526.34,402.66 527.20,409.64 528.06,435.65 528.92,465.98 529.78,497.94 530.64,528.54 531.50,554.15 532.36,571.67 533.22,580.00 534.08,580.14 534.94,574.25 535.80,564.52 536.66,552.64 537.52,539.75 538.38,526.54 539.24,513.42 540.10,500.63 540.96,488.30 541.82,476.50 542.68,465.25 543.54,454.56 544.40,444.43 545.26,434.85 546.12,425.80 546.98,417.27 547.84,409.25 548.70,401.72 549.56,394.76 550.42,390.48 551.28,395.62 552.14,401.40 553.00,406.91 553.86,412.09 554.72,416.95 555.58,421.52 556.44,425.80 557.30,429.81 558.16,433.56 559.02,437.07 559.88,440.36 560.74,443.43 561.60,446.30 562.46,448.98 563.32,451.48 564.18,453.80 565.04,455.97 565.90,457.99 566.76,459.86 567.62,461.59 568.48,463.20 569.34,464.68 570.20,466.05 571.06,467.30 571.92,468.45 572.78,469.49 573.64,470.45 574.50,471.30 575.36,472.07 576.22,472.75 577.08,473.36 577.94,473.88 578.80,474.32 579.66,474.69 580.52,474.99 581.38,475.21 582.24,475.37 583.10,475.46 583.96,475.48 584.82,475.43 585.68,475.32 586.54,475.15 587.40,474.91 588.26,474.60 589.12,474.23 589.98,473.79 590.84,473.28 591.70,472.71 592.56,472.06 593.42,471.34 594.28,470.55 595.14,469.68 596.00,468.72 596.86,467.69 597.72,466.56 598.58,465.34 599.44,464.02 600.30,462.60 601.16,461.07 602.02,459.42 602.88,457.64 603.74,455.73 604.60,453.66 605.46,451.45 606.32,449.06 607.18,446.48 608.04,443.70 608.90,440.71 609.76,437.47 610.62,433.98 611.48,430.20 612.34,426.12 613.20,421.70 614.06,416.92 614.92,411.76 615.78,406.20 616.64,400.31 617.50,394.54 618.36,393.85 619.22,400.41 620.08,408.50 620.94,417.37 621.80,426.88 622.66,436.97 623.52,447.55 624.38,458.54 625.24,469.79 626.10,481.14 626.96,492.38 627.82,503.32 628.68,513.74 629.54,523.45 630.40,532.32 631.26,540.22 632.12,547.11 632.98,552.99 633.84,557.89 634.70,561.88 635.56,565.05 636.42,567.50 637.28,569.32 638.14,570.61 639.00,571.45 639.86,571.91 640.72,572.06 641.58,571.95 642.44,571.62 643.30,571.11 644.16,570.45 645.02,569.64 645.88,568.70 646.74,567.64 647.60,566.44 648.46,565.08 649.32,563.55 650.18,561.79 651.04,559.74 651.90,557.31 652.76,554.36 653.62,550.67 654.48,545.94 655.34,539.71 656.20,531.29 657.06,519.67 657.92,503.57 658.78,481.72 659.64,454.28 660.50,427.27 661.36,425.70 662.22,449.57 663.08,473.37 663.94,491.87 664.80,505.32 665.66,514.91 666.52,521.72 667.38,526.56 668.24,530.00 669.10,532.42 669.96,534.08 670.82,535.17 671.68,535.81 672.54,536.08 673.40,536.05 674.26,535.76 675.12,535.24 675.98,534.50 676.84,533.57 677.70,532.44 678.56,531.11 679.42,529.59 680.28,527.86 681.14,525.93 682.00,523.77 682.86,521.37 683.72,518.71 684.58,515.78 685.44,512.54 686.30,508.98 687.16,505.06 688.02,500.76 688.88,496.03 689.74,490.84 690.60,485.16 691.46,478.95 692.32,472.16 693.18,464.75 694.04,456.71 694.90,448.01 695.76,438.65 696.62,428.66 697.48,418.20 698.34,408.04 699.20,404.93 700.06,414.92 700.92,427.67 701.78,441.05 702.64,454.65 703.50,468.21 704.36,481.51 705.22,494.39 706.08,506.67 706.94,518.24 707.80,528.99 708.66,538.87 709.52,547.86 710.38,555.95 711.24,563.17 712.10,569.57 712.96,575.19 713.82,580.10 714.68,584.36 715.54,588.04 716.40,591.18 717.26,593.85 718.12,596.10 718.98,597.97 719.84,599.50 720.70,599.26 721.56,598.28 722.42,597.54 723.28,597.01 724.14,596.67 725.00,596.49 725.86,596.47 726.72,596.57 727.58,596.80 728.44,597.13 729.30,597.56 730.16,598.08 731.02,598.68 731.88,599.34 732.74,599.93 733.60,599.14 734.46,598.30 735.32,597.42 736.18,596.49 737.04,595.53 737.90,594.53 738.76,593.51 739.62,592.45 740.48,591.38 741.34,590.29 742.20,589.18 743.06,588.06 743.92,586.93 744.78,585.78 745.64,584.63 746.50,583.48 747.36,582.32 748.22,581.16 749.08,580.00 749.94,578.84 750.80,577.69 751.66,576.53 752.52,575.39 753.38,574.25 754.24,573.12 755.10,571.99 755.96,570.87 756.82,569.77 757.68,568.67 758.54,567.58 759.40,566.50 760.26,565.43 761.12,564.38 761.98,563.33 762.84,562.28 763.70,561.25 764.56,560.22 765.42,559.20 766.28,558.18 767.14,557.16 768.00,556.13 768.86,555.09 769.72,554.05 770.58,552.97 771.44,551.87 772.30,550.72 773.16,549.52 774.02,548.23 774.88,546.85 775.74,545.31 776.60,543.59 777.46,541.62 778.32,539.30 779.18,536.52 780.04,533.09 780.90,528.76 781.76,523.20 782.62,515.94 783.48,506.39 784.34,493.93 785.20,478.23 786.06,460.08 786.92,444.30 787.78,445.85 788.64,461.76 789.50,478.20 790.36,491.87 791.22,502.57 792.08,510.76 792.94,517.02 793.80,521.86 794.66,525.65 795.52,528.68 796.38,531.15 797.24,533.21 798.10,534.96 798.96,536.48 799.82,537.84 800.68,539.08 801.54,540.22 802.40,541.31 803.26,542.36 804.12,543.38 804.98,544.40 805.84,545.42 806.70,546.46 807.56,547.51 808.42,548.60 809.28,549.73 810.14,550.89 811.00,552.11 811.86,553.38 812.72,554.72 813.58,556.11 814.44,557.58 815.30,559.12 816.16,560.74 817.02,562.45 817.88,564.23 818.74,566.11 819.60,568.08 820.46,570.14 821.32,572.29 822.18,574.52 823.04,576.85 823.90,579.25 824.76,581.71 825.62,584.22 826.48,586.76 827.34,589.30 828.20,591.79 829.06,594.19 829.92,596.44 830.78,598.47 831.64,599.80 832.50,598.47 833.36,597.62 834.22,597.37 835.08,597.79 835.94,598.96 836.80,599.07 837.66,596.28 838.52,592.70 839.38,588.39 840.24,583.42 841.10,577.93 841.96,572.04 842.82,565.88 843.68,559.57 844.54,553.24 845.40,546.98 846.26,540.86 847.12,534.94 847.98,529.28 848.84,523.89 849.70,518.78 850.56,513.98 851.42,509.48 852.28,505.27 853.14,501.34 854.00,497.69 854.86,494.30 855.72,491.16 856.58,488.26 857.44,485.58 858.30,483.12 859.16,480.85 860.02,478.78 860.88,476.88 861.74,475.15 862.60,473.58 863.46,472.17 864.32,470.89 865.18,469.75 866.04,468.74 866.90,467.84 867.76,467.06 868.62,466.38 869.48,465.80 870.34,465.31 871.20,464.91 872.06,464.59 872.92,464.34 873.78,464.16 874.64,464.03 875.50,463.97 876.36,463.95 877.22,463.99 878.08,464.06 878.94,464.17 879.80,464.31 880.66,464.48 881.52,464.68 882.38,464.91 883.24,465.15 884.10,465.41 884.96,465.69 885.82,465.98 886.68,466.28 887.54,466.60 888.40,466.92 889.26,467.25 890.12,467.58 890.98,467.92 891.84,468.27 892.70,468.61 893.56,468.96 894.42,469.32 895.28,469.67 896.14,470.02 897.00,470.37 897.86,470.73 898.72,471.08 899.58,471.43 900.44,471.77 901.30,472.12 902.16,472.46 903.02,472.80 903.88,473.13 904.74,473.47 905.60,473.79 906.46,474.12 907.32,474.43 908.18,474.75 909.04,475.05 909.90,475.36 910.76,475.65 911.62,475.94 912.48,476.23 913.34,476.51 914.20,476.78 915.06,477.04 915.92,477.29 916.78,477.54 917.64,477.78 918.50,478.01 919.36,478.24 920.22,478.45 921.08,478.66 921.94,478.85 922.80,479.04 923.66,479.21 924.52,479.38 925.38,479.53 926.24,479.68 927.10,479.81 927.96,479.93 928.82,480.04 929.68,480.14 930.54,480.23 931.40,480.30 932.26,480.36 933.12,480.41 933.98,480.45 934.84,480.47 935.70,480.48 936.56,480.48 937.42,480.47 938.28,480.44 939.14,480.39 940.00,480.34" />
  <text x="90" y="90" font-family="Arial" font-size="13" fill="#1f5a9d">same-center five-cell baseline</text>
  <text x="310" y="90" font-family="Arial" font-size="13" fill="#b66a00">nonperiodic five-cell</text>
  <text x="90" y="400" font-family="Arial" font-size="13" fill="#8a1f1f">absolute difference</text>
  <text x="15" y="190" font-family="Arial" font-size="13" transform="rotate(-90 15,190)">|S| magnitude</text>
  <text x="15" y="500" font-family="Arial" font-size="13" transform="rotate(-90 15,500)">abs difference</text>
  <text x="80" y="315" font-family="Arial" font-size="12">6.0 GHz</text>
  <text x="885" y="315" font-family="Arial" font-size="12">24.0 GHz</text>
  <text x="80" y="635" font-family="Arial" font-size="12">6.0 GHz</text>
  <text x="885" y="635" font-family="Arial" font-size="12">24.0 GHz</text>
  <text x="460" y="635" font-family="Arial" font-size="13">Frequency (GHz)</text>
  <text x="948" y="75" font-family="Arial" font-size="11">1.05</text>
  <text x="948" y="385" font-family="Arial" font-size="11">1.03</text>
</svg>
