<svg xmlns="http://www.w3.org/2000/svg" width="1000" height="650" viewBox="0 0 1000 650">
  <rect width="100%" height="100%" fill="white"/>
  <text x="80" y="30" font-family="Arial" font-size="20">pilot_0070 SZmax(2),Zmin(1): periodic vs five-cell nonperiodic</text>
  <line x1="80" y1="290" x2="940" y2="290" stroke="#444"/>
  <line x1="80" y1="70" x2="80" y2="290" stroke="#444"/>
  <line x1="80" y1="600" x2="940" y2="600" stroke="#444"/>
  <line x1="80" y1="380" x2="80" y2="600" stroke="#444"/>
  <polyline fill="none" stroke="#1f5a9d" stroke-width="1.6" stroke-linejoin="round" stroke-linecap="round" points="80.00,289.91 80.86,289.90 81.72,289.90 82.58,289.90 83.44,289.90 84.30,289.90 85.16,289.89 86.02,289.89 86.88,289.89 87.74,289.89 88.60,289.88 89.46,289.88 90.32,289.88 91.18,289.88 92.04,289.88 92.90,289.87 93.76,289.87 94.62,289.87 95.48,289.87 96.34,289.86 97.20,289.86 98.06,289.86 98.92,289.85 99.78,289.85 100.64,289.85 101.50,289.85 102.36,289.84 103.22,289.84 104.08,289.84 104.94,289.84 105.80,289.83 106.66,289.83 107.52,289.83 108.38,289.82 109.24,289.82 110.10,289.82 110.96,289.82 111.82,289.81 112.68,289.81 113.54,289.81 114.40,289.81 115.26,289.80 116.12,289.80 116.98,289.80 117.84,289.79 118.70,289.79 119.56,289.79 120.42,289.79 121.28,289.79 122.14,289.78 123.00,289.78 123.86,289.78 124.72,289.78 125.58,289.77 126.44,289.77 127.30,289.77 128.16,289.77 129.02,289.77 129.88,289.76 130.74,289.76 131.60,289.76 132.46,289.76 133.32,289.76 134.18,289.76 135.04,289.76 135.90,289.75 136.76,289.75 137.62,289.75 138.48,289.75 139.34,289.75 140.20,289.75 141.06,289.75 141.92,289.75 142.78,289.75 143.64,289.74 144.50,289.74 145.36,289.74 146.22,289.74 147.08,289.74 147.94,289.74 148.80,289.74 149.66,289.74 150.52,289.74 151.38,289.74 152.24,289.74 153.10,289.74 153.96,289.74 154.82,289.74 155.68,289.74 156.54,289.74 157.40,289.74 158.26,289.74 159.12,289.74 159.98,289.74 160.84,289.73 161.70,289.73 162.56,289.73 163.42,289.73 164.28,289.73 165.14,289.73 166.00,289.73 166.86,289.73 167.72,289.73 168.58,289.73 169.44,289.73 170.30,289.73 171.16,289.73 172.02,289.73 172.88,289.73 173.74,289.73 174.60,289.73 175.46,289.73 176.32,289.73 177.18,289.73 178.04,289.73 178.90,289.73 179.76,289.73 180.62,289.73 181.48,289.73 182.34,289.73 183.20,289.73 184.06,289.73 184.92,289.73 185.78,289.73 186.64,289.73 187.50,289.73 188.36,289.73 189.22,289.73 190.08,289.73 190.94,289.73 191.80,289.73 192.66,289.73 193.52,289.73 194.38,289.73 195.24,289.72 196.10,289.72 196.96,289.72 197.82,289.72 198.68,289.72 199.54,289.72 200.40,289.72 201.26,289.72 202.12,289.72 202.98,289.72 203.84,289.72 204.70,289.72 205.56,289.72 206.42,289.72 207.28,289.72 208.14,289.72 209.00,289.72 209.86,289.72 210.72,289.72 211.58,289.72 212.44,289.72 213.30,289.72 214.16,289.72 215.02,289.72 215.88,289.72 216.74,289.72 217.60,289.72 218.46,289.72 219.32,289.72 220.18,289.72 221.04,289.72 221.90,289.72 222.76,289.72 223.62,289.71 224.48,289.71 225.34,289.71 226.20,289.71 227.06,289.71 227.92,289.71 228.78,289.71 229.64,289.71 230.50,289.71 231.36,289.71 232.22,289.71 233.08,289.71 233.94,289.71 234.80,289.71 235.66,289.71 236.52,289.71 237.38,289.71 238.24,289.71 239.10,289.71 239.96,289.71 240.82,289.71 241.68,289.71 242.54,289.71 243.40,289.71 244.26,289.71 245.12,289.71 245.98,289.71 246.84,289.71 247.70,289.71 248.56,289.71 249.42,289.71 250.28,289.71 251.14,289.71 252.00,289.71 252.86,289.71 253.72,289.71 254.58,289.71 255.44,289.71 256.30,289.71 257.16,289.70 258.02,289.70 258.88,289.70 259.74,289.70 260.60,289.70 261.46,289.70 262.32,289.70 263.18,289.70 264.04,289.70 264.90,289.70 265.76,289.70 266.62,289.70 267.48,289.70 268.34,289.70 269.20,289.70 270.06,289.70 270.92,289.70 271.78,289.70 272.64,289.70 273.50,289.70 274.36,289.70 275.22,289.70 276.08,289.70 276.94,289.70 277.80,289.70 278.66,289.70 279.52,289.70 280.38,289.70 281.24,289.70 282.10,289.70 282.96,289.70 283.82,289.70 284.68,289.70 285.54,289.70 286.40,289.70 287.26,289.70 288.12,289.70 288.98,289.70 289.84,289.70 290.70,289.70 291.56,289.70 292.42,289.70 293.28,289.70 294.14,289.70 295.00,289.70 295.86,289.70 296.72,289.70 297.58,289.70 298.44,289.70 299.30,289.70 300.16,289.70 301.02,289.70 301.88,289.70 302.74,289.70 303.60,289.70 304.46,289.70 305.32,289.70 306.18,289.70 307.04,289.70 307.90,289.70 308.76,289.70 309.62,289.70 310.48,289.70 311.34,289.70 312.20,289.70 313.06,289.70 313.92,289.70 314.78,289.70 315.64,289.70 316.50,289.69 317.36,289.69 318.22,289.69 319.08,289.69 319.94,289.69 320.80,289.69 321.66,289.69 322.52,289.69 323.38,289.69 324.24,289.69 325.10,289.69 325.96,289.69 326.82,289.69 327.68,289.69 328.54,289.69 329.40,289.69 330.26,289.69 331.12,289.69 331.98,289.69 332.84,289.69 333.70,289.69 334.56,289.69 335.42,289.69 336.28,289.69 337.14,289.69 338.00,289.69 338.86,289.69 339.72,289.69 340.58,289.69 341.44,289.69 342.30,289.69 343.16,289.69 344.02,289.69 344.88,289.69 345.74,289.69 346.60,289.69 347.46,289.69 348.32,289.69 349.18,289.69 350.04,289.69 350.90,289.69 351.76,289.69 352.62,289.69 353.48,289.69 354.34,289.69 355.20,289.69 356.06,289.69 356.92,289.68 357.78,289.68 358.64,289.68 359.50,289.68 360.36,289.68 361.22,289.68 362.08,289.68 362.94,289.68 363.80,289.68 364.66,289.68 365.52,289.68 366.38,289.68 367.24,289.68 368.10,289.68 368.96,289.68 369.82,289.68 370.68,289.68 371.54,289.68 372.40,289.68 373.26,289.68 374.12,289.68 374.98,289.68 375.84,289.68 376.70,289.68 377.56,289.68 378.42,289.68 379.28,289.68 380.14,289.68 381.00,289.68 381.86,289.68 382.72,289.68 383.58,289.68 384.44,289.67 385.30,289.67 386.16,289.67 387.02,289.67 387.88,289.67 388.74,289.67 389.60,289.67 390.46,289.67 391.32,289.67 392.18,289.67 393.04,289.67 393.90,289.67 394.76,289.67 395.62,289.67 396.48,289.67 397.34,289.67 398.20,289.67 399.06,289.67 399.92,289.67 400.78,289.67 401.64,289.67 402.50,289.67 403.36,289.67 404.22,289.67 405.08,289.67 405.94,289.67 406.80,289.67 407.66,289.67 408.52,289.66 409.38,289.66 410.24,289.66 411.10,289.66 411.96,289.66 412.82,289.66 413.68,289.66 414.54,289.66 415.40,289.66 416.26,289.66 417.12,289.66 417.98,289.66 418.84,289.66 419.70,289.66 420.56,289.66 421.42,289.66 422.28,289.66 423.14,289.66 424.00,289.66 424.86,289.66 425.72,289.66 426.58,289.66 427.44,289.66 428.30,289.66 429.16,289.66 430.02,289.66 430.88,289.65 431.74,289.65 432.60,289.65 433.46,289.65 434.32,289.65 435.18,289.65 436.04,289.65 436.90,289.65 437.76,289.65 438.62,289.65 439.48,289.65 440.34,289.65 441.20,289.65 442.06,289.65 442.92,289.65 443.78,289.65 444.64,289.65 445.50,289.65 446.36,289.65 447.22,289.65 448.08,289.65 448.94,289.65 449.80,289.65 450.66,289.65 451.52,289.65 452.38,289.65 453.24,289.65 454.10,289.65 454.96,289.64 455.82,289.64 456.68,289.64 457.54,289.64 458.40,289.64 459.26,289.64 460.12,289.64 460.98,289.64 461.84,289.64 462.70,289.64 463.56,289.64 464.42,289.64 465.28,289.64 466.14,289.64 467.00,289.64 467.86,289.64 468.72,289.64 469.58,289.64 470.44,289.64 471.30,289.64 472.16,289.64 473.02,289.64 473.88,289.64 474.74,289.64 475.60,289.64 476.46,289.64 477.32,289.64 478.18,289.64 479.04,289.64 479.90,289.64 480.76,289.64 481.62,289.64 482.48,289.63 483.34,289.63 484.20,289.63 485.06,289.63 485.92,289.63 486.78,289.63 487.64,289.63 488.50,289.63 489.36,289.63 490.22,289.63 491.08,289.63 491.94,289.63 492.80,289.63 493.66,289.63 494.52,289.63 495.38,289.63 496.24,289.63 497.10,289.63 497.96,289.63 498.82,289.63 499.68,289.63 500.54,289.63 501.40,289.63 502.26,289.63 503.12,289.63 503.98,289.63 504.84,289.63 505.70,289.63 506.56,289.63 507.42,289.63 508.28,289.63 509.14,289.63 510.00,289.63 510.86,289.63 511.72,289.63 512.58,289.63 513.44,289.63 514.30,289.63 515.16,289.63 516.02,289.63 516.88,289.63 517.74,289.62 518.60,289.62 519.46,289.62 520.32,289.62 521.18,289.62 522.04,289.62 522.90,289.62 523.76,289.62 524.62,289.62 525.48,289.62 526.34,289.62 527.20,289.62 528.06,289.62 528.92,289.62 529.78,289.62 530.64,289.62 531.50,289.62 532.36,289.62 533.22,289.62 534.08,289.62 534.94,289.62 535.80,289.62 536.66,289.62 537.52,289.62 538.38,289.62 539.24,289.62 540.10,289.62 540.96,289.62 541.82,289.62 542.68,289.62 543.54,289.62 544.40,289.62 545.26,289.62 546.12,289.62 546.98,289.62 547.84,289.62 548.70,289.62 549.56,289.62 550.42,289.62 551.28,289.62 552.14,289.62 553.00,289.62 553.86,289.62 554.72,289.62 555.58,289.62 556.44,289.62 557.30,289.62 558.16,289.62 559.02,289.62 559.88,289.62 560.74,289.62 561.60,289.61 562.46,289.61 563.32,289.61 564.18,289.61 565.04,289.61 565.90,289.61 566.76,289.61 567.62,289.61 568.48,289.61 569.34,289.61 570.20,289.61 571.06,289.61 571.92,289.61 572.78,289.61 573.64,289.61 574.50,289.61 575.36,289.61 576.22,289.61 577.08,289.61 577.94,289.61 578.80,289.61 579.66,289.61 580.52,289.61 581.38,289.61 582.24,289.61 583.10,289.61 583.96,289.61 584.82,289.61 585.68,289.61 586.54,289.61 587.40,289.61 588.26,289.61 589.12,289.61 589.98,289.61 590.84,289.61 591.70,289.61 592.56,289.61 593.42,289.61 594.28,289.61 595.14,289.61 596.00,289.61 596.86,289.61 597.72,289.61 598.58,289.61 599.44,289.61 600.30,289.61 601.16,289.61 602.02,289.61 602.88,289.60 603.74,289.60 604.60,289.60 605.46,289.60 606.32,289.60 607.18,289.60 608.04,289.60 608.90,289.60 609.76,289.60 610.62,289.60 611.48,289.60 612.34,289.60 613.20,289.60 614.06,289.60 614.92,289.60 615.78,289.60 616.64,289.60 617.50,289.60 618.36,289.60 619.22,289.60 620.08,289.60 620.94,289.60 621.80,289.60 622.66,289.60 623.52,289.60 624.38,289.60 625.24,289.60 626.10,289.60 626.96,289.60 627.82,289.60 628.68,289.60 629.54,289.60 630.40,289.60 631.26,289.60 632.12,289.60 632.98,289.60 633.84,289.60 634.70,289.60 635.56,289.59 636.42,289.59 637.28,289.59 638.14,289.59 639.00,289.59 639.86,289.59 640.72,289.59 641.58,289.59 642.44,289.59 643.30,289.59 644.16,289.59 645.02,289.59 645.88,289.59 646.74,289.59 647.60,289.59 648.46,289.59 649.32,289.59 650.18,289.59 651.04,289.59 651.90,289.59 652.76,289.59 653.62,289.59 654.48,289.59 655.34,289.59 656.20,289.59 657.06,289.59 657.92,289.59 658.78,289.59 659.64,289.59 660.50,289.59 661.36,289.59 662.22,289.59 663.08,289.59 663.94,289.59 664.80,289.59 665.66,289.58 666.52,289.58 667.38,289.58 668.24,289.58 669.10,289.58 669.96,289.58 670.82,289.58 671.68,289.58 672.54,289.58 673.40,289.58 674.26,289.58 675.12,289.58 675.98,289.58 676.84,289.58 677.70,289.58 678.56,289.58 679.42,289.58 680.28,289.58 681.14,289.58 682.00,289.58 682.86,289.58 683.72,289.58 684.58,289.58 685.44,289.58 686.30,289.58 687.16,289.58 688.02,289.58 688.88,289.58 689.74,289.58 690.60,289.58 691.46,289.58 692.32,289.58 693.18,289.58 694.04,289.58 694.90,289.58 695.76,289.58 696.62,289.58 697.48,289.58 698.34,289.58 699.20,289.58 700.06,289.58 700.92,289.58 701.78,289.57 702.64,289.57 703.50,289.57 704.36,289.57 705.22,289.57 706.08,289.57 706.94,289.57 707.80,289.57 708.66,289.57 709.52,289.57 710.38,289.57 711.24,289.57 712.10,289.57 712.96,289.57 713.82,289.57 714.68,289.57 715.54,289.57 716.40,289.57 717.26,289.57 718.12,289.57 718.98,289.57 719.84,289.57 720.70,289.57 721.56,289.57 722.42,289.57 723.28,289.57 724.14,289.57 725.00,289.57 725.86,289.57 726.72,289.57 727.58,289.57 728.44,289.57 729.30,289.57 730.16,289.57 731.02,289.57 731.88,289.57 732.74,289.57 733.60,289.57 734.46,289.57 735.32,289.57 736.18,289.57 737.04,289.57 737.90,289.57 738.76,289.57 739.62,289.57 740.48,289.57 741.34,289.58 742.20,289.58 743.06,289.58 743.92,289.58 744.78,289.58 745.64,289.58 746.50,289.58 747.36,289.58 748.22,289.58 749.08,289.58 749.94,289.58 750.80,289.58 751.66,289.58 752.52,289.58 753.38,289.58 754.24,289.58 755.10,289.58 755.96,289.58 756.82,289.58 757.68,289.58 758.54,289.58 759.40,289.58 760.26,289.58 761.12,289.58 761.98,289.58 762.84,289.58 763.70,289.58 764.56,289.58 765.42,289.58 766.28,289.59 767.14,289.59 768.00,289.59 768.86,289.59 769.72,289.59 770.58,289.59 771.44,289.59 772.30,289.59 773.16,289.59 774.02,289.59 774.88,289.59 775.74,289.59 776.60,289.59 777.46,289.59 778.32,289.59 779.18,289.59 780.04,289.59 780.90,289.59 781.76,289.60 782.62,289.60 783.48,289.60 784.34,289.60 785.20,289.60 786.06,289.60 786.92,289.60 787.78,289.60 788.64,289.60 789.50,289.60 790.36,289.60 791.22,289.60 792.08,289.60 792.94,289.60 793.80,289.60 794.66,289.61 795.52,289.61 796.38,289.61 797.24,289.61 798.10,289.61 798.96,289.61 799.82,289.61 800.68,289.61 801.54,289.61 802.40,289.61 803.26,289.61 804.12,289.61 804.98,289.61 805.84,289.62 806.70,289.62 807.56,289.62 808.42,289.62 809.28,289.62 810.14,289.62 811.00,289.62 811.86,289.62 812.72,289.62 813.58,289.62 814.44,289.62 815.30,289.62 816.16,289.63 817.02,289.63 817.88,289.63 818.74,289.63 819.60,289.63 820.46,289.63 821.32,289.63 822.18,289.63 823.04,289.63 823.90,289.63 824.76,289.63 825.62,289.63 826.48,289.63 827.34,289.64 828.20,289.64 829.06,289.64 829.92,289.64 830.78,289.64 831.64,289.64 832.50,289.64 833.36,289.64 834.22,289.64 835.08,289.64 835.94,289.64 836.80,289.64 837.66,289.65 838.52,289.65 839.38,289.65 840.24,289.65 841.10,289.65 841.96,289.65 842.82,289.65 843.68,289.65 844.54,289.65 845.40,289.65 846.26,289.65 847.12,289.65 847.98,289.65 848.84,289.65 849.70,289.66 850.56,289.66 851.42,289.66 852.28,289.66 853.14,289.66 854.00,289.66 854.86,289.66 855.72,289.66 856.58,289.66 857.44,289.66 858.30,289.66 859.16,289.66 860.02,289.66 860.88,289.66 861.74,289.66 862.60,289.67 863.46,289.67 864.32,289.67 865.18,289.67 866.04,289.67 866.90,289.67 867.76,289.67 868.62,289.67 869.48,289.67 870.34,289.67 871.20,289.67 872.06,289.67 872.92,289.67 873.78,289.67 874.64,289.67 875.50,289.67 876.36,289.67 877.22,289.67 878.08,289.67 878.94,289.67 879.80,289.68 880.66,289.68 881.52,289.68 882.38,289.68 883.24,289.68 884.10,289.68 884.96,289.68 885.82,289.68 886.68,289.68 887.54,289.68 888.40,289.68 889.26,289.68 890.12,289.68 890.98,289.68 891.84,289.68 892.70,289.68 893.56,289.68 894.42,289.68 895.28,289.68 896.14,289.68 897.00,289.68 897.86,289.68 898.72,289.68 899.58,289.68 900.44,289.68 901.30,289.68 902.16,289.68 903.02,289.68 903.88,289.68 904.74,289.68 905.60,289.68 906.46,289.68 907.32,289.68 908.18,289.68 909.04,289.68 909.90,289.68 910.76,289.68 911.62,289.68 912.48,289.68 913.34,289.68 914.20,289.68 915.06,289.68 915.92,289.68 916.78,289.68 917.64,289.68 918.50,289.68 919.36,289.68 920.22,289.68 921.08,289.68 921.94,289.68 922.80,289.68 923.66,289.68 924.52,289.68 925.38,289.68 926.24,289.67 927.10,289.67 927.96,289.67 928.82,289.67 929.68,289.67 930.54,289.67 931.40,289.67 932.26,289.67 933.12,289.67 933.98,289.67 934.84,289.67 935.70,289.67 936.56,289.67 937.42,289.67 938.28,289.67 939.14,289.66 940.00,289.66" />
  <polyline fill="none" stroke="#b66a00" stroke-width="1.6" stroke-linejoin="round" stroke-linecap="round" points="80.00,221.71 80.86,220.18 81.72,218.62 82.58,217.03 83.44,215.40 84.30,213.75 85.16,212.06 86.02,210.34 86.88,208.58 87.74,206.80 88.60,204.98 89.46,203.14 90.32,201.26 91.18,199.35 92.04,197.41 92.90,195.44 93.76,193.44 94.62,191.42 95.48,189.36 96.34,187.29 97.20,185.18 98.06,183.06 98.92,180.91 99.78,178.74 100.64,176.55 101.50,174.35 102.36,172.13 103.22,169.89 104.08,167.65 104.94,165.39 105.80,163.13 106.66,160.87 107.52,158.60 108.38,156.34 109.24,154.08 110.10,151.82 110.96,149.58 111.82,147.34 112.68,145.12 113.54,142.92 114.40,140.74 115.26,138.58 116.12,136.45 116.98,134.35 117.84,132.27 118.70,130.24 119.56,128.23 120.42,126.27 121.28,124.34 122.14,122.46 123.00,120.62 123.86,118.82 124.72,117.08 125.58,115.38 126.44,113.73 127.30,112.13 128.16,110.58 129.02,109.08 129.88,107.64 130.74,106.25 131.60,104.90 132.46,103.61 133.32,102.38 134.18,101.19 135.04,100.05 135.90,98.96 136.76,97.92 137.62,96.93 138.48,95.99 139.34,95.09 140.20,94.23 141.06,93.42 141.92,92.65 142.78,91.92 143.64,91.22 144.50,90.57 145.36,89.95 146.22,89.37 147.08,88.82 147.94,88.30 148.80,87.81 149.66,87.35 150.52,86.91 151.38,86.51 152.24,86.12 153.10,85.76 153.96,85.43 154.82,85.11 155.68,84.82 156.54,84.54 157.40,84.28 158.26,84.04 159.12,83.81 159.98,83.60 160.84,83.40 161.70,83.21 162.56,83.04 163.42,82.88 164.28,82.73 165.14,82.59 166.00,82.45 166.86,82.33 167.72,82.21 168.58,82.11 169.44,82.01 170.30,81.92 171.16,81.85 172.02,81.84 172.88,82.09 173.74,84.52 174.60,93.19 175.46,84.20 176.32,82.72 177.18,82.25 178.04,82.01 178.90,81.87 179.76,81.78 180.62,81.71 181.48,81.66 182.34,81.62 183.20,81.59 184.06,81.57 184.92,81.55 185.78,81.54 186.64,81.54 187.50,81.54 188.36,81.54 189.22,81.55 190.08,81.56 190.94,81.57 191.80,81.59 192.66,81.61 193.52,81.63 194.38,81.66 195.24,81.69 196.10,81.73 196.96,81.76 197.82,81.80 198.68,81.85 199.54,81.89 200.40,81.94 201.26,81.99 202.12,82.05 202.98,82.11 203.84,82.17 204.70,82.23 205.56,82.30 206.42,82.36 207.28,82.44 208.14,82.51 209.00,82.59 209.86,82.67 210.72,82.75 211.58,82.84 212.44,82.92 213.30,83.02 214.16,83.11 215.02,83.21 215.88,83.30 216.74,83.41 217.60,83.51 218.46,83.62 219.32,83.73 220.18,83.84 221.04,83.95 221.90,84.07 222.76,84.19 223.62,84.31 224.48,84.43 225.34,84.56 226.20,84.68 227.06,84.81 227.92,84.95 228.78,85.08 229.64,85.22 230.50,85.35 231.36,85.49 232.22,85.64 233.08,85.78 233.94,85.92 234.80,86.07 235.66,86.22 236.52,86.37 237.38,86.52 238.24,86.67 239.10,86.82 239.96,86.97 240.82,87.12 241.68,87.27 242.54,87.41 243.40,87.54 244.26,87.61 245.12,87.40 245.98,89.74 246.84,89.06 247.70,89.36 248.56,90.38 249.42,95.28 250.28,94.64 251.14,90.26 252.00,89.67 252.86,89.62 253.72,89.69 254.58,89.81 255.44,89.95 256.30,90.10 257.16,90.26 258.02,90.42 258.88,90.57 259.74,90.73 260.60,90.89 261.46,91.05 262.32,91.21 263.18,91.37 264.04,91.53 264.90,91.69 265.76,91.85 266.62,92.01 267.48,92.16 268.34,92.32 269.20,92.47 270.06,92.63 270.92,92.78 271.78,92.93 272.64,93.08 273.50,93.23 274.36,93.37 275.22,93.52 276.08,93.66 276.94,93.81 277.80,93.95 278.66,94.09 279.52,94.22 280.38,94.36 281.24,94.49 282.10,94.63 282.96,94.76 283.82,94.88 284.68,95.01 285.54,95.14 286.40,95.26 287.26,95.38 288.12,95.50 288.98,95.61 289.84,95.73 290.70,95.84 291.56,95.95 292.42,96.06 293.28,96.16 294.14,96.27 295.00,96.37 295.86,96.47 296.72,96.56 297.58,96.66 298.44,96.75 299.30,96.84 300.16,96.92 301.02,97.01 301.88,97.09 302.74,97.17 303.60,97.24 304.46,97.32 305.32,97.39 306.18,97.46 307.04,97.52 307.90,97.59 308.76,97.65 309.62,97.71 310.48,97.77 311.34,97.82 312.20,97.87 313.06,97.92 313.92,97.96 314.78,98.01 315.64,98.05 316.50,98.09 317.36,98.12 318.22,98.16 319.08,98.19 319.94,98.21 320.80,98.24 321.66,98.26 322.52,98.28 323.38,98.30 324.24,98.31 325.10,98.33 325.96,98.34 326.82,98.34 327.68,98.35 328.54,98.35 329.40,98.35 330.26,98.35 331.12,98.34 331.98,98.33 332.84,98.32 333.70,98.31 334.56,98.29 335.42,98.27 336.28,98.25 337.14,98.23 338.00,98.21 338.86,98.18 339.72,98.15 340.58,98.12 341.44,98.08 342.30,98.04 343.16,98.01 344.02,97.96 344.88,97.92 345.74,97.87 346.60,97.83 347.46,97.78 348.32,97.72 349.18,97.67 350.04,97.61 350.90,97.55 351.76,97.49 352.62,97.43 353.48,97.36 354.34,97.30 355.20,97.23 356.06,97.15 356.92,97.08 357.78,97.01 358.64,96.93 359.50,96.85 360.36,96.77 361.22,96.69 362.08,96.60 362.94,96.52 363.80,96.43 364.66,96.34 365.52,96.25 366.38,96.16 367.24,96.06 368.10,95.97 368.96,95.87 369.82,95.77 370.68,95.67 371.54,95.57 372.40,95.47 373.26,95.36 374.12,95.26 374.98,95.15 375.84,95.04 376.70,94.93 377.56,94.82 378.42,94.71 379.28,94.60 380.14,94.48 381.00,94.37 381.86,94.25 382.72,94.14 383.58,94.02 384.44,93.90 385.30,93.78 386.16,93.66 387.02,93.54 387.88,93.41 388.74,93.29 389.60,93.17 390.46,93.04 391.32,92.92 392.18,92.79 393.04,92.67 393.90,92.54 394.76,92.41 395.62,92.28 396.48,92.16 397.34,92.03 398.20,91.90 399.06,91.77 399.92,91.64 400.78,91.51 401.64,91.38 402.50,91.25 403.36,91.12 404.22,90.99 405.08,90.86 405.94,90.73 406.80,90.60 407.66,90.47 408.52,90.34 409.38,90.21 410.24,90.08 411.10,89.95 411.96,89.82 412.82,89.69 413.68,89.56 414.54,89.43 415.40,89.30 416.26,89.18 417.12,89.05 417.98,88.92 418.84,88.79 419.70,88.67 420.56,88.54 421.42,88.42 422.28,88.29 423.14,88.17 424.00,88.05 424.86,87.92 425.72,87.80 426.58,87.68 427.44,87.56 428.30,87.44 429.16,87.32 430.02,87.20 430.88,87.09 431.74,86.97 432.60,86.85 433.46,86.74 434.32,86.62 435.18,86.51 436.04,86.40 436.90,86.29 437.76,86.18 438.62,86.07 439.48,85.96 440.34,85.86 441.20,85.75 442.06,85.64 442.92,85.54 443.78,85.44 444.64,85.34 445.50,85.24 446.36,85.14 447.22,85.04 448.08,84.94 448.94,84.85 449.80,84.75 450.66,84.66 451.52,84.57 452.38,84.48 453.24,84.39 454.10,84.30 454.96,84.21 455.82,84.12 456.68,84.04 457.54,83.96 458.40,83.87 459.26,83.79 460.12,83.71 460.98,83.63 461.84,83.55 462.70,83.48 463.56,83.40 464.42,83.33 465.28,83.26 466.14,83.18 467.00,83.11 467.86,83.04 468.72,82.98 469.58,82.91 470.44,82.84 471.30,82.78 472.16,82.72 473.02,82.65 473.88,82.59 474.74,82.53 475.60,82.47 476.46,82.42 477.32,82.36 478.18,82.30 479.04,82.25 479.90,82.20 480.76,82.14 481.62,82.09 482.48,82.04 483.34,81.99 484.20,81.95 485.06,81.90 485.92,81.85 486.78,81.81 487.64,81.76 488.50,81.72 489.36,81.68 490.22,81.64 491.08,81.60 491.94,81.56 492.80,81.52 493.66,81.48 494.52,81.45 495.38,81.41 496.24,81.38 497.10,81.34 497.96,81.31 498.82,81.28 499.68,81.25 500.54,81.22 501.40,81.19 502.26,81.16 503.12,81.13 503.98,81.10 504.84,81.08 505.70,81.05 506.56,81.03 507.42,81.00 508.28,80.98 509.14,80.96 510.00,80.93 510.86,80.91 511.72,80.89 512.58,80.87 513.44,80.85 514.30,80.83 515.16,80.82 516.02,80.80 516.88,80.78 517.74,80.76 518.60,80.75 519.46,80.73 520.32,80.72 521.18,80.71 522.04,80.69 522.90,80.68 523.76,80.67 524.62,80.65 525.48,80.64 526.34,80.63 527.20,80.62 528.06,80.61 528.92,80.60 529.78,80.59 530.64,80.58 531.50,80.58 532.36,80.57 533.22,80.56 534.08,80.55 534.94,80.55 535.80,80.54 536.66,80.54 537.52,80.53 538.38,80.52 539.24,80.52 540.10,80.52 540.96,80.51 541.82,80.51 542.68,80.50 543.54,80.50 544.40,80.50 545.26,80.49 546.12,80.49 546.98,80.49 547.84,80.49 548.70,80.48 549.56,80.48 550.42,80.48 551.28,80.48 552.14,80.48 553.00,80.48 553.86,80.48 554.72,80.48 555.58,80.48 556.44,80.48 557.30,80.48 558.16,80.48 559.02,80.48 559.88,80.48 560.74,80.48 561.60,80.48 562.46,80.48 563.32,80.48 564.18,80.48 565.04,80.48 565.90,80.48 566.76,80.48 567.62,80.49 568.48,80.49 569.34,80.49 570.20,80.49 571.06,80.49 571.92,80.49 572.78,80.50 573.64,80.50 574.50,80.50 575.36,80.50 576.22,80.51 577.08,80.51 577.94,80.51 578.80,80.51 579.66,80.52 580.52,80.52 581.38,80.52 582.24,80.53 583.10,80.53 583.96,80.53 584.82,80.54 585.68,80.54 586.54,80.55 587.40,80.55 588.26,80.55 589.12,80.56 589.98,80.56 590.84,80.57 591.70,80.57 592.56,80.58 593.42,80.58 594.28,80.59 595.14,80.60 596.00,80.60 596.86,80.61 597.72,80.62 598.58,80.62 599.44,80.63 600.30,80.64 601.16,80.65 602.02,80.66 602.88,80.67 603.74,80.67 604.60,80.68 605.46,80.69 606.32,80.71 607.18,80.72 608.04,80.73 608.90,80.74 609.76,80.75 610.62,80.76 611.48,80.78 612.34,80.79 613.20,80.81 614.06,80.82 614.92,80.84 615.78,80.85 616.64,80.87 617.50,80.89 618.36,80.91 619.22,80.93 620.08,80.95 620.94,80.97 621.80,80.99 622.66,81.01 623.52,81.03 624.38,81.06 625.24,81.08 626.10,81.11 626.96,81.13 627.82,81.16 628.68,81.19 629.54,81.22 630.40,81.25 631.26,81.28 632.12,81.31 632.98,81.35 633.84,81.38 634.70,81.42 635.56,81.45 636.42,81.49 637.28,81.53 638.14,81.57 639.00,81.61 639.86,81.66 640.72,81.70 641.58,81.75 642.44,81.79 643.30,81.84 644.16,81.89 645.02,81.94 645.88,81.99 646.74,82.05 647.60,82.10 648.46,82.16 649.32,82.22 650.18,82.28 651.04,82.34 651.90,82.40 652.76,82.47 653.62,82.53 654.48,82.60 655.34,82.67 656.20,82.74 657.06,82.82 657.92,82.89 658.78,82.97 659.64,83.05 660.50,83.13 661.36,83.21 662.22,83.29 663.08,83.38 663.94,83.47 664.80,83.55 665.66,83.65 666.52,83.74 667.38,83.83 668.24,83.93 669.10,84.03 669.96,84.13 670.82,84.23 671.68,84.34 672.54,84.45 673.40,84.56 674.26,84.67 675.12,84.78 675.98,84.90 676.84,85.01 677.70,85.13 678.56,85.25 679.42,85.38 680.28,85.50 681.14,85.63 682.00,85.76 682.86,85.89 683.72,86.03 684.58,86.16 685.44,86.30 686.30,86.44 687.16,86.58 688.02,86.73 688.88,86.87 689.74,87.02 690.60,87.17 691.46,87.33 692.32,87.48 693.18,87.64 694.04,87.80 694.90,87.96 695.76,88.12 696.62,88.29 697.48,88.46 698.34,88.63 699.20,88.80 700.06,88.97 700.92,89.15 701.78,89.33 702.64,89.51 703.50,89.69 704.36,89.87 705.22,90.06 706.08,90.25 706.94,90.44 707.80,90.63 708.66,90.82 709.52,91.02 710.38,91.21 711.24,91.41 712.10,91.61 712.96,91.82 713.82,92.02 714.68,92.23 715.54,92.43 716.40,92.64 717.26,92.85 718.12,93.07 718.98,93.28 719.84,93.50 720.70,93.72 721.56,93.93 722.42,94.16 723.28,94.38 724.14,94.60 725.00,94.83 725.86,95.05 726.72,95.28 727.58,95.51 728.44,95.74 729.30,95.97 730.16,96.20 731.02,96.44 731.88,96.67 732.74,96.91 733.60,97.15 734.46,97.38 735.32,97.62 736.18,97.86 737.04,98.11 737.90,98.35 738.76,98.59 739.62,98.83 740.48,99.08 741.34,99.33 742.20,99.57 743.06,99.82 743.92,100.07 744.78,100.31 745.64,100.56 746.50,100.81 747.36,101.06 748.22,101.31 749.08,101.56 749.94,101.82 750.80,102.07 751.66,102.32 752.52,102.57 753.38,102.82 754.24,103.08 755.10,103.33 755.96,103.58 756.82,103.84 757.68,104.09 758.54,104.34 759.40,104.59 760.26,104.85 761.12,105.10 761.98,105.35 762.84,105.61 763.70,105.86 764.56,106.11 765.42,106.36 766.28,106.62 767.14,106.87 768.00,107.12 768.86,107.37 769.72,107.62 770.58,107.87 771.44,108.12 772.30,108.37 773.16,108.61 774.02,108.86 774.88,109.11 775.74,109.35 776.60,109.60 777.46,109.84 778.32,110.09 779.18,110.33 780.04,110.57 780.90,110.81 781.76,111.05 782.62,111.29 783.48,111.53 784.34,111.77 785.20,112.01 786.06,112.24 786.92,112.47 787.78,112.71 788.64,112.94 789.50,113.17 790.36,113.40 791.22,113.63 792.08,113.85 792.94,114.08 793.80,114.31 794.66,114.53 795.52,114.75 796.38,114.97 797.24,115.19 798.10,115.41 798.96,115.62 799.82,115.84 800.68,116.05 801.54,116.26 802.40,116.47 803.26,116.68 804.12,116.89 804.98,117.09 805.84,117.30 806.70,117.50 807.56,117.70 808.42,117.90 809.28,118.09 810.14,118.29 811.00,118.48 811.86,118.68 812.72,118.87 813.58,119.05 814.44,119.24 815.30,119.43 816.16,119.61 817.02,119.79 817.88,119.97 818.74,120.15 819.60,120.32 820.46,120.50 821.32,120.67 822.18,120.84 823.04,121.01 823.90,121.17 824.76,121.34 825.62,121.50 826.48,121.66 827.34,121.82 828.20,121.98 829.06,122.13 829.92,122.29 830.78,122.44 831.64,122.59 832.50,122.74 833.36,122.88 834.22,123.03 835.08,123.17 835.94,123.31 836.80,123.45 837.66,123.58 838.52,123.72 839.38,123.85 840.24,123.98 841.10,124.11 841.96,124.24 842.82,124.36 843.68,124.49 844.54,124.61 845.40,124.73 846.26,124.85 847.12,124.97 847.98,125.08 848.84,125.19 849.70,125.31 850.56,125.42 851.42,125.52 852.28,125.63 853.14,125.74 854.00,125.84 854.86,125.94 855.72,126.04 856.58,126.14 857.44,126.24 858.30,126.33 859.16,126.43 860.02,126.52 860.88,126.61 861.74,126.70 862.60,126.79 863.46,126.88 864.32,126.97 865.18,127.05 866.04,127.14 866.90,127.22 867.76,127.30 868.62,127.38 869.48,127.46 870.34,127.54 871.20,127.61 872.06,127.69 872.92,127.76 873.78,127.84 874.64,127.91 875.50,127.98 876.36,128.05 877.22,128.12 878.08,128.19 878.94,128.26 879.80,128.33 880.66,128.39 881.52,128.46 882.38,128.52 883.24,128.59 884.10,128.65 884.96,128.71 885.82,128.77 886.68,128.83 887.54,128.89 888.40,128.94 889.26,129.00 890.12,129.05 890.98,129.11 891.84,129.16 892.70,129.21 893.56,129.26 894.42,129.30 895.28,129.35 896.14,129.39 897.00,129.43 897.86,129.47 898.72,129.51 899.58,129.55 900.44,129.58 901.30,129.61 902.16,129.64 903.02,129.66 903.88,129.68 904.74,129.70 905.60,129.72 906.46,129.73 907.32,129.73 908.18,129.74 909.04,129.74 909.90,129.73 910.76,129.72 911.62,129.71 912.48,129.69 913.34,129.66 914.20,129.63 915.06,129.59 915.92,129.55 916.78,129.50 917.64,129.44 918.50,129.38 919.36,129.31 920.22,129.23 921.08,129.14 921.94,129.05 922.80,128.94 923.66,128.83 924.52,128.71 925.38,128.58 926.24,128.44 927.10,128.29 927.96,128.13 928.82,127.96 929.68,127.78 930.54,127.59 931.40,127.39 932.26,127.18 933.12,126.95 933.98,126.72 934.84,126.47 935.70,126.21 936.56,125.94 937.42,125.65 938.28,125.35 939.14,125.04 940.00,124.72" />
  <polyline fill="none" stroke="#8a1f1f" stroke-width="1.4" stroke-linejoin="round" stroke-linecap="round" points="80.00,531.67 80.86,530.15 81.72,528.58 82.58,526.99 83.44,525.37 84.30,523.71 85.16,522.02 86.02,520.30 86.88,518.55 87.74,516.76 88.60,514.94 89.46,513.10 90.32,511.22 91.18,509.30 92.04,507.36 92.90,505.39 93.76,503.40 94.62,501.37 95.48,499.32 96.34,497.24 97.20,495.13 98.06,493.00 98.92,490.85 99.78,488.68 100.64,486.49 101.50,484.29 102.36,482.07 103.22,479.83 104.08,477.58 104.94,475.33 105.80,473.07 106.66,470.80 107.52,468.54 108.38,466.27 109.24,464.01 110.10,461.75 110.96,459.50 111.82,457.27 112.68,455.05 113.54,452.85 114.40,450.66 115.26,448.50 116.12,446.37 116.98,444.26 117.84,442.19 118.70,440.15 119.56,438.15 120.42,436.18 121.28,434.25 122.14,432.37 123.00,430.53 123.86,428.73 124.72,426.98 125.58,425.28 126.44,423.63 127.30,422.03 128.16,420.48 129.02,418.99 129.88,417.54 130.74,416.15 131.60,414.80 132.46,413.51 133.32,412.27 134.18,411.09 135.04,409.95 135.90,408.86 136.76,407.82 137.62,406.83 138.48,405.88 139.34,404.98 140.20,404.12 141.06,403.31 141.92,402.54 142.78,401.81 143.64,401.12 144.50,400.46 145.36,399.84 146.22,399.26 147.08,398.71 147.94,398.19 148.80,397.70 149.66,397.23 150.52,396.80 151.38,396.39 152.24,396.01 153.10,395.65 153.96,395.31 154.82,395.00 155.68,394.70 156.54,394.43 157.40,394.17 158.26,393.92 159.12,393.70 159.98,393.48 160.84,393.29 161.70,393.10 162.56,392.93 163.42,392.76 164.28,392.61 165.14,392.47 166.00,392.34 166.86,392.22 167.72,392.10 168.58,391.99 169.44,391.89 170.30,391.81 171.16,391.74 172.02,391.73 172.88,391.98 173.74,394.41 174.60,403.10 175.46,394.09 176.32,392.61 177.18,392.13 178.04,391.90 178.90,391.76 179.76,391.67 180.62,391.60 181.48,391.55 182.34,391.51 183.20,391.48 184.06,391.46 184.92,391.44 185.78,391.43 186.64,391.43 187.50,391.43 188.36,391.43 189.22,391.44 190.08,391.45 190.94,391.46 191.80,391.48 192.66,391.50 193.52,391.53 194.38,391.55 195.24,391.59 196.10,391.62 196.96,391.66 197.82,391.70 198.68,391.74 199.54,391.79 200.40,391.84 201.26,391.89 202.12,391.94 202.98,392.00 203.84,392.06 204.70,392.13 205.56,392.19 206.42,392.26 207.28,392.33 208.14,392.41 209.00,392.49 209.86,392.57 210.72,392.65 211.58,392.74 212.44,392.83 213.30,392.92 214.16,393.01 215.02,393.11 215.88,393.21 216.74,393.31 217.60,393.41 218.46,393.52 219.32,393.63 220.18,393.74 221.04,393.86 221.90,393.98 222.76,394.09 223.62,394.22 224.48,394.34 225.34,394.47 226.20,394.59 227.06,394.72 227.92,394.86 228.78,394.99 229.64,395.13 230.50,395.27 231.36,395.41 232.22,395.55 233.08,395.69 233.94,395.84 234.80,395.98 235.66,396.13 236.52,396.28 237.38,396.43 238.24,396.58 239.10,396.74 239.96,396.89 240.82,397.04 241.68,397.19 242.54,397.33 243.40,397.46 244.26,397.53 245.12,397.32 245.98,399.67 246.84,398.98 247.70,399.29 248.56,400.31 249.42,405.21 250.28,404.58 251.14,400.19 252.00,399.60 252.86,399.55 253.72,399.62 254.58,399.74 255.44,399.88 256.30,400.03 257.16,400.19 258.02,400.35 258.88,400.50 259.74,400.66 260.60,400.83 261.46,400.99 262.32,401.15 263.18,401.31 264.04,401.47 264.90,401.63 265.76,401.78 266.62,401.94 267.48,402.10 268.34,402.25 269.20,402.41 270.06,402.56 270.92,402.71 271.78,402.87 272.64,403.02 273.50,403.16 274.36,403.31 275.22,403.46 276.08,403.60 276.94,403.75 277.80,403.89 278.66,404.03 279.52,404.16 280.38,404.30 281.24,404.43 282.10,404.57 282.96,404.70 283.82,404.83 284.68,404.95 285.54,405.08 286.40,405.20 287.26,405.32 288.12,405.44 288.98,405.56 289.84,405.67 290.70,405.78 291.56,405.90 292.42,406.00 293.28,406.11 294.14,406.21 295.00,406.31 295.86,406.41 296.72,406.51 297.58,406.60 298.44,406.69 299.30,406.78 300.16,406.87 301.02,406.95 301.88,407.04 302.74,407.12 303.60,407.19 304.46,407.27 305.32,407.34 306.18,407.41 307.04,407.48 307.90,407.54 308.76,407.60 309.62,407.66 310.48,407.72 311.34,407.77 312.20,407.82 313.06,407.87 313.92,407.92 314.78,407.96 315.64,408.00 316.50,408.04 317.36,408.08 318.22,408.11 319.08,408.14 319.94,408.17 320.80,408.19 321.66,408.22 322.52,408.24 323.38,408.25 324.24,408.27 325.10,408.28 325.96,408.29 326.82,408.30 327.68,408.30 328.54,408.31 329.40,408.30 330.26,408.30 331.12,408.30 331.98,408.29 332.84,408.28 333.70,408.27 334.56,408.25 335.42,408.23 336.28,408.21 337.14,408.19 338.00,408.16 338.86,408.14 339.72,408.11 340.58,408.07 341.44,408.04 342.30,408.00 343.16,407.96 344.02,407.92 344.88,407.88 345.74,407.83 346.60,407.79 347.46,407.74 348.32,407.68 349.18,407.63 350.04,407.57 350.90,407.51 351.76,407.45 352.62,407.39 353.48,407.32 354.34,407.26 355.20,407.19 356.06,407.12 356.92,407.04 357.78,406.97 358.64,406.89 359.50,406.81 360.36,406.73 361.22,406.65 362.08,406.57 362.94,406.48 363.80,406.39 364.66,406.30 365.52,406.21 366.38,406.12 367.24,406.03 368.10,405.93 368.96,405.83 369.82,405.74 370.68,405.64 371.54,405.53 372.40,405.43 373.26,405.33 374.12,405.22 374.98,405.11 375.84,405.01 376.70,404.90 377.56,404.79 378.42,404.68 379.28,404.56 380.14,404.45 381.00,404.33 381.86,404.22 382.72,404.10 383.58,403.98 384.44,403.86 385.30,403.74 386.16,403.62 387.02,403.50 387.88,403.38 388.74,403.26 389.60,403.13 390.46,403.01 391.32,402.88 392.18,402.76 393.04,402.63 393.90,402.51 394.76,402.38 395.62,402.25 396.48,402.12 397.34,402.00 398.20,401.87 399.06,401.74 399.92,401.61 400.78,401.48 401.64,401.35 402.50,401.22 403.36,401.09 404.22,400.96 405.08,400.83 405.94,400.70 406.80,400.57 407.66,400.44 408.52,400.31 409.38,400.18 410.24,400.05 411.10,399.92 411.96,399.79 412.82,399.66 413.68,399.53 414.54,399.40 415.40,399.27 416.26,399.15 417.12,399.02 417.98,398.89 418.84,398.77 419.70,398.64 420.56,398.51 421.42,398.39 422.28,398.26 423.14,398.14 424.00,398.02 424.86,397.90 425.72,397.77 426.58,397.65 427.44,397.53 428.30,397.41 429.16,397.29 430.02,397.18 430.88,397.06 431.74,396.94 432.60,396.83 433.46,396.71 434.32,396.60 435.18,396.49 436.04,396.37 436.90,396.26 437.76,396.15 438.62,396.04 439.48,395.94 440.34,395.83 441.20,395.72 442.06,395.62 442.92,395.52 443.78,395.41 444.64,395.31 445.50,395.21 446.36,395.11 447.22,395.02 448.08,394.92 448.94,394.82 449.80,394.73 450.66,394.64 451.52,394.54 452.38,394.45 453.24,394.36 454.10,394.28 454.96,394.19 455.82,394.10 456.68,394.02 457.54,393.93 458.40,393.85 459.26,393.77 460.12,393.69 460.98,393.61 461.84,393.53 462.70,393.46 463.56,393.38 464.42,393.31 465.28,393.24 466.14,393.16 467.00,393.09 467.86,393.03 468.72,392.96 469.58,392.89 470.44,392.83 471.30,392.76 472.16,392.70 473.02,392.64 473.88,392.57 474.74,392.51 475.60,392.46 476.46,392.40 477.32,392.34 478.18,392.29 479.04,392.23 479.90,392.18 480.76,392.13 481.62,392.08 482.48,392.03 483.34,391.98 484.20,391.93 485.06,391.88 485.92,391.84 486.78,391.79 487.64,391.75 488.50,391.71 489.36,391.66 490.22,391.62 491.08,391.58 491.94,391.54 492.80,391.51 493.66,391.47 494.52,391.43 495.38,391.40 496.24,391.36 497.10,391.33 497.96,391.30 498.82,391.27 499.68,391.23 500.54,391.20 501.40,391.17 502.26,391.15 503.12,391.12 503.98,391.09 504.84,391.07 505.70,391.04 506.56,391.02 507.42,390.99 508.28,390.97 509.14,390.95 510.00,390.92 510.86,390.90 511.72,390.88 512.58,390.86 513.44,390.84 514.30,390.82 515.16,390.81 516.02,390.79 516.88,390.77 517.74,390.76 518.60,390.74 519.46,390.73 520.32,390.71 521.18,390.70 522.04,390.68 522.90,390.67 523.76,390.66 524.62,390.65 525.48,390.64 526.34,390.63 527.20,390.62 528.06,390.61 528.92,390.60 529.78,390.59 530.64,390.58 531.50,390.57 532.36,390.56 533.22,390.56 534.08,390.55 534.94,390.54 535.80,390.54 536.66,390.53 537.52,390.53 538.38,390.52 539.24,390.52 540.10,390.51 540.96,390.51 541.82,390.50 542.68,390.50 543.54,390.50 544.40,390.49 545.26,390.49 546.12,390.49 546.98,390.49 547.84,390.48 548.70,390.48 549.56,390.48 550.42,390.48 551.28,390.48 552.14,390.48 553.00,390.48 553.86,390.48 554.72,390.48 555.58,390.48 556.44,390.48 557.30,390.48 558.16,390.48 559.02,390.48 559.88,390.48 560.74,390.48 561.60,390.48 562.46,390.48 563.32,390.48 564.18,390.48 565.04,390.48 565.90,390.48 566.76,390.49 567.62,390.49 568.48,390.49 569.34,390.49 570.20,390.49 571.06,390.50 571.92,390.50 572.78,390.50 573.64,390.50 574.50,390.50 575.36,390.51 576.22,390.51 577.08,390.51 577.94,390.52 578.80,390.52 579.66,390.52 580.52,390.53 581.38,390.53 582.24,390.53 583.10,390.54 583.96,390.54 584.82,390.54 585.68,390.55 586.54,390.55 587.40,390.56 588.26,390.56 589.12,390.57 589.98,390.57 590.84,390.58 591.70,390.58 592.56,390.59 593.42,390.59 594.28,390.60 595.14,390.61 596.00,390.61 596.86,390.62 597.72,390.63 598.58,390.63 599.44,390.64 600.30,390.65 601.16,390.66 602.02,390.67 602.88,390.68 603.74,390.69 604.60,390.70 605.46,390.71 606.32,390.72 607.18,390.73 608.04,390.74 608.90,390.75 609.76,390.77 610.62,390.78 611.48,390.79 612.34,390.81 613.20,390.82 614.06,390.84 614.92,390.85 615.78,390.87 616.64,390.89 617.50,390.91 618.36,390.92 619.22,390.94 620.08,390.96 620.94,390.98 621.80,391.01 622.66,391.03 623.52,391.05 624.38,391.08 625.24,391.10 626.10,391.13 626.96,391.15 627.82,391.18 628.68,391.21 629.54,391.24 630.40,391.27 631.26,391.30 632.12,391.34 632.98,391.37 633.84,391.40 634.70,391.44 635.56,391.48 636.42,391.52 637.28,391.56 638.14,391.60 639.00,391.64 639.86,391.68 640.72,391.73 641.58,391.77 642.44,391.82 643.30,391.87 644.16,391.92 645.02,391.97 645.88,392.02 646.74,392.08 647.60,392.13 648.46,392.19 649.32,392.25 650.18,392.31 651.04,392.37 651.90,392.43 652.76,392.50 653.62,392.57 654.48,392.63 655.34,392.70 656.20,392.78 657.06,392.85 657.92,392.92 658.78,393.00 659.64,393.08 660.50,393.16 661.36,393.24 662.22,393.33 663.08,393.41 663.94,393.50 664.80,393.59 665.66,393.68 666.52,393.78 667.38,393.87 668.24,393.97 669.10,394.07 669.96,394.17 670.82,394.27 671.68,394.38 672.54,394.49 673.40,394.60 674.26,394.71 675.12,394.82 675.98,394.94 676.84,395.06 677.70,395.18 678.56,395.30 679.42,395.42 680.28,395.55 681.14,395.68 682.00,395.81 682.86,395.94 683.72,396.07 684.58,396.21 685.44,396.35 686.30,396.49 687.16,396.63 688.02,396.78 688.88,396.92 689.74,397.07 690.60,397.23 691.46,397.38 692.32,397.54 693.18,397.69 694.04,397.85 694.90,398.01 695.76,398.18 696.62,398.34 697.48,398.51 698.34,398.68 699.20,398.86 700.06,399.03 700.92,399.21 701.78,399.38 702.64,399.57 703.50,399.75 704.36,399.93 705.22,400.12 706.08,400.31 706.94,400.50 707.80,400.69 708.66,400.88 709.52,401.08 710.38,401.28 711.24,401.48 712.10,401.68 712.96,401.88 713.82,402.08 714.68,402.29 715.54,402.50 716.40,402.71 717.26,402.92 718.12,403.13 718.98,403.35 719.84,403.56 720.70,403.78 721.56,404.00 722.42,404.22 723.28,404.45 724.14,404.67 725.00,404.90 725.86,405.12 726.72,405.35 727.58,405.58 728.44,405.81 729.30,406.04 730.16,406.27 731.02,406.51 731.88,406.74 732.74,406.98 733.60,407.22 734.46,407.46 735.32,407.70 736.18,407.94 737.04,408.18 737.90,408.42 738.76,408.67 739.62,408.91 740.48,409.15 741.34,409.40 742.20,409.65 743.06,409.89 743.92,410.14 744.78,410.39 745.64,410.64 746.50,410.89 747.36,411.14 748.22,411.39 749.08,411.64 749.94,411.89 750.80,412.14 751.66,412.40 752.52,412.65 753.38,412.90 754.24,413.15 755.10,413.41 755.96,413.66 756.82,413.91 757.68,414.17 758.54,414.42 759.40,414.67 760.26,414.93 761.12,415.18 761.98,415.43 762.84,415.69 763.70,415.94 764.56,416.19 765.42,416.44 766.28,416.69 767.14,416.95 768.00,417.20 768.86,417.45 769.72,417.70 770.58,417.95 771.44,418.20 772.30,418.44 773.16,418.69 774.02,418.94 774.88,419.19 775.74,419.43 776.60,419.68 777.46,419.92 778.32,420.17 779.18,420.41 780.04,420.65 780.90,420.89 781.76,421.13 782.62,421.37 783.48,421.61 784.34,421.85 785.20,422.08 786.06,422.32 786.92,422.55 787.78,422.78 788.64,423.01 789.50,423.24 790.36,423.47 791.22,423.70 792.08,423.93 792.94,424.15 793.80,424.38 794.66,424.60 795.52,424.82 796.38,425.04 797.24,425.26 798.10,425.48 798.96,425.69 799.82,425.91 800.68,426.12 801.54,426.33 802.40,426.54 803.26,426.75 804.12,426.96 804.98,427.16 805.84,427.36 806.70,427.57 807.56,427.77 808.42,427.96 809.28,428.16 810.14,428.36 811.00,428.55 811.86,428.74 812.72,428.93 813.58,429.12 814.44,429.30 815.30,429.49 816.16,429.67 817.02,429.85 817.88,430.03 818.74,430.21 819.60,430.38 820.46,430.56 821.32,430.73 822.18,430.90 823.04,431.07 823.90,431.23 824.76,431.40 825.62,431.56 826.48,431.72 827.34,431.88 828.20,432.04 829.06,432.19 829.92,432.34 830.78,432.49 831.64,432.64 832.50,432.79 833.36,432.94 834.22,433.08 835.08,433.22 835.94,433.36 836.80,433.50 837.66,433.63 838.52,433.77 839.38,433.90 840.24,434.03 841.10,434.16 841.96,434.29 842.82,434.41 843.68,434.53 844.54,434.66 845.40,434.78 846.26,434.89 847.12,435.01 847.98,435.12 848.84,435.24 849.70,435.35 850.56,435.46 851.42,435.57 852.28,435.67 853.14,435.78 854.00,435.88 854.86,435.98 855.72,436.08 856.58,436.18 857.44,436.28 858.30,436.37 859.16,436.47 860.02,436.56 860.88,436.65 861.74,436.74 862.60,436.83 863.46,436.92 864.32,437.00 865.18,437.09 866.04,437.17 866.90,437.25 867.76,437.33 868.62,437.41 869.48,437.49 870.34,437.57 871.20,437.65 872.06,437.72 872.92,437.80 873.78,437.87 874.64,437.94 875.50,438.01 876.36,438.08 877.22,438.15 878.08,438.22 878.94,438.29 879.80,438.36 880.66,438.42 881.52,438.49 882.38,438.55 883.24,438.61 884.10,438.68 884.96,438.74 885.82,438.80 886.68,438.85 887.54,438.91 888.40,438.97 889.26,439.02 890.12,439.08 890.98,439.13 891.84,439.18 892.70,439.23 893.56,439.28 894.42,439.33 895.28,439.37 896.14,439.42 897.00,439.46 897.86,439.50 898.72,439.54 899.58,439.57 900.44,439.60 901.30,439.63 902.16,439.66 903.02,439.69 903.88,439.71 904.74,439.73 905.60,439.74 906.46,439.75 907.32,439.76 908.18,439.76 909.04,439.76 909.90,439.76 910.76,439.75 911.62,439.73 912.48,439.71 913.34,439.69 914.20,439.66 915.06,439.62 915.92,439.57 916.78,439.52 917.64,439.47 918.50,439.40 919.36,439.33 920.22,439.25 921.08,439.17 921.94,439.07 922.80,438.97 923.66,438.86 924.52,438.74 925.38,438.61 926.24,438.47 927.10,438.32 927.96,438.16 928.82,437.99 929.68,437.81 930.54,437.62 931.40,437.42 932.26,437.21 933.12,436.98 933.98,436.75 934.84,436.50 935.70,436.24 936.56,435.97 937.42,435.68 938.28,435.39 939.14,435.08 940.00,434.76" />
  <text x="90" y="90" font-family="Arial" font-size="13" fill="#1f5a9d">periodic baseline</text>
  <text x="250" y="90" font-family="Arial" font-size="13" fill="#b66a00">five-cell nonperiodic</text>
  <text x="90" y="400" font-family="Arial" font-size="13" fill="#8a1f1f">absolute difference</text>
  <text x="15" y="190" font-family="Arial" font-size="13" transform="rotate(-90 15,190)">|S| magnitude</text>
  <text x="15" y="500" font-family="Arial" font-size="13" transform="rotate(-90 15,500)">abs difference</text>
  <text x="80" y="315" font-family="Arial" font-size="12">6.0 GHz</text>
  <text x="885" y="315" font-family="Arial" font-size="12">24.0 GHz</text>
  <text x="80" y="635" font-family="Arial" font-size="12">6.0 GHz</text>
  <text x="885" y="635" font-family="Arial" font-size="12">24.0 GHz</text>
  <text x="460" y="635" font-family="Arial" font-size="13">Frequency (GHz)</text>
  <text x="948" y="75" font-family="Arial" font-size="11">1.04</text>
  <text x="948" y="385" font-family="Arial" font-size="11">1.03</text>
</svg>
