<svg xmlns="http://www.w3.org/2000/svg" width="1000" height="650" viewBox="0 0 1000 650">
  <rect width="100%" height="100%" fill="white"/>
  <text x="80" y="30" font-family="Arial" font-size="20">pilot_0070 SZmax(2),Zmin(1): periodic vs five-cell nonperiodic</text>
  <line x1="80" y1="290" x2="940" y2="290" stroke="#444"/>
  <line x1="80" y1="70" x2="80" y2="290" stroke="#444"/>
  <line x1="80" y1="600" x2="940" y2="600" stroke="#444"/>
  <line x1="80" y1="380" x2="80" y2="600" stroke="#444"/>
  <polyline fill="none" stroke="#1f5a9d" stroke-width="1.6" stroke-linejoin="round" stroke-linecap="round" points="80.00,289.91 80.86,289.91 81.72,289.90 82.58,289.90 83.44,289.90 84.30,289.90 85.16,289.89 86.02,289.89 86.88,289.89 87.74,289.89 88.60,289.89 89.46,289.88 90.32,289.88 91.18,289.88 92.04,289.88 92.90,289.87 93.76,289.87 94.62,289.87 95.48,289.87 96.34,289.86 97.20,289.86 98.06,289.86 98.92,289.86 99.78,289.85 100.64,289.85 101.50,289.85 102.36,289.85 103.22,289.84 104.08,289.84 104.94,289.84 105.80,289.84 106.66,289.83 107.52,289.83 108.38,289.83 109.24,289.82 110.10,289.82 110.96,289.82 111.82,289.82 112.68,289.81 113.54,289.81 114.40,289.81 115.26,289.81 116.12,289.80 116.98,289.80 117.84,289.80 118.70,289.80 119.56,289.79 120.42,289.79 121.28,289.79 122.14,289.79 123.00,289.78 123.86,289.78 124.72,289.78 125.58,289.78 126.44,289.78 127.30,289.77 128.16,289.77 129.02,289.77 129.88,289.77 130.74,289.77 131.60,289.76 132.46,289.76 133.32,289.76 134.18,289.76 135.04,289.76 135.90,289.76 136.76,289.76 137.62,289.76 138.48,289.75 139.34,289.75 140.20,289.75 141.06,289.75 141.92,289.75 142.78,289.75 143.64,289.75 144.50,289.75 145.36,289.75 146.22,289.75 147.08,289.75 147.94,289.74 148.80,289.74 149.66,289.74 150.52,289.74 151.38,289.74 152.24,289.74 153.10,289.74 153.96,289.74 154.82,289.74 155.68,289.74 156.54,289.74 157.40,289.74 158.26,289.74 159.12,289.74 159.98,289.74 160.84,289.74 161.70,289.74 162.56,289.74 163.42,289.74 164.28,289.74 165.14,289.74 166.00,289.74 166.86,289.74 167.72,289.74 168.58,289.74 169.44,289.74 170.30,289.74 171.16,289.74 172.02,289.74 172.88,289.73 173.74,289.73 174.60,289.73 175.46,289.73 176.32,289.73 177.18,289.73 178.04,289.73 178.90,289.73 179.76,289.73 180.62,289.73 181.48,289.73 182.34,289.73 183.20,289.73 184.06,289.73 184.92,289.73 185.78,289.73 186.64,289.73 187.50,289.73 188.36,289.73 189.22,289.73 190.08,289.73 190.94,289.73 191.80,289.73 192.66,289.73 193.52,289.73 194.38,289.73 195.24,289.73 196.10,289.73 196.96,289.73 197.82,289.73 198.68,289.73 199.54,289.73 200.40,289.73 201.26,289.73 202.12,289.73 202.98,289.73 203.84,289.73 204.70,289.73 205.56,289.73 206.42,289.72 207.28,289.72 208.14,289.72 209.00,289.72 209.86,289.72 210.72,289.72 211.58,289.72 212.44,289.72 213.30,289.72 214.16,289.72 215.02,289.72 215.88,289.72 216.74,289.72 217.60,289.72 218.46,289.72 219.32,289.72 220.18,289.72 221.04,289.72 221.90,289.72 222.76,289.72 223.62,289.72 224.48,289.72 225.34,289.72 226.20,289.72 227.06,289.72 227.92,289.72 228.78,289.72 229.64,289.72 230.50,289.72 231.36,289.72 232.22,289.72 233.08,289.72 233.94,289.72 234.80,289.71 235.66,289.71 236.52,289.71 237.38,289.71 238.24,289.71 239.10,289.71 239.96,289.71 240.82,289.71 241.68,289.71 242.54,289.71 243.40,289.71 244.26,289.71 245.12,289.71 245.98,289.71 246.84,289.71 247.70,289.71 248.56,289.71 249.42,289.71 250.28,289.71 251.14,289.71 252.00,289.71 252.86,289.71 253.72,289.71 254.58,289.71 255.44,289.71 256.30,289.71 257.16,289.71 258.02,289.71 258.88,289.71 259.74,289.71 260.60,289.71 261.46,289.71 262.32,289.71 263.18,289.71 264.04,289.71 264.90,289.71 265.76,289.71 266.62,289.71 267.48,289.71 268.34,289.71 269.20,289.71 270.06,289.71 270.92,289.71 271.78,289.71 272.64,289.71 273.50,289.71 274.36,289.71 275.22,289.71 276.08,289.71 276.94,289.71 277.80,289.71 278.66,289.70 279.52,289.70 280.38,289.70 281.24,289.70 282.10,289.70 282.96,289.70 283.82,289.70 284.68,289.70 285.54,289.70 286.40,289.70 287.26,289.70 288.12,289.70 288.98,289.70 289.84,289.70 290.70,289.70 291.56,289.70 292.42,289.70 293.28,289.70 294.14,289.70 295.00,289.70 295.86,289.70 296.72,289.70 297.58,289.70 298.44,289.70 299.30,289.70 300.16,289.70 301.02,289.70 301.88,289.70 302.74,289.70 303.60,289.70 304.46,289.70 305.32,289.70 306.18,289.70 307.04,289.70 307.90,289.70 308.76,289.70 309.62,289.70 310.48,289.70 311.34,289.70 312.20,289.70 313.06,289.70 313.92,289.70 314.78,289.70 315.64,289.70 316.50,289.70 317.36,289.70 318.22,289.70 319.08,289.70 319.94,289.70 320.80,289.70 321.66,289.70 322.52,289.70 323.38,289.70 324.24,289.70 325.10,289.70 325.96,289.70 326.82,289.70 327.68,289.70 328.54,289.70 329.40,289.70 330.26,289.70 331.12,289.70 331.98,289.70 332.84,289.70 333.70,289.70 334.56,289.70 335.42,289.70 336.28,289.69 337.14,289.69 338.00,289.69 338.86,289.69 339.72,289.69 340.58,289.69 341.44,289.69 342.30,289.69 343.16,289.69 344.02,289.69 344.88,289.69 345.74,289.69 346.60,289.69 347.46,289.69 348.32,289.69 349.18,289.69 350.04,289.69 350.90,289.69 351.76,289.69 352.62,289.69 353.48,289.69 354.34,289.69 355.20,289.69 356.06,289.69 356.92,289.69 357.78,289.69 358.64,289.69 359.50,289.69 360.36,289.69 361.22,289.69 362.08,289.69 362.94,289.69 363.80,289.69 364.66,289.69 365.52,289.69 366.38,289.69 367.24,289.69 368.10,289.69 368.96,289.69 369.82,289.68 370.68,289.68 371.54,289.68 372.40,289.68 373.26,289.68 374.12,289.68 374.98,289.68 375.84,289.68 376.70,289.68 377.56,289.68 378.42,289.68 379.28,289.68 380.14,289.68 381.00,289.68 381.86,289.68 382.72,289.68 383.58,289.68 384.44,289.68 385.30,289.68 386.16,289.68 387.02,289.68 387.88,289.68 388.74,289.68 389.60,289.68 390.46,289.68 391.32,289.68 392.18,289.68 393.04,289.68 393.90,289.68 394.76,289.68 395.62,289.67 396.48,289.67 397.34,289.67 398.20,289.67 399.06,289.67 399.92,289.67 400.78,289.67 401.64,289.67 402.50,289.67 403.36,289.67 404.22,289.67 405.08,289.67 405.94,289.67 406.80,289.67 407.66,289.67 408.52,289.67 409.38,289.67 410.24,289.67 411.10,289.67 411.96,289.67 412.82,289.67 413.68,289.67 414.54,289.67 415.40,289.67 416.26,289.67 417.12,289.67 417.98,289.67 418.84,289.66 419.70,289.66 420.56,289.66 421.42,289.66 422.28,289.66 423.14,289.66 424.00,289.66 424.86,289.66 425.72,289.66 426.58,289.66 427.44,289.66 428.30,289.66 429.16,289.66 430.02,289.66 430.88,289.66 431.74,289.66 432.60,289.66 433.46,289.66 434.32,289.66 435.18,289.66 436.04,289.66 436.90,289.66 437.76,289.66 438.62,289.66 439.48,289.66 440.34,289.66 441.20,289.66 442.06,289.65 442.92,289.65 443.78,289.65 444.64,289.65 445.50,289.65 446.36,289.65 447.22,289.65 448.08,289.65 448.94,289.65 449.80,289.65 450.66,289.65 451.52,289.65 452.38,289.65 453.24,289.65 454.10,289.65 454.96,289.65 455.82,289.65 456.68,289.65 457.54,289.65 458.40,289.65 459.26,289.65 460.12,289.65 460.98,289.65 461.84,289.65 462.70,289.65 463.56,289.65 464.42,289.65 465.28,289.65 466.14,289.65 467.00,289.65 467.86,289.64 468.72,289.64 469.58,289.64 470.44,289.64 471.30,289.64 472.16,289.64 473.02,289.64 473.88,289.64 474.74,289.64 475.60,289.64 476.46,289.64 477.32,289.64 478.18,289.64 479.04,289.64 479.90,289.64 480.76,289.64 481.62,289.64 482.48,289.64 483.34,289.64 484.20,289.64 485.06,289.64 485.92,289.64 486.78,289.64 487.64,289.64 488.50,289.64 489.36,289.64 490.22,289.64 491.08,289.64 491.94,289.64 492.80,289.64 493.66,289.64 494.52,289.64 495.38,289.64 496.24,289.64 497.10,289.64 497.96,289.64 498.82,289.63 499.68,289.63 500.54,289.63 501.40,289.63 502.26,289.63 503.12,289.63 503.98,289.63 504.84,289.63 505.70,289.63 506.56,289.63 507.42,289.63 508.28,289.63 509.14,289.63 510.00,289.63 510.86,289.63 511.72,289.63 512.58,289.63 513.44,289.63 514.30,289.63 515.16,289.63 516.02,289.63 516.88,289.63 517.74,289.63 518.60,289.63 519.46,289.63 520.32,289.63 521.18,289.63 522.04,289.63 522.90,289.63 523.76,289.63 524.62,289.63 525.48,289.63 526.34,289.63 527.20,289.63 528.06,289.63 528.92,289.63 529.78,289.63 530.64,289.63 531.50,289.63 532.36,289.63 533.22,289.63 534.08,289.63 534.94,289.63 535.80,289.63 536.66,289.63 537.52,289.63 538.38,289.63 539.24,289.63 540.10,289.62 540.96,289.62 541.82,289.62 542.68,289.62 543.54,289.62 544.40,289.62 545.26,289.62 546.12,289.62 546.98,289.62 547.84,289.62 548.70,289.62 549.56,289.62 550.42,289.62 551.28,289.62 552.14,289.62 553.00,289.62 553.86,289.62 554.72,289.62 555.58,289.62 556.44,289.62 557.30,289.62 558.16,289.62 559.02,289.62 559.88,289.62 560.74,289.62 561.60,289.62 562.46,289.62 563.32,289.62 564.18,289.62 565.04,289.62 565.90,289.62 566.76,289.62 567.62,289.62 568.48,289.62 569.34,289.62 570.20,289.62 571.06,289.62 571.92,289.62 572.78,289.62 573.64,289.62 574.50,289.62 575.36,289.62 576.22,289.62 577.08,289.62 577.94,289.62 578.80,289.62 579.66,289.62 580.52,289.62 581.38,289.62 582.24,289.62 583.10,289.62 583.96,289.62 584.82,289.61 585.68,289.61 586.54,289.61 587.40,289.61 588.26,289.61 589.12,289.61 589.98,289.61 590.84,289.61 591.70,289.61 592.56,289.61 593.42,289.61 594.28,289.61 595.14,289.61 596.00,289.61 596.86,289.61 597.72,289.61 598.58,289.61 599.44,289.61 600.30,289.61 601.16,289.61 602.02,289.61 602.88,289.61 603.74,289.61 604.60,289.61 605.46,289.61 606.32,289.61 607.18,289.61 608.04,289.61 608.90,289.61 609.76,289.61 610.62,289.61 611.48,289.61 612.34,289.61 613.20,289.61 614.06,289.61 614.92,289.61 615.78,289.61 616.64,289.61 617.50,289.61 618.36,289.61 619.22,289.61 620.08,289.61 620.94,289.61 621.80,289.60 622.66,289.60 623.52,289.60 624.38,289.60 625.24,289.60 626.10,289.60 626.96,289.60 627.82,289.60 628.68,289.60 629.54,289.60 630.40,289.60 631.26,289.60 632.12,289.60 632.98,289.60 633.84,289.60 634.70,289.60 635.56,289.60 636.42,289.60 637.28,289.60 638.14,289.60 639.00,289.60 639.86,289.60 640.72,289.60 641.58,289.60 642.44,289.60 643.30,289.60 644.16,289.60 645.02,289.60 645.88,289.60 646.74,289.60 647.60,289.60 648.46,289.60 649.32,289.60 650.18,289.60 651.04,289.60 651.90,289.60 652.76,289.59 653.62,289.59 654.48,289.59 655.34,289.59 656.20,289.59 657.06,289.59 657.92,289.59 658.78,289.59 659.64,289.59 660.50,289.59 661.36,289.59 662.22,289.59 663.08,289.59 663.94,289.59 664.80,289.59 665.66,289.59 666.52,289.59 667.38,289.59 668.24,289.59 669.10,289.59 669.96,289.59 670.82,289.59 671.68,289.59 672.54,289.59 673.40,289.59 674.26,289.59 675.12,289.59 675.98,289.59 676.84,289.59 677.70,289.59 678.56,289.59 679.42,289.59 680.28,289.59 681.14,289.59 682.00,289.59 682.86,289.59 683.72,289.58 684.58,289.58 685.44,289.58 686.30,289.58 687.16,289.58 688.02,289.58 688.88,289.58 689.74,289.58 690.60,289.58 691.46,289.58 692.32,289.58 693.18,289.58 694.04,289.58 694.90,289.58 695.76,289.58 696.62,289.58 697.48,289.58 698.34,289.58 699.20,289.58 700.06,289.58 700.92,289.58 701.78,289.58 702.64,289.58 703.50,289.58 704.36,289.58 705.22,289.58 706.08,289.58 706.94,289.58 707.80,289.58 708.66,289.58 709.52,289.58 710.38,289.58 711.24,289.58 712.10,289.58 712.96,289.58 713.82,289.58 714.68,289.58 715.54,289.58 716.40,289.58 717.26,289.58 718.12,289.58 718.98,289.58 719.84,289.58 720.70,289.58 721.56,289.58 722.42,289.58 723.28,289.58 724.14,289.58 725.00,289.58 725.86,289.58 726.72,289.58 727.58,289.58 728.44,289.58 729.30,289.58 730.16,289.58 731.02,289.58 731.88,289.58 732.74,289.58 733.60,289.58 734.46,289.58 735.32,289.58 736.18,289.58 737.04,289.58 737.90,289.58 738.76,289.58 739.62,289.58 740.48,289.58 741.34,289.58 742.20,289.58 743.06,289.58 743.92,289.58 744.78,289.58 745.64,289.58 746.50,289.58 747.36,289.58 748.22,289.58 749.08,289.58 749.94,289.58 750.80,289.58 751.66,289.58 752.52,289.58 753.38,289.58 754.24,289.59 755.10,289.59 755.96,289.59 756.82,289.59 757.68,289.59 758.54,289.59 759.40,289.59 760.26,289.59 761.12,289.59 761.98,289.59 762.84,289.59 763.70,289.59 764.56,289.59 765.42,289.59 766.28,289.59 767.14,289.59 768.00,289.59 768.86,289.59 769.72,289.59 770.58,289.59 771.44,289.59 772.30,289.59 773.16,289.59 774.02,289.60 774.88,289.60 775.74,289.60 776.60,289.60 777.46,289.60 778.32,289.60 779.18,289.60 780.04,289.60 780.90,289.60 781.76,289.60 782.62,289.60 783.48,289.60 784.34,289.60 785.20,289.60 786.06,289.60 786.92,289.60 787.78,289.61 788.64,289.61 789.50,289.61 790.36,289.61 791.22,289.61 792.08,289.61 792.94,289.61 793.80,289.61 794.66,289.61 795.52,289.61 796.38,289.61 797.24,289.61 798.10,289.61 798.96,289.61 799.82,289.62 800.68,289.62 801.54,289.62 802.40,289.62 803.26,289.62 804.12,289.62 804.98,289.62 805.84,289.62 806.70,289.62 807.56,289.62 808.42,289.62 809.28,289.62 810.14,289.62 811.00,289.63 811.86,289.63 812.72,289.63 813.58,289.63 814.44,289.63 815.30,289.63 816.16,289.63 817.02,289.63 817.88,289.63 818.74,289.63 819.60,289.63 820.46,289.63 821.32,289.63 822.18,289.64 823.04,289.64 823.90,289.64 824.76,289.64 825.62,289.64 826.48,289.64 827.34,289.64 828.20,289.64 829.06,289.64 829.92,289.64 830.78,289.64 831.64,289.64 832.50,289.65 833.36,289.65 834.22,289.65 835.08,289.65 835.94,289.65 836.80,289.65 837.66,289.65 838.52,289.65 839.38,289.65 840.24,289.65 841.10,289.65 841.96,289.65 842.82,289.65 843.68,289.66 844.54,289.66 845.40,289.66 846.26,289.66 847.12,289.66 847.98,289.66 848.84,289.66 849.70,289.66 850.56,289.66 851.42,289.66 852.28,289.66 853.14,289.66 854.00,289.66 854.86,289.66 855.72,289.66 856.58,289.67 857.44,289.67 858.30,289.67 859.16,289.67 860.02,289.67 860.88,289.67 861.74,289.67 862.60,289.67 863.46,289.67 864.32,289.67 865.18,289.67 866.04,289.67 866.90,289.67 867.76,289.67 868.62,289.67 869.48,289.67 870.34,289.67 871.20,289.68 872.06,289.68 872.92,289.68 873.78,289.68 874.64,289.68 875.50,289.68 876.36,289.68 877.22,289.68 878.08,289.68 878.94,289.68 879.80,289.68 880.66,289.68 881.52,289.68 882.38,289.68 883.24,289.68 884.10,289.68 884.96,289.68 885.82,289.68 886.68,289.68 887.54,289.68 888.40,289.68 889.26,289.68 890.12,289.68 890.98,289.68 891.84,289.68 892.70,289.68 893.56,289.68 894.42,289.68 895.28,289.68 896.14,289.68 897.00,289.68 897.86,289.69 898.72,289.69 899.58,289.69 900.44,289.69 901.30,289.69 902.16,289.69 903.02,289.69 903.88,289.69 904.74,289.69 905.60,289.69 906.46,289.69 907.32,289.69 908.18,289.69 909.04,289.69 909.90,289.69 910.76,289.68 911.62,289.68 912.48,289.68 913.34,289.68 914.20,289.68 915.06,289.68 915.92,289.68 916.78,289.68 917.64,289.68 918.50,289.68 919.36,289.68 920.22,289.68 921.08,289.68 921.94,289.68 922.80,289.68 923.66,289.68 924.52,289.68 925.38,289.68 926.24,289.68 927.10,289.68 927.96,289.68 928.82,289.68 929.68,289.68 930.54,289.68 931.40,289.68 932.26,289.68 933.12,289.67 933.98,289.67 934.84,289.67 935.70,289.67 936.56,289.67 937.42,289.67 938.28,289.67 939.14,289.67 940.00,289.67" />
  <polyline fill="none" stroke="#b66a00" stroke-width="1.6" stroke-linejoin="round" stroke-linecap="round" points="80.00,254.33 80.86,254.69 81.72,255.04 82.58,255.38 83.44,255.71 84.30,256.02 85.16,256.32 86.02,256.61 86.88,256.89 87.74,257.15 88.60,257.39 89.46,257.61 90.32,257.81 91.18,257.99 92.04,258.15 92.90,258.29 93.76,258.40 94.62,258.48 95.48,258.53 96.34,258.56 97.20,258.55 98.06,258.51 98.92,258.43 99.78,258.33 100.64,258.18 101.50,258.00 102.36,257.77 103.22,257.51 104.08,257.21 104.94,256.87 105.80,256.48 106.66,256.05 107.52,255.58 108.38,255.07 109.24,254.51 110.10,253.90 110.96,253.25 111.82,252.56 112.68,251.82 113.54,251.04 114.40,250.22 115.26,249.35 116.12,248.43 116.98,247.47 117.84,246.47 118.70,245.42 119.56,244.33 120.42,243.19 121.28,242.01 122.14,240.79 123.00,239.52 123.86,238.21 124.72,236.85 125.58,235.46 126.44,234.01 127.30,232.53 128.16,231.00 129.02,229.42 129.88,227.80 130.74,226.14 131.60,224.43 132.46,222.68 133.32,220.89 134.18,219.05 135.04,217.16 135.90,215.23 136.76,213.25 137.62,211.23 138.48,209.16 139.34,207.05 140.20,204.90 141.06,202.69 141.92,200.45 142.78,198.15 143.64,195.82 144.50,193.44 145.36,191.01 146.22,188.54 147.08,186.03 147.94,183.48 148.80,180.89 149.66,178.26 150.52,175.59 151.38,172.88 152.24,170.14 153.10,167.37 153.96,164.56 154.82,161.73 155.68,158.87 156.54,155.98 157.40,153.08 158.26,150.16 159.12,147.23 159.98,144.29 160.84,141.34 161.70,138.40 162.56,135.45 163.42,132.52 164.28,129.60 165.14,126.70 166.00,123.83 166.86,120.98 167.72,118.18 168.58,115.42 169.44,112.70 170.30,110.04 171.16,107.45 172.02,104.92 172.88,102.46 173.74,100.08 174.60,97.79 175.46,95.58 176.32,93.47 177.18,91.46 178.04,89.55 178.90,87.74 179.76,86.05 180.62,84.46 181.48,82.99 182.34,81.64 183.20,80.48 184.06,80.48 184.92,80.48 185.78,80.48 186.64,80.48 187.50,80.48 188.36,80.48 189.22,80.48 190.08,80.48 190.94,80.48 191.80,80.48 192.66,80.48 193.52,80.48 194.38,80.48 195.24,80.48 196.10,80.48 196.96,80.48 197.82,80.48 198.68,80.48 199.54,80.48 200.40,80.48 201.26,80.48 202.12,80.48 202.98,80.48 203.84,80.70 204.70,81.59 205.56,82.51 206.42,83.46 207.28,84.44 208.14,85.45 209.00,86.48 209.86,87.53 210.72,88.60 211.58,89.69 212.44,90.79 213.30,91.90 214.16,93.02 215.02,94.16 215.88,95.29 216.74,96.43 217.60,97.58 218.46,98.72 219.32,99.87 220.18,101.02 221.04,102.16 221.90,103.30 222.76,104.44 223.62,105.58 224.48,106.71 225.34,107.83 226.20,108.95 227.06,110.06 227.92,111.16 228.78,112.26 229.64,113.35 230.50,114.43 231.36,115.50 232.22,116.56 233.08,117.61 233.94,118.65 234.80,119.69 235.66,120.71 236.52,121.72 237.38,122.73 238.24,123.72 239.10,124.71 239.96,125.68 240.82,126.64 241.68,127.60 242.54,128.54 243.40,129.47 244.26,130.39 245.12,131.31 245.98,132.21 246.84,133.10 247.70,133.99 248.56,134.86 249.42,135.72 250.28,136.58 251.14,137.42 252.00,138.26 252.86,139.08 253.72,139.90 254.58,140.71 255.44,141.50 256.30,142.29 257.16,143.07 258.02,143.84 258.88,144.61 259.74,145.36 260.60,146.11 261.46,146.84 262.32,147.57 263.18,148.29 264.04,149.01 264.90,149.71 265.76,150.41 266.62,151.10 267.48,151.78 268.34,152.45 269.20,153.12 270.06,153.78 270.92,154.43 271.78,155.08 272.64,155.71 273.50,156.35 274.36,156.97 275.22,157.59 276.08,158.20 276.94,158.80 277.80,159.40 278.66,159.99 279.52,160.57 280.38,161.15 281.24,161.72 282.10,162.29 282.96,162.85 283.82,163.40 284.68,163.95 285.54,164.49 286.40,165.03 287.26,165.56 288.12,166.09 288.98,166.61 289.84,167.12 290.70,167.63 291.56,168.13 292.42,168.63 293.28,169.12 294.14,169.61 295.00,170.09 295.86,170.57 296.72,171.04 297.58,171.50 298.44,171.96 299.30,172.42 300.16,172.87 301.02,173.32 301.88,173.76 302.74,174.20 303.60,174.63 304.46,175.05 305.32,175.48 306.18,175.89 307.04,176.31 307.90,176.72 308.76,177.12 309.62,177.52 310.48,177.91 311.34,178.30 312.20,178.69 313.06,179.07 313.92,179.45 314.78,179.82 315.64,180.18 316.50,180.55 317.36,180.91 318.22,181.26 319.08,181.61 319.94,181.95 320.80,182.30 321.66,182.63 322.52,182.96 323.38,183.29 324.24,183.61 325.10,183.93 325.96,184.25 326.82,184.56 327.68,184.86 328.54,185.16 329.40,185.46 330.26,185.75 331.12,186.04 331.98,186.32 332.84,186.60 333.70,186.87 334.56,187.14 335.42,187.41 336.28,187.67 337.14,187.92 338.00,188.18 338.86,188.42 339.72,188.66 340.58,188.90 341.44,189.13 342.30,189.36 343.16,189.59 344.02,189.80 344.88,190.02 345.74,190.23 346.60,190.43 347.46,190.63 348.32,190.82 349.18,191.01 350.04,191.20 350.90,191.37 351.76,191.55 352.62,191.72 353.48,191.88 354.34,192.04 355.20,192.19 356.06,192.34 356.92,192.48 357.78,192.62 358.64,192.75 359.50,192.87 360.36,192.99 361.22,193.10 362.08,193.21 362.94,193.31 363.80,193.41 364.66,193.50 365.52,193.58 366.38,193.66 367.24,193.73 368.10,193.80 368.96,193.86 369.82,193.91 370.68,193.96 371.54,194.00 372.40,194.03 373.26,194.05 374.12,194.07 374.98,194.09 375.84,194.09 376.70,194.09 377.56,194.08 378.42,194.06 379.28,194.04 380.14,194.00 381.00,193.96 381.86,193.92 382.72,193.86 383.58,193.80 384.44,193.72 385.30,193.64 386.16,193.55 387.02,193.46 387.88,193.35 388.74,193.23 389.60,193.11 390.46,192.98 391.32,192.83 392.18,192.68 393.04,192.52 393.90,192.35 394.76,192.16 395.62,191.97 396.48,191.77 397.34,191.55 398.20,191.33 399.06,191.09 399.92,190.84 400.78,190.58 401.64,190.31 402.50,190.03 403.36,189.73 404.22,189.42 405.08,189.10 405.94,188.76 406.80,188.41 407.66,188.05 408.52,187.67 409.38,187.27 410.24,186.86 411.10,186.43 411.96,185.99 412.82,185.53 413.68,185.05 414.54,184.55 415.40,184.03 416.26,183.49 417.12,182.92 417.98,182.34 418.84,181.73 419.70,181.09 420.56,180.43 421.42,179.74 422.28,179.01 423.14,178.25 424.00,177.46 424.86,176.63 425.72,175.75 426.58,174.83 427.44,173.86 428.30,172.83 429.16,171.74 430.02,170.57 430.88,169.33 431.74,168.00 432.60,166.56 433.46,165.01 434.32,163.31 435.18,161.45 436.04,159.40 436.90,157.10 437.76,154.52 438.62,151.59 439.48,148.21 440.34,144.27 441.20,139.60 442.06,134.01 442.92,127.23 443.78,118.96 444.64,109.07 445.50,98.18 446.36,89.42 447.22,91.16 448.08,112.80 448.94,148.28 449.80,180.34 450.66,201.03 451.52,211.81 452.38,216.58 453.24,218.52 454.10,219.59 454.96,220.89 455.82,223.08 456.68,226.64 457.54,231.87 458.40,238.60 459.26,245.26 460.12,247.70 460.98,241.66 461.84,229.10 462.70,215.06 463.56,202.59 464.42,192.56 465.28,184.77 466.14,178.73 467.00,173.97 467.86,170.13 468.72,166.94 469.58,164.22 470.44,161.84 471.30,159.71 472.16,157.77 473.02,155.97 473.88,154.29 474.74,152.69 475.60,151.16 476.46,149.69 477.32,148.27 478.18,146.88 479.04,145.54 479.90,144.22 480.76,142.93 481.62,141.67 482.48,140.42 483.34,139.20 484.20,138.00 485.06,136.82 485.92,135.66 486.78,134.53 487.64,133.41 488.50,132.31 489.36,131.24 490.22,130.20 491.08,129.19 491.94,128.22 492.80,127.34 493.66,126.59 494.52,126.18 495.38,126.67 496.24,130.36 497.10,147.70 497.96,185.69 498.82,161.08 499.68,143.07 500.54,135.62 501.40,131.97 502.26,129.92 503.12,128.72 503.98,128.04 504.84,127.72 505.70,127.71 506.56,127.96 507.42,128.46 508.28,129.21 509.14,130.22 510.00,131.50 510.86,133.08 511.72,134.97 512.58,137.21 513.44,139.83 514.30,142.87 515.16,146.39 516.02,150.44 516.88,155.07 517.74,160.38 518.60,166.45 519.46,173.37 520.32,181.28 521.18,190.32 522.04,200.67 522.90,212.52 523.76,226.11 524.62,241.66 525.48,259.16 526.34,276.22 527.20,269.39 528.06,243.97 528.92,214.34 529.78,183.12 530.64,153.22 531.50,128.21 532.36,111.08 533.22,102.95 534.08,102.80 534.94,108.54 535.80,118.04 536.66,129.64 537.52,142.22 538.38,155.12 539.24,167.93 540.10,180.41 540.96,192.45 541.82,203.98 542.68,214.96 543.54,225.40 544.40,235.29 545.26,244.64 546.12,253.47 546.98,261.80 547.84,269.63 548.70,276.98 549.56,283.78 550.42,287.97 551.28,282.94 552.14,277.29 553.00,271.92 553.86,266.86 554.72,262.10 555.58,257.64 556.44,253.46 557.30,249.55 558.16,245.88 559.02,242.45 559.88,239.24 560.74,236.24 561.60,233.44 562.46,230.83 563.32,228.39 564.18,226.11 565.04,224.00 565.90,222.03 566.76,220.21 567.62,218.51 568.48,216.95 569.34,215.50 570.20,214.17 571.06,212.95 571.92,211.83 572.78,210.81 573.64,209.88 574.50,209.04 575.36,208.30 576.22,207.63 577.08,207.05 577.94,206.54 578.80,206.11 579.66,205.75 580.52,205.46 581.38,205.25 582.24,205.10 583.10,205.01 583.96,205.00 584.82,205.04 585.68,205.16 586.54,205.33 587.40,205.57 588.26,205.87 589.12,206.24 589.98,206.68 590.84,207.18 591.70,207.74 592.56,208.38 593.42,209.09 594.28,209.87 595.14,210.73 596.00,211.66 596.86,212.68 597.72,213.79 598.58,214.99 599.44,216.28 600.30,217.68 601.16,219.18 602.02,220.81 602.88,222.55 603.74,224.43 604.60,226.45 605.46,228.63 606.32,230.97 607.18,233.50 608.04,236.22 608.90,239.16 609.76,242.33 610.62,245.76 611.48,249.46 612.34,253.46 613.20,257.79 614.06,262.48 614.92,267.53 615.78,272.97 616.64,278.75 617.50,284.39 618.36,285.09 619.22,278.71 620.08,270.82 620.94,262.18 621.80,252.91 622.66,243.08 623.52,232.76 624.38,222.06 625.24,211.09 626.10,200.04 626.96,189.08 627.82,178.43 628.68,168.28 629.54,158.82 630.40,150.19 631.26,142.51 632.12,135.81 632.98,130.10 633.84,125.35 634.70,121.48 635.56,118.42 636.42,116.07 637.28,114.33 638.14,113.11 639.00,112.33 639.86,111.93 640.72,111.82 641.58,111.98 642.44,112.34 643.30,112.88 644.16,113.58 645.02,114.42 645.88,115.39 646.74,116.48 647.60,117.71 648.46,119.09 649.32,120.65 650.18,122.42 651.04,124.48 651.90,126.92 652.76,129.87 653.62,133.53 654.48,138.22 655.34,144.37 656.20,152.67 657.06,164.09 657.92,179.89 658.78,201.30 659.64,228.18 660.50,254.64 661.36,256.25 662.22,233.02 663.08,209.86 663.94,191.88 664.80,178.83 665.66,169.55 666.52,162.99 667.38,158.36 668.24,155.10 669.10,152.83 669.96,151.31 670.82,150.35 671.68,149.83 672.54,149.67 673.40,149.80 674.26,150.20 675.12,150.82 675.98,151.65 676.84,152.68 677.70,153.91 678.56,155.32 679.42,156.93 680.28,158.74 681.14,160.75 682.00,162.99 682.86,165.47 683.72,168.19 684.58,171.19 685.44,174.49 686.30,178.11 687.16,182.07 688.02,186.42 688.88,191.18 689.74,196.39 690.60,202.09 691.46,208.31 692.32,215.10 693.18,222.48 694.04,230.49 694.90,239.15 695.76,248.46 696.62,258.38 697.48,268.75 698.34,278.85 699.20,282.05 700.06,272.46 700.92,260.19 701.78,247.30 702.64,234.19 703.50,221.13 704.36,208.32 705.22,195.92 706.08,184.11 706.94,173.00 707.80,162.69 708.66,153.23 709.52,144.65 710.38,136.94 711.24,130.08 712.10,124.03 712.96,118.74 713.82,114.15 714.68,110.19 715.54,106.80 716.40,103.94 717.26,101.54 718.12,99.56 718.98,97.94 719.84,96.65 720.70,95.66 721.56,94.92 722.42,94.42 723.28,94.12 724.14,94.00 725.00,94.05 725.86,94.25 726.72,94.58 727.58,95.03 728.44,95.58 729.30,96.23 730.16,96.96 731.02,97.78 731.88,98.66 732.74,99.61 733.60,100.61 734.46,101.66 735.32,102.76 736.18,103.91 737.04,105.08 737.90,106.30 738.76,107.54 739.62,108.80 740.48,110.09 741.34,111.40 742.20,112.73 743.06,114.07 743.92,115.42 744.78,116.78 745.64,118.15 746.50,119.52 747.36,120.90 748.22,122.28 749.08,123.66 749.94,125.04 750.80,126.42 751.66,127.79 752.52,129.16 753.38,130.52 754.24,131.88 755.10,133.22 755.96,134.56 756.82,135.89 757.68,137.22 758.54,138.53 759.40,139.83 760.26,141.12 761.12,142.41 761.98,143.68 762.84,144.95 763.70,146.21 764.56,147.46 765.42,148.71 766.28,149.95 767.14,151.20 768.00,152.45 768.86,153.71 769.72,154.98 770.58,156.27 771.44,157.60 772.30,158.96 773.16,160.38 774.02,161.88 774.88,163.48 775.74,165.22 776.60,167.14 777.46,169.31 778.32,171.81 779.18,174.78 780.04,178.37 780.90,182.83 781.76,188.49 782.62,195.82 783.48,205.38 784.34,217.78 785.20,233.36 786.06,251.31 786.92,266.96 787.78,265.67 788.64,250.36 789.50,234.54 790.36,221.41 791.22,211.19 792.08,203.41 792.94,197.52 793.80,193.01 794.66,189.53 795.52,186.79 796.38,184.59 797.24,182.80 798.10,181.31 798.96,180.03 799.82,178.92 800.68,177.92 801.54,177.01 802.40,176.15 803.26,175.33 804.12,174.54 804.98,173.75 805.84,172.95 806.70,172.14 807.56,171.30 808.42,170.44 809.28,169.53 810.14,168.58 811.00,167.59 811.86,166.53 812.72,165.42 813.58,164.24 814.44,162.99 815.30,161.67 816.16,160.27 817.02,158.78 817.88,157.21 818.74,155.56 819.60,153.81 820.46,151.97 821.32,150.04 822.18,148.02 823.04,145.92 823.90,143.74 824.76,141.50 825.62,139.20 826.48,136.88 827.34,134.56 828.20,132.28 829.06,130.09 829.92,128.04 830.78,126.21 831.64,124.67 832.50,123.51 833.36,122.83 834.22,122.72 835.08,123.28 835.94,124.56 836.80,126.62 837.66,129.48 838.52,133.11 839.38,137.45 840.24,142.43 841.10,147.92 841.96,153.80 842.82,159.95 843.68,166.22 844.54,172.53 845.40,178.76 846.26,184.86 847.12,190.75 847.98,196.40 848.84,201.77 849.70,206.87 850.56,211.67 851.42,216.17 852.28,220.39 853.14,224.33 854.00,228.00 854.86,231.41 855.72,234.57 856.58,237.50 857.44,240.21 858.30,242.72 859.16,245.02 860.02,247.14 860.88,249.08 861.74,250.86 862.60,252.48 863.46,253.95 864.32,255.28 865.18,256.48 866.04,257.55 866.90,258.51 867.76,259.35 868.62,260.09 869.48,260.74 870.34,261.29 871.20,261.76 872.06,262.15 872.92,262.47 873.78,262.72 874.64,262.91 875.50,263.04 876.36,263.13 877.22,263.17 878.08,263.16 878.94,263.12 879.80,263.05 880.66,262.94 881.52,262.81 882.38,262.66 883.24,262.48 884.10,262.29 884.96,262.08 885.82,261.85 886.68,261.62 887.54,261.37 888.40,261.11 889.26,260.84 890.12,260.57 890.98,260.29 891.84,260.00 892.70,259.71 893.56,259.42 894.42,259.12 895.28,258.82 896.14,258.52 897.00,258.22 897.86,257.91 898.72,257.61 899.58,257.30 900.44,256.99 901.30,256.69 902.16,256.38 903.02,256.07 903.88,255.77 904.74,255.46 905.60,255.16 906.46,254.85 907.32,254.55 908.18,254.25 909.04,253.95 909.90,253.65 910.76,253.35 911.62,253.05 912.48,252.75 913.34,252.45 914.20,252.16 915.06,251.87 915.92,251.57 916.78,251.28 917.64,250.99 918.50,250.70 919.36,250.41 920.22,250.13 921.08,249.84 921.94,249.56 922.80,249.27 923.66,248.99 924.52,248.71 925.38,248.43 926.24,248.15 927.10,247.88 927.96,247.60 928.82,247.33 929.68,247.05 930.54,246.78 931.40,246.51 932.26,246.24 933.12,245.97 933.98,245.70 934.84,245.43 935.70,245.16 936.56,244.90 937.42,244.63 938.28,244.37 939.14,244.10 940.00,243.84" />
  <polyline fill="none" stroke="#8a1f1f" stroke-width="1.4" stroke-linejoin="round" stroke-linecap="round" points="80.00,564.38 80.86,564.74 81.72,565.09 82.58,565.43 83.44,565.76 84.30,566.08 85.16,566.39 86.02,566.68 86.88,566.96 87.74,567.22 88.60,567.46 89.46,567.69 90.32,567.89 91.18,568.07 92.04,568.24 92.90,568.37 93.76,568.48 94.62,568.57 95.48,568.62 96.34,568.65 97.20,568.65 98.06,568.61 98.92,568.54 99.78,568.43 100.64,568.29 101.50,568.11 102.36,567.89 103.22,567.63 104.08,567.33 104.94,566.99 105.80,566.60 106.66,566.18 107.52,565.71 108.38,565.19 109.24,564.64 110.10,564.03 110.96,563.39 111.82,562.70 112.68,561.96 113.54,561.18 114.40,560.36 115.26,559.49 116.12,558.57 116.98,557.62 117.84,556.61 118.70,555.57 119.56,554.48 120.42,553.34 121.28,552.16 122.14,550.94 123.00,549.67 123.86,548.36 124.72,547.01 125.58,545.61 126.44,544.17 127.30,542.68 128.16,541.15 129.02,539.58 129.88,537.96 130.74,536.29 131.60,534.59 132.46,532.83 133.32,531.04 134.18,529.19 135.04,527.31 135.90,525.38 136.76,523.40 137.62,521.38 138.48,519.31 139.34,517.19 140.20,515.04 141.06,512.83 141.92,510.58 142.78,508.29 143.64,505.95 144.50,503.56 145.36,501.14 146.22,498.67 147.08,496.15 147.94,493.60 148.80,491.01 149.66,488.37 150.52,485.70 151.38,482.99 152.24,480.25 153.10,477.47 153.96,474.66 154.82,471.82 155.68,468.96 156.54,466.07 157.40,463.17 158.26,460.24 159.12,457.31 159.98,454.36 160.84,451.41 161.70,448.46 162.56,445.52 163.42,442.58 164.28,439.66 165.14,436.76 166.00,433.88 166.86,431.03 167.72,428.22 168.58,425.46 169.44,422.74 170.30,420.08 171.16,417.48 172.02,414.95 172.88,412.48 173.74,410.10 174.60,407.81 175.46,405.60 176.32,403.48 177.18,401.47 178.04,399.56 178.90,397.75 179.76,396.05 180.62,394.47 181.48,393.00 182.34,391.64 183.20,390.48 184.06,390.48 184.92,390.48 185.78,390.48 186.64,390.48 187.50,390.48 188.36,390.48 189.22,390.48 190.08,390.48 190.94,390.48 191.80,390.48 192.66,390.48 193.52,390.48 194.38,390.48 195.24,390.48 196.10,390.48 196.96,390.48 197.82,390.48 198.68,390.48 199.54,390.48 200.40,390.48 201.26,390.48 202.12,390.48 202.98,390.48 203.84,390.71 204.70,391.60 205.56,392.52 206.42,393.47 207.28,394.45 208.14,395.46 209.00,396.49 209.86,397.55 210.72,398.62 211.58,399.71 212.44,400.81 213.30,401.93 214.16,403.05 215.02,404.18 215.88,405.32 216.74,406.46 217.60,407.61 218.46,408.76 219.32,409.91 220.18,411.06 221.04,412.20 221.90,413.35 222.76,414.49 223.62,415.62 224.48,416.75 225.34,417.88 226.20,419.00 227.06,420.11 227.92,421.22 228.78,422.31 229.64,423.40 230.50,424.49 231.36,425.56 232.22,426.62 233.08,427.67 233.94,428.72 234.80,429.75 235.66,430.78 236.52,431.79 237.38,432.80 238.24,433.80 239.10,434.78 239.96,435.76 240.82,436.72 241.68,437.68 242.54,438.62 243.40,439.55 244.26,440.48 245.12,441.39 245.98,442.30 246.84,443.19 247.70,444.08 248.56,444.95 249.42,445.82 250.28,446.67 251.14,447.52 252.00,448.35 252.86,449.18 253.72,450.00 254.58,450.81 255.44,451.60 256.30,452.39 257.16,453.18 258.02,453.95 258.88,454.71 259.74,455.47 260.60,456.21 261.46,456.95 262.32,457.68 263.18,458.40 264.04,459.12 264.90,459.82 265.76,460.52 266.62,461.21 267.48,461.90 268.34,462.57 269.20,463.24 270.06,463.90 270.92,464.55 271.78,465.20 272.64,465.84 273.50,466.47 274.36,467.09 275.22,467.71 276.08,468.32 276.94,468.93 277.80,469.53 278.66,470.12 279.52,470.70 280.38,471.28 281.24,471.86 282.10,472.42 282.96,472.98 283.82,473.54 284.68,474.09 285.54,474.63 286.40,475.17 287.26,475.70 288.12,476.22 288.98,476.74 289.84,477.26 290.70,477.77 291.56,478.27 292.42,478.77 293.28,479.26 294.14,479.75 295.00,480.23 295.86,480.71 296.72,481.18 297.58,481.65 298.44,482.11 299.30,482.57 300.16,483.02 301.02,483.47 301.88,483.91 302.74,484.35 303.60,484.78 304.46,485.21 305.32,485.63 306.18,486.05 307.04,486.46 307.90,486.87 308.76,487.28 309.62,487.68 310.48,488.07 311.34,488.46 312.20,488.85 313.06,489.23 313.92,489.61 314.78,489.98 315.64,490.35 316.50,490.71 317.36,491.07 318.22,491.42 319.08,491.77 319.94,492.12 320.80,492.46 321.66,492.80 322.52,493.13 323.38,493.46 324.24,493.78 325.10,494.10 325.96,494.41 326.82,494.72 327.68,495.03 328.54,495.33 329.40,495.63 330.26,495.92 331.12,496.21 331.98,496.49 332.84,496.77 333.70,497.05 334.56,497.32 335.42,497.58 336.28,497.84 337.14,498.10 338.00,498.35 338.86,498.60 339.72,498.84 340.58,499.08 341.44,499.31 342.30,499.54 343.16,499.76 344.02,499.98 344.88,500.20 345.74,500.41 346.60,500.61 347.46,500.81 348.32,501.00 349.18,501.19 350.04,501.38 350.90,501.56 351.76,501.73 352.62,501.90 353.48,502.06 354.34,502.22 355.20,502.38 356.06,502.52 356.92,502.67 357.78,502.80 358.64,502.93 359.50,503.06 360.36,503.18 361.22,503.29 362.08,503.40 362.94,503.50 363.80,503.60 364.66,503.69 365.52,503.78 366.38,503.85 367.24,503.93 368.10,503.99 368.96,504.05 369.82,504.10 370.68,504.15 371.54,504.19 372.40,504.22 373.26,504.25 374.12,504.27 374.98,504.28 375.84,504.29 376.70,504.28 377.56,504.27 378.42,504.26 379.28,504.23 380.14,504.20 381.00,504.16 381.86,504.11 382.72,504.06 383.58,503.99 384.44,503.92 385.30,503.84 386.16,503.75 387.02,503.66 387.88,503.55 388.74,503.43 389.60,503.31 390.46,503.18 391.32,503.03 392.18,502.88 393.04,502.72 393.90,502.55 394.76,502.36 395.62,502.17 396.48,501.97 397.34,501.75 398.20,501.53 399.06,501.29 399.92,501.04 400.78,500.78 401.64,500.51 402.50,500.23 403.36,499.93 404.22,499.62 405.08,499.30 405.94,498.96 406.80,498.61 407.66,498.25 408.52,497.87 409.38,497.47 410.24,497.06 411.10,496.63 411.96,496.19 412.82,495.73 413.68,495.25 414.54,494.75 415.40,494.23 416.26,493.68 417.12,493.12 417.98,492.54 418.84,491.92 419.70,491.29 420.56,490.62 421.42,489.93 422.28,489.21 423.14,488.45 424.00,487.65 424.86,486.82 425.72,485.94 426.58,485.02 427.44,484.05 428.30,483.02 429.16,481.93 430.02,480.76 430.88,479.52 431.74,478.18 432.60,476.75 433.46,475.19 434.32,473.49 435.18,471.63 436.04,469.57 436.90,467.28 437.76,464.69 438.62,461.76 439.48,458.37 440.34,454.43 441.20,449.76 442.06,444.16 442.92,437.36 443.78,429.09 444.64,419.19 445.50,408.28 446.36,399.52 447.22,401.26 448.08,422.92 448.94,458.45 449.80,490.55 450.66,511.27 451.52,522.06 452.38,526.83 453.24,528.78 454.10,529.85 454.96,531.15 455.82,533.34 456.68,536.91 457.54,542.15 458.40,548.88 459.26,555.56 460.12,558.00 460.98,551.95 461.84,539.37 462.70,525.32 463.56,512.84 464.42,502.79 465.28,494.99 466.14,488.94 467.00,484.18 467.86,480.34 468.72,477.14 469.58,474.42 470.44,472.03 471.30,469.90 472.16,467.96 473.02,466.16 473.88,464.47 474.74,462.87 475.60,461.34 476.46,459.87 477.32,458.44 478.18,457.06 479.04,455.71 479.90,454.39 480.76,453.10 481.62,451.84 482.48,450.59 483.34,449.37 484.20,448.17 485.06,446.99 485.92,445.83 486.78,444.69 487.64,443.57 488.50,442.47 489.36,441.40 490.22,440.36 491.08,439.35 491.94,438.38 492.80,437.49 493.66,436.75 494.52,436.33 495.38,436.83 496.24,440.52 497.10,457.89 497.96,495.92 498.82,471.28 499.68,453.24 500.54,445.79 501.40,442.13 502.26,440.09 503.12,438.88 503.98,438.20 504.84,437.88 505.70,437.87 506.56,438.12 507.42,438.62 508.28,439.37 509.14,440.38 510.00,441.67 510.86,443.24 511.72,445.14 512.58,447.38 513.44,450.00 514.30,453.05 515.16,456.58 516.02,460.63 516.88,465.27 517.74,470.59 518.60,476.66 519.46,483.59 520.32,491.51 521.18,500.57 522.04,510.93 522.90,522.80 523.76,536.40 524.62,551.97 525.48,569.50 526.34,586.57 527.20,579.73 528.06,554.29 528.92,524.61 529.78,493.36 530.64,463.42 531.50,438.37 532.36,421.23 533.22,413.08 534.08,412.93 534.94,418.69 535.80,428.19 536.66,439.81 537.52,452.41 538.38,465.32 539.24,478.15 540.10,490.65 540.96,502.70 541.82,514.24 542.68,525.24 543.54,535.69 544.40,545.59 545.26,554.96 546.12,563.80 546.98,572.14 547.84,579.99 548.70,587.34 549.56,594.15 550.42,598.34 551.28,593.31 552.14,587.65 553.00,582.27 553.86,577.20 554.72,572.44 555.58,567.98 556.44,563.80 557.30,559.87 558.16,556.20 559.02,552.77 559.88,549.56 560.74,546.55 561.60,543.75 562.46,541.13 563.32,538.69 564.18,536.41 565.04,534.30 565.90,532.33 566.76,530.50 567.62,528.80 568.48,527.23 569.34,525.79 570.20,524.45 571.06,523.23 571.92,522.11 572.78,521.09 573.64,520.16 574.50,519.32 575.36,518.57 576.22,517.91 577.08,517.32 577.94,516.82 578.80,516.39 579.66,516.03 580.52,515.74 581.38,515.52 582.24,515.37 583.10,515.29 583.96,515.27 584.82,515.32 585.68,515.43 586.54,515.61 587.40,515.85 588.26,516.15 589.12,516.52 589.98,516.96 590.84,517.46 591.70,518.03 592.56,518.66 593.42,519.37 594.28,520.16 595.14,521.01 596.00,521.95 596.86,522.97 597.72,524.08 598.58,525.28 599.44,526.58 600.30,527.98 601.16,529.48 602.02,531.11 602.88,532.85 603.74,534.74 604.60,536.76 605.46,538.94 606.32,541.29 607.18,543.82 608.04,546.55 608.90,549.49 609.76,552.66 610.62,556.09 611.48,559.80 612.34,563.81 613.20,568.15 614.06,572.83 614.92,577.90 615.78,583.35 616.64,589.13 617.50,594.78 618.36,595.48 619.22,589.09 620.08,581.19 620.94,572.54 621.80,563.26 622.66,553.42 623.52,543.09 624.38,532.37 625.24,521.39 626.10,510.32 626.96,499.35 627.82,488.68 628.68,478.52 629.54,469.05 630.40,460.41 631.26,452.72 632.12,446.01 632.98,440.29 633.84,435.54 634.70,431.67 635.56,428.60 636.42,426.25 637.28,424.50 638.14,423.29 639.00,422.51 639.86,422.10 640.72,422.00 641.58,422.15 642.44,422.52 643.30,423.06 644.16,423.76 645.02,424.60 645.88,425.57 646.74,426.67 647.60,427.90 648.46,429.28 649.32,430.83 650.18,432.61 651.04,434.68 651.90,437.12 652.76,440.07 653.62,443.74 654.48,448.43 655.34,454.59 656.20,462.90 657.06,474.33 657.92,490.15 658.78,511.59 659.64,538.51 660.50,565.00 661.36,566.62 662.22,543.36 663.08,520.17 663.94,502.17 664.80,489.10 665.66,479.81 666.52,473.24 667.38,468.60 668.24,465.34 669.10,463.07 669.96,461.54 670.82,460.58 671.68,460.06 672.54,459.90 673.40,460.04 674.26,460.43 675.12,461.05 675.98,461.89 676.84,462.92 677.70,464.14 678.56,465.56 679.42,467.17 680.28,468.98 681.14,471.00 682.00,473.24 682.86,475.72 683.72,478.45 684.58,481.46 685.44,484.76 686.30,488.38 687.16,492.35 688.02,496.70 688.88,501.47 689.74,506.69 690.60,512.40 691.46,518.63 692.32,525.42 693.18,532.81 694.04,540.84 694.90,549.51 695.76,558.82 696.62,568.75 697.48,579.15 698.34,589.25 699.20,592.46 700.06,582.86 700.92,570.58 701.78,557.66 702.64,544.54 703.50,531.46 704.36,518.63 705.22,506.22 706.08,494.40 706.94,483.27 707.80,472.95 708.66,463.48 709.52,454.88 710.38,447.17 711.24,440.30 712.10,434.24 712.96,428.94 713.82,424.34 714.68,420.38 715.54,416.99 716.40,414.12 717.26,411.72 718.12,409.74 718.98,408.12 719.84,406.83 720.70,405.83 721.56,405.09 722.42,404.59 723.28,404.29 724.14,404.18 725.00,404.23 725.86,404.42 726.72,404.75 727.58,405.20 728.44,405.75 729.30,406.40 730.16,407.14 731.02,407.95 731.88,408.84 732.74,409.78 733.60,410.79 734.46,411.84 735.32,412.94 736.18,414.09 737.04,415.27 737.90,416.48 738.76,417.72 739.62,418.99 740.48,420.28 741.34,421.59 742.20,422.92 743.06,424.26 743.92,425.61 744.78,426.98 745.64,428.35 746.50,429.72 747.36,431.10 748.22,432.48 749.08,433.87 749.94,435.25 750.80,436.62 751.66,438.00 752.52,439.37 753.38,440.73 754.24,442.09 755.10,443.44 755.96,444.78 756.82,446.11 757.68,447.44 758.54,448.75 759.40,450.05 760.26,451.35 761.12,452.63 761.98,453.91 762.84,455.18 763.70,456.44 764.56,457.69 765.42,458.94 766.28,460.19 767.14,461.43 768.00,462.68 768.86,463.94 769.72,465.22 770.58,466.51 771.44,467.83 772.30,469.20 773.16,470.62 774.02,472.12 774.88,473.72 775.74,475.46 776.60,477.39 777.46,479.56 778.32,482.07 779.18,485.03 780.04,488.62 780.90,493.09 781.76,498.76 782.62,506.10 783.48,515.67 784.34,528.09 785.20,543.68 786.06,561.66 786.92,577.32 787.78,576.04 788.64,560.70 789.50,544.86 790.36,531.71 791.22,521.48 792.08,513.69 792.94,507.79 793.80,503.28 794.66,499.79 795.52,497.05 796.38,494.85 797.24,493.05 798.10,491.55 798.96,490.28 799.82,489.16 800.68,488.16 801.54,487.25 802.40,486.39 803.26,485.57 804.12,484.77 804.98,483.98 805.84,483.18 806.70,482.37 807.56,481.53 808.42,480.66 809.28,479.76 810.14,478.81 811.00,477.81 811.86,476.75 812.72,475.63 813.58,474.45 814.44,473.20 815.30,471.87 816.16,470.47 817.02,468.98 817.88,467.41 818.74,465.75 819.60,464.00 820.46,462.16 821.32,460.23 822.18,458.20 823.04,456.10 823.90,453.92 824.76,451.67 825.62,449.37 826.48,447.05 827.34,444.72 828.20,442.44 829.06,440.25 829.92,438.20 830.78,436.36 831.64,434.82 832.50,433.66 833.36,432.97 834.22,432.86 835.08,433.42 835.94,434.70 836.80,436.76 837.66,439.62 838.52,443.25 839.38,447.61 840.24,452.59 841.10,458.09 841.96,463.98 842.82,470.12 843.68,476.41 844.54,482.72 845.40,488.97 846.26,495.06 847.12,500.96 847.98,506.62 848.84,512.00 849.70,517.10 850.56,521.90 851.42,526.42 852.28,530.64 853.14,534.58 854.00,538.25 854.86,541.67 855.72,544.84 856.58,547.77 857.44,550.48 858.30,552.99 859.16,555.30 860.02,557.42 860.88,559.36 861.74,561.14 862.60,562.76 863.46,564.23 864.32,565.57 865.18,566.76 866.04,567.84 866.90,568.79 867.76,569.64 868.62,570.38 869.48,571.03 870.34,571.58 871.20,572.05 872.06,572.44 872.92,572.76 873.78,573.01 874.64,573.20 875.50,573.33 876.36,573.42 877.22,573.45 878.08,573.45 878.94,573.41 879.80,573.33 880.66,573.23 881.52,573.10 882.38,572.94 883.24,572.77 884.10,572.57 884.96,572.36 885.82,572.14 886.68,571.90 887.54,571.65 888.40,571.39 889.26,571.12 890.12,570.85 890.98,570.57 891.84,570.28 892.70,569.99 893.56,569.70 894.42,569.40 895.28,569.10 896.14,568.80 897.00,568.49 897.86,568.19 898.72,567.88 899.58,567.57 900.44,567.27 901.30,566.96 902.16,566.65 903.02,566.35 903.88,566.04 904.74,565.73 905.60,565.43 906.46,565.12 907.32,564.82 908.18,564.52 909.04,564.22 909.90,563.91 910.76,563.61 911.62,563.32 912.48,563.02 913.34,562.72 914.20,562.43 915.06,562.13 915.92,561.84 916.78,561.55 917.64,561.26 918.50,560.97 919.36,560.68 920.22,560.39 921.08,560.11 921.94,559.82 922.80,559.54 923.66,559.26 924.52,558.98 925.38,558.70 926.24,558.42 927.10,558.14 927.96,557.87 928.82,557.59 929.68,557.32 930.54,557.05 931.40,556.78 932.26,556.50 933.12,556.24 933.98,555.97 934.84,555.70 935.70,555.43 936.56,555.17 937.42,554.90 938.28,554.64 939.14,554.38 940.00,554.12" />
  <text x="90" y="90" font-family="Arial" font-size="13" fill="#1f5a9d">periodic baseline</text>
  <text x="250" y="90" font-family="Arial" font-size="13" fill="#b66a00">five-cell nonperiodic</text>
  <text x="90" y="400" font-family="Arial" font-size="13" fill="#8a1f1f">absolute difference</text>
  <text x="15" y="190" font-family="Arial" font-size="13" transform="rotate(-90 15,190)">|S| magnitude</text>
  <text x="15" y="500" font-family="Arial" font-size="13" transform="rotate(-90 15,500)">abs difference</text>
  <text x="80" y="315" font-family="Arial" font-size="12">6.0 GHz</text>
  <text x="885" y="315" font-family="Arial" font-size="12">24.0 GHz</text>
  <text x="80" y="635" font-family="Arial" font-size="12">6.0 GHz</text>
  <text x="885" y="635" font-family="Arial" font-size="12">24.0 GHz</text>
  <text x="460" y="635" font-family="Arial" font-size="13">Frequency (GHz)</text>
  <text x="948" y="75" font-family="Arial" font-size="11">1.05</text>
  <text x="948" y="385" font-family="Arial" font-size="11">1.05</text>
</svg>
